<?xml version="1.0" encoding="utf-8"?>
<!-- Generator: Adobe Illustrator 27.5.0, SVG Export Plug-In . SVG Version: 6.00 Build 0)  -->
<svg version="1.1" xmlns="http://www.w3.org/2000/svg" xmlns:xlink="http://www.w3.org/1999/xlink" x="0px" y="0px"
	 viewBox="0 0 1122 1122" style="enable-background:new 0 0 1122 1122;" xml:space="preserve">
<g id="Background">
	<rect style="fill:#FFFFFF;" width="1122" height="1122"/>
</g>
<g id="Object">
	<g>
		<g>
			<g>
				<g>
					<path style="fill:#007460;" d="M661.771,531.451c0,0-7.708-20.283-23.276-23.071c-15.567-2.788-44.419,5.275-68.556,2.842
						c-31.471-3.172-55.982-25.149-65.262-41.932c-6.692-12.103-3.348-39.349,6.438-51.773c9.786-12.424,33.212-27.13,70.128-6.341
						c36.916,20.789,53.549,49.286,57.758,67.996c4.209,18.711,11.207,21.854,13.134,26.925
						C654.062,511.169,675.411,529.169,661.771,531.451z"/>
					<path style="opacity:0.6;fill:#124347;" d="M568.804,444.494c0.294-15.195-12.301-25.494-23.353-33.777
						c-0.797-0.598-1.789,0.596-0.989,1.195c10.584,7.932,22.681,17.633,22.795,32.042c-10.675-5.462-21.61-10.442-32.43-15.297
						c-0.91-0.408-1.547,1.005-0.635,1.415c11.001,4.936,22.138,9.992,32.994,15.566c-15.149,1.238-29.736,5.843-44.154,10.47
						c-0.952,0.306-0.397,1.754,0.551,1.45c15.086-4.841,30.341-9.643,46.257-10.543c15.352,8.042,30.07,17.197,42.956,28.618
						c-7.594-2.177-15.526-2.484-23.422-2.207c-10.324,0.361-20.644,1.178-30.955,1.804c-0.996,0.061-0.831,1.603,0.165,1.542
						c9.699-0.589,19.399-1.298,29.106-1.73c9.333-0.415,18.786-0.194,27.658,3.039c0.065,0.024,0.129,0.037,0.191,0.045
						c3.959,3.687,7.735,7.599,11.28,11.784c0.642,0.758,1.908-0.139,1.263-0.901c-4.926-5.816-10.285-11.115-15.971-16.005
						c0.129-0.18,0.183-0.416,0.086-0.686c-4.31-12.038,0.285-30.838-13.794-37.575c-0.901-0.431-1.536,0.984-0.635,1.415
						c12.78,6.115,9.2,23.753,12.533,35.305c-11.895-9.928-25.166-18.119-38.966-25.401c-0.075-0.351-0.355-0.666-0.813-0.644
						c-0.124,0.006-0.247,0.017-0.371,0.024c-0.46-0.24-0.923-0.474-1.384-0.712C568.786,444.656,568.803,444.579,568.804,444.494z"
						/>
					<path style="opacity:0.2;fill:#124347;" d="M638.495,508.38c15.172,4.463,23.276,23.071,23.276,23.071
						c13.64-2.282-7.708-20.283-9.635-25.353c-1.927-5.071-8.925-8.214-13.134-26.925c-4.209-18.711-20.843-47.208-57.758-67.996
						c0,0,37.931,33.009,41.642,49.977C626.596,478.122,634.982,507.347,638.495,508.38z"/>
				</g>
				<g>
					<path style="fill:#007460;" d="M627.458,519.59c0,0,15.577-16.054,11.681-32.107c-3.896-16.052-23.372-40.129-31.164-64.208
						c-10.159-31.394-0.006-64.211,11.677-80.264c8.424-11.576,35.05-20.069,50.63-16.058c15.579,4.012,38.949,20.062,35.058,64.207
						c-3.891,44.145-23.362,72.239-38.939,84.28c-15.578,12.041-15.577,20.067-19.471,24.081
						C643.035,503.536,635.249,531.629,627.458,519.59z"/>
					<path style="opacity:0.6;fill:#124347;" d="M669.306,393.578c14.196-6.236,18.493-22.672,21.565-36.772
						c0.222-1.017-1.296-1.451-1.518-0.431c-2.942,13.502-6.892,29.207-20.19,35.495c0.617-12.53,0.678-25.101,0.671-37.509
						c-0.001-1.044-1.575-1.046-1.575,0c0.007,12.615-0.041,25.412-0.686,38.163c-7.452-13.927-17.786-25.873-28.072-37.649
						c-0.68-0.778-1.79,0.373-1.113,1.148c10.763,12.322,21.558,24.821,29.016,39.623c-1.059,18.1-3.414,36.072-8.628,53.267
						c-1.144-8.181-4.161-15.882-7.703-23.3c-4.631-9.698-9.683-19.197-14.553-28.768c-0.471-0.925-1.83-0.106-1.36,0.819
						c4.582,9.003,9.276,17.956,13.715,27.035c4.268,8.729,7.998,17.846,8.696,27.699c0.005,0.073,0.019,0.139,0.038,0.201
						c-1.767,5.359-3.818,10.64-6.219,15.818c-0.435,0.938,0.922,1.762,1.36,0.819c3.336-7.195,6.014-14.582,8.177-22.105
						c0.22,0.046,0.461-0.004,0.671-0.212c9.356-9.276,28.68-12.952,29.06-29.277c0.024-1.045-1.55-1.044-1.575,0
						c-0.345,14.819-18.171,18.966-27.483,27.101c4.245-15.609,6.308-31.787,7.309-48.08c0.294-0.222,0.469-0.624,0.258-1.052
						c-0.057-0.116-0.119-0.229-0.177-0.344c0.031-0.542,0.055-1.084,0.083-1.626C669.149,393.63,669.227,393.613,669.306,393.578z"
						/>
					<path style="opacity:0.2;fill:#124347;" d="M639.139,487.483c2.181,16.393-11.681,32.107-11.681,32.107
						c7.791,12.039,15.577-16.054,19.472-20.068c3.894-4.014,3.894-12.04,19.471-24.081c15.578-12.041,35.049-40.135,38.939-84.28
						c0,0-14.786,50.354-28.957,61.173C662.212,463.152,638.634,483.688,639.139,487.483z"/>
				</g>
				<path style="fill:#154C47;" d="M864.498,353.484c-2.545-9.044-13.535-15.836-21.759-11.292c-3.637,2.01-6.005,5.664-8.282,9.138
					c-1.242,1.895-2.509,3.775-3.785,5.647c-0.796-3.039-1.849-6.061-2.334-9.158c-1.899-12.115,4.909-23.626,9.445-35.019
					c4.535-11.393,6.014-26.442-3.585-34.073c-8.387-6.667-21.661-3.538-28.822,4.431c-7.161,7.97-9.342,19.258-9.528,29.971
					c-0.074,4.243,0.088,8.653-1.636,12.531c-1.968,4.427-6.065,7.453-9.345,11.019c-19.462,21.164-9.091,59.386-29.741,79.394
					c-2.708,2.624-6.164,4.887-9.931,4.717c-8.416-0.381-11.422-12.345-7.544-19.824c3.879-7.479,11.498-12.186,16.895-18.654
					c9.815-11.763,11.264-29.797,3.453-42.976c-4.187-7.064-10.915-13.369-11.123-21.578c-0.281-11.112,11.48-19.013,13.691-29.907
					c2.608-12.853-10.8-25.244-23.865-24.098c-13.065,1.146-23.525,12.875-26.215,25.711c-1.669,7.967-0.949,16.579-4.568,23.87
					c-3.036,6.118-8.849,10.641-11.279,17.024c-5.941,15.605,10.289,29.793,18.38,44.399c13.909,25.109,3.37,56.27-8.269,82.508
					c-11.639,26.238-24.429,55.722-14.243,82.558c1.781,4.693,4.959,9.43,8.965,12.277c1.528,2.088,3.653,3.595,6.462,4.138
					c14.559,2.816,26.438-11.755,29.96-23.951c2.424-8.395,4.417-17.097,5.571-25.76c0.78-5.853,1.369-11.306,2.752-16.63
					c0.441-0.555,0.887-1.108,1.357-1.644c4.992-5.698,11.417-9.918,17.757-14.065c8.163-5.339,16.339-10.687,24.953-15.261
					c14.177-7.528,30.234-13.539,39.472-26.665c6.249-8.88,8.521-19.952,13.825-29.427c4.589-8.199,11.321-14.982,16.531-22.801
					C863.323,372.214,867.043,362.528,864.498,353.484z M749.075,461.414c-4.465,2.555-11.245,4.576-13.812,0.118
					c-2.406-4.179,2.036-8.948,6.16-11.446c9.186-5.565,19.355-9.502,29.893-11.575c1.993-0.392,4.061-0.758,6.125-1.173
					C771.524,448.257,759.984,455.174,749.075,461.414z"/>
				<g>
					<g>
						<g>
							<g>
								<g>
									<path style="fill:#9B3926;" d="M521.278,462.707c0.605-3.354,1.146-6.8,0.525-10.151c-0.642-3.461-2.476-6.568-4.305-9.576
										c-4.831-7.947-10.099-16.005-16.415-22.809c-3.458-3.225-7.142-6.235-11.322-8.467c-0.668-0.357-1.346-0.697-2.027-1.03
										c-4.688-1.499-9.442-2.75-14.344-3.586c-12.384-0.275-24.785,2.534-35.01,9.383c-14.146,9.475-23.031,27.482-19.052,44.036
										c1.219,5.072,3.529,9.811,5.98,14.416c7.203,13.534,17.227,27.382,32.166,30.831c4.238,0.979,8.638,1.041,12.98,0.791
										c17.432-1.003,35.856-8.163,44.424-23.376C518.401,476.911,520.003,469.774,521.278,462.707z"/>
								</g>
							</g>
							<g style="opacity:0.5;">
								<g>
									<path style="fill:#72110C;" d="M470.453,506.544c-4.342,0.25-8.742,0.187-12.98-0.791
										c-14.939-3.449-24.963-17.297-32.166-30.831c-2.451-4.605-4.761-9.344-5.98-14.416
										c-3.979-16.555,4.906-34.561,19.052-44.036c10.226-6.849,22.626-9.658,35.01-9.383
										c0.074-0.114-32.559,32.525-26.623,50.326C452.701,475.214,470.453,506.544,470.453,506.544z"/>
								</g>
							</g>
						</g>
						<path style="fill:#124347;" d="M501.668,413.088c-1.132-0.965,11.07-15.234,8.302-18.126
							c-2.768-2.892-6.273-7.746-8.118-3.719c-1.845,4.028-6.273,10.121-7.072,15.44c-0.799,5.319-8.979-0.052-15.314-0.517
							c-6.335-0.465-11.993-0.62-13.284,0.413c-1.292,1.033-1.736,2.959,2.361,3.365c4.097,0.405,17.258,5.622,12.953,6.086
							c-4.305,0.465-10.701,7.281-7.073,6.507s12.731-6.351,14.822-3.769c2.091,2.582,4.428,11.774,6.704,10.38
							c2.275-1.394-0.123-12.239,1.599-10.638c1.722,1.601,7.319,9.038,10.702,10.587
							C511.632,430.647,505.789,416.6,501.668,413.088z"/>
					</g>
					<g>
						<g>
							<g>
								<path style="fill:#9B3926;" d="M423.306,445.718c-10.072-9.013-22.85-13.388-35.612-14.165
									c-13.708-1.366-28.069,1.885-38.874,11.593c-11.512,10.343-17.947,28.822-13.245,44.729
									c1.612,5.451,4.378,10.346,7.299,15.022c5.455,8.734,11.656,17.044,19.41,23.054c18.451,14.298,45.053,12.75,62.153-3.62
									c9.587-9.176,16.222-22.861,16.394-37.205C441.014,469.836,433.8,455.11,423.306,445.718z"/>
							</g>
							<g style="opacity:0.5;">
								<path style="fill:#72110C;" d="M424.437,522.332c-17.1,16.369-43.702,17.918-62.153,3.619
									c-7.754-6.009-13.955-14.319-19.41-23.053c-2.921-4.676-5.687-9.571-7.298-15.023c-4.702-15.907,1.732-34.387,13.244-44.729
									c0,0,9.677-7.482,13.757-8.472c4.079-0.989-7.787,16.813-1.852,28.681c5.935,11.867,23.74,50.436,41.542,53.401
									C420.069,519.721,424.437,522.332,424.437,522.332z"/>
							</g>
						</g>
						<path style="fill:#124347;" d="M373.486,425.173c1.405-0.401-3.655-18.265-0.002-19.727c3.653-1.462,8.767-4.385,8.768-0.001
							c0,4.384,1.462,11.69,0.001,16.804c-1.461,5.115,8.037,3.652,13.883,5.844c5.845,2.191,10.96,4.383,11.69,5.844
							c0.731,1.461,0.34,3.377-3.483,2.054c-3.823-1.323-17.705-2.052-14.052,0.139c3.653,2.191,6.577,10.959,3.654,8.767
							c-2.923-2.192-8.769-10.959-11.691-9.497c-2.922,1.462-8.767,8.768-10.228,6.577c-1.461-2.192,5.113-10.96,2.922-10.229
							s-10.228,5.115-13.881,5.116C357.414,436.865,368.372,426.635,373.486,425.173z"/>
					</g>
					<g>
						<g>
							<g>
								<g>
									<path style="fill:#9B3926;" d="M446.74,508.099c1.117-3.221,2.336-6.492,4.528-9.11c2.265-2.704,5.403-4.516,8.487-6.245
										c8.148-4.567,16.735-9.017,25.625-11.861c4.621-1.12,9.336-1.943,14.103-1.844c0.762,0.016,1.524,0.051,2.286,0.094
										c4.853,0.987,9.642,2.222,14.358,3.892c11.009,5.82,20.518,14.337,26.131,25.315c7.764,15.186,6.716,35.238-4.914,47.728
										c-3.563,3.827-7.92,6.83-12.336,9.647c-12.977,8.279-28.585,15.451-43.398,11.149c-4.203-1.22-8.097-3.319-11.787-5.662
										c-14.814-9.405-27.473-24.664-27.52-42.125C442.285,521.895,444.386,514.886,446.74,508.099z"/>
								</g>
							</g>
							<g style="opacity:0.5;">
								<g>
									<path style="fill:#72110C;" d="M469.823,571.202c3.69,2.343,7.584,4.441,11.787,5.662
										c14.813,4.302,30.421-2.871,43.398-11.149c4.416-2.817,8.773-5.82,12.336-9.647c11.631-12.491,12.679-32.543,4.914-47.728
										c-5.613-10.977-15.121-19.495-26.131-25.315c-0.009-0.136,12.604,44.299-1.357,56.919
										C500.81,552.564,469.823,571.202,469.823,571.202z"/>
								</g>
							</g>
						</g>
						<path style="fill:#124347;" d="M488.346,474.42c1.468-0.287-2.233-18.703,1.619-19.871c3.852-1.168,9.316-3.686,8.956,0.73
							s0.534,11.897-1.379,16.927c-1.912,5.03,7.91,4.348,13.701,7.043c5.791,2.694,10.836,5.328,11.462,6.86
							c0.627,1.533,0.07,3.43-3.727,1.779c-3.797-1.651-17.917-3.542-14.365-1.03c3.552,2.512,5.818,11.587,3.012,9.135
							c-2.806-2.451-8.057-11.769-11.162-10.54c-3.105,1.229-9.676,8.102-10.988,5.773c-1.313-2.329,6.124-10.614,3.825-10.06
							c-2.299,0.554-10.869,4.301-14.6,3.997C470.968,484.858,483.002,475.466,488.346,474.42z"/>
					</g>
				</g>
			</g>
			<g>
				<g>
					<path style="fill:#AD9B90;" d="M805.519,463.628c41.56-0.653,47.057-3.449,47.057-3.449s26.039,235.361-58.205,336.955
						s-181.573,81.443-300.935,69.769c-58.944-5.765-148.538-100.646-167.566-246.687c0,0-18.939-140.622-16.302-148.794
						c2.637-8.171,290.965-1.862,315.857-4.963S805.519,463.628,805.519,463.628z"/>
					<path style="opacity:0.3;fill:#FFFFFF;" d="M364.412,575.4c-3.004-11.92-6.007-23.84-9.011-35.761
						c-0.853-3.385-6.173-1.863-5.32,1.525c3.004,11.92,6.008,23.84,9.011,35.76C359.945,580.309,365.266,578.787,364.412,575.4z"/>
					<path style="opacity:0.3;fill:#FFFFFF;" d="M779.611,699.84c-0.512-3.401-6.06-3.358-5.541,0.087
						c2.233,14.834-0.353,29.023-7.888,42.112c-1.753,3.045,3.079,5.701,4.829,2.66C778.965,730.885,781.974,715.539,779.611,699.84
						z"/>
					<path style="opacity:0.3;fill:#FFFFFF;" d="M767.867,769.229c-0.402-2.931-5.163-2.891-4.756,0.075
						c1.503,10.955-1.76,21.315-9.536,29.386c-2.1,2.18,1.314,5.42,3.417,3.236C765.531,793.063,769.528,781.326,767.867,769.229z"
						/>
					<path style="opacity:0.3;fill:#FFFFFF;" d="M705.912,848.675c-2.495-14.38-27.048-19.853-38.651-21.972
						c-24.298-4.44-49.573-2.522-74.139-4.609c-12.68-1.077-25.496-0.166-38.209-0.317c-12.885-0.152-25.881-0.819-38.741,0.257
						c-19.435,1.625-38.505,8.032-52.615,21.574c-2.687,2.578,1.444,6.615,4.129,4.037c14.109-13.54,33.553-19.211,52.933-20.193
						c21.568-1.092,43.831-0.683,65.419-0.051c10.04,0.295,19.928,2.012,29.985,2.167c10.269,0.159,20.539-0.041,30.798,0.528
						c10.594,0.588,21.342,1.985,31.553,4.913c6.449,1.849,20.566,7.458,21.907,15.184
						C700.909,853.809,706.537,852.276,705.912,848.675z"/>
					<path style="opacity:0.3;fill:#FFFFFF;" d="M400.308,603.136c-1.868-9.959-5.68-19.463-5.735-29.695
						c-0.02-3.673-5.86-3.681-5.84,0c0.057,10.76,3.979,20.742,5.944,31.214C395.354,608.264,400.983,606.735,400.308,603.136z"/>
				</g>
				<g>
					<path style="fill:#5B4536;" d="M687.767,282.79c-33.011-29.053-74.827-41.316-124.349-36.526
						c-105.142,10.234-148.855,77.359-167.009,131.868c-6.869,20.623-10.686,40.819-12.75,58.451
						c2.784,0.403,5.594,0.357,8.411,0.176c2.022-17.06,5.707-36.484,12.245-56.11c25.292-75.936,79.098-118.429,159.929-126.295
						c47.041-4.598,86.745,7.01,117.944,34.462c76.543,67.339,78.335,208.969,78.345,210.392l8.313-0.048
						C768.81,493.206,767.046,352.557,687.767,282.79z"/>
				</g>
			</g>
		</g>
		<g>
			<g>
				<g>
					<path style="fill:#E1DAC8;" d="M827.971,650.851c2.81-6.674,4.911-8.745,9.107-9.938
						c38.228-10.879,71.028,21.009,108.812,37.397c16.988,7.369,34.237,11.666,51.462,15.954
						c16.26,4.047,34.019,8.594,50.278,12.643c-7.531,19.054-24.081,30.926-36.539,43c-0.942,0.913-1.518,2.831-0.811,4.403
						c9.056,20.135,18.461,29.602,31.331,39.189c-1.603,7.742-17.702,15.34-27.091,18.555c-36.121,12.37-62.38,4.536-99.611-4.749
						c-27.73-6.917-55.344-15.925-82.768-26.999c-3.077-1.242-6.326-2.692-8.614-7.2c-3.259-6.42-1.023-20.189-0.109-29.497
						c2.277-23.19,2.521-41.162,2.277-62.944c-0.052-4.679-0.255-8.615,0-13.251C824.785,662.208,826.144,655.189,827.971,650.851z"
						/>
				</g>
				<g>
					<path style="fill:#E1DAC8;" d="M315.682,551.653c-2.989-6.674-7.76-8.75-12.223-9.943
						c-40.66-10.879-80.692,20.827-120.878,37.215c-18.068,7.369-36.414,11.666-54.734,15.954
						c-17.294,4.048-36.182,8.594-53.476,12.643c8.01,19.054,25.612,30.926,38.863,43c1.002,0.913,1.615,2.831,0.863,4.403
						c-9.632,20.135-19.635,29.602-33.323,39.189c1.705,7.742,18.827,15.34,28.814,18.555c38.418,12.37,66.347,4.536,105.946-4.749
						c29.493-6.917,58.863-15.925,88.032-26.999c3.273-1.242,6.728-2.692,9.162-7.2c3.467-6.42,3.81-16.899,3.923-26.301
						c0.26-21.781,0.52-43.563,0.781-65.344c0.055-4.679,0.065-9.421-0.207-14.058C318.189,562.813,317.625,555.991,315.682,551.653
						z"/>
				</g>
				<g>
					<path style="fill:#BFB7A5;" d="M315.622,595.848c0.677-0.004,1.374-0.016,2.063-0.024c0-2.705,0-14.192,0-25.681
						c0-13.139,0-17.518-3.769-8.759c-4.768,11.08-30.154,4.38-56.539,8.759c-17.189,2.854-23.058,4.688-25.062,5.62
						C257.107,594.084,286.729,599.643,315.622,595.848z"/>
					<path style="fill:#5B4536;" d="M232.149,575.843c-0.899,0.444-0.876,0.66-0.876,0.66
						C231.563,576.258,231.855,576.043,232.149,575.843z"/>
				</g>
				<path style="fill:#BFB7A5;" d="M852.788,732.628c-7.054-1.093-16.573-1.913-28.085-2.469c-0.006,0.103-0.021,0.205-0.012,0.31
					c0,0-4.817,41.202,0.885,37.889c5.702-3.313,19.957-9.938,39.915-9.938c17.099,0,37.521-0.668,42.491-13.076
					C904.446,747.942,885.503,737.696,852.788,732.628z"/>
				<path style="fill:#F9F7F4;" d="M930.188,607.371c-3.769-13.139-7.539-17.519-109.308-39.417
					c-101.77-21.898-365.617,17.519-471.156,26.278c-12.793,1.062-24.071,1.551-34.102,1.617
					c-28.904,3.796-58.539-1.768-83.338-20.106c-21.055,13.768-32.348,146.154-6.946,163.02
					c26.385,17.519,90.462,39.417,222.385,17.519c131.924-21.898,346.771-30.658,403.309-21.898
					c33.51,5.192,52.618,15.854,55.469,12.541c4.703-5.464,11.541-14.816,16.146-34.439
					C933.957,664.307,933.957,620.51,930.188,607.371z"/>
			</g>
			<g>
				<path style="fill:#004341;" d="M375.861,640.365c-0.687-1.201,0.072-1.878,1.271-2.564c1.85-1.253,7.6-0.821,11.391,0.976
					c8.27,4.904,15.528,14.245,19.516,25.53c2.008,6.25,2.26,18.277,0.502,24.052c-3.446,14.642-14.724,24.26-27.95,25.198
					c-14.539,1.518-26.624-6.4-30.115-20.235c-2.709-8.11-0.514-24.604,4.35-34.859c3.581-8.242,10.951-14.799,18.537-16.172
					C375.885,641.578,375.885,641.578,375.861,640.365z M388.877,655.878c-1.251-1.85-3.291-4.347-3.977-5.548
					c-1.238-1.186-1.808-1.948-2.469-1.935c0,0-1.323,0.027-3.186,0.729c-4.412,0.092-7.561,2.697-10.005,7.164
					c-3.109,4.479-4.23,8.919-5.258,17.77c-1.029,8.851-0.924,13.927,0.382,18.315c1.955,3.713,3.223,6.335,5.813,8.819
					c6.409,5.605,10.931,5.401,17.735-1.693C397.189,689.149,398.008,670.258,388.877,655.878z"/>
				<path style="fill:#004341;" d="M421.621,635.913c0.207-0.814,1.356-1.328,2.07-1.775c1.039-0.497,2.222-0.792,4.075-1.081
					c2.617-0.407,4.262,0.12,5.523,1.039c0.444,0.714,0.991,0.629,1.963-0.305c3.905-2.172,7.89-3.126,12.587-3.076
					c11.908-0.29,19.134,5.957,20.899,17.298c1.001,6.432,0.437,9.982-3.064,14.771c-2.644,3.094-5.995,5.96-10.457,7.436
					c-1.476,0.564-2.102,1.555-1.288,1.763c0.377,0.277,1.378,1.685,2.429,3.421c1.328,1.356,2.884,3.461,3.818,4.432
					c0.497,1.039,1.446,2.12,1.498,2.447c0.05,0.327,0.554,0.694,0.554,0.694c0.327-0.05,0.831,0.317,0.881,0.644
					c0.447,0.714,1.438,1.341,1.883,2.052c0.447,0.714,1.278,1.031,1.328,1.358c0,0,0.068,0.437,0.447,0.712
					c0,0,1.436,1.341,2.37,2.312c2.262,2.33,2.639,2.604,4.115,2.04c2.884-1.565,7.323-1.029,8.822,1.418
					c0.931,0.974,1.328,1.358,0.734,2.567c-0.934,4.055-5.828,7.051-11.615,7.169c-1.578-0.09-3.173-0.287-3.223-0.614
					c-0.327,0.05-1.159-0.267-1.973-0.474c-3.223-0.617-6.819-3.63-11.014-8.337c-1.328-1.358-2.767-2.699-2.816-3.026
					c-2.21-2-8.714-11.486-10.884-15.393c-0.617-1.803-0.617-1.803-0.21,0.814c0.24,1.528,0.277,4.649,0.567,6.502
					c-0.04,1.905,0.117,5.79,0.527,8.407c0.474,8.077-0.05,14.749-0.904,16.447c-1.238,2.09-4.499,3.381-6.959,2.647
					c-1.973-0.477-2.025-0.804-3.381-4.502c-1.291-3.261-1.238-2.934-5.126-32.929c-0.674-6.484-2.32-17.064-3.371-23.823
					C420.539,636.862,420.649,636.844,421.621,635.913z M453.331,648.065c-1.051-6.762-3.608-10.272-7.226-11.273
					c-1.645-0.524-5.026,0-6.762,1.054c-0.764,0.117-1.476,0.564-2.24,0.682c-0.712,0.447-0.694,0.557-0.207,5.84
					c0.474,3.054,1.426,9.161,2.07,13.303c0.964,8.339,0.836,8.247,4.604,7.326c5.67-0.884,7.738-2.657,8.999-6.762
					C453.62,654.944,454.045,652.645,453.331,648.065z"/>
				<path style="fill:#004341;" d="M503.126,628.705c3.296-4.157,9.546-7.77,14.647-8.804c2.849-0.33,3.301-0.27,6.642-0.212
					c4.215-0.042,10.634,1.658,12.764,3.745c2.08,1.648,4.322,4.722,4.375,5.161c0.602,1.373-0.986,3.001-3.838,3.331
					c-2.302,0.267-2.914-0.217-4.941-1.428c-5.258-4.17-11.111-4.824-15.011-2.04c-3.124,1.805-6.37,6.402-8.127,11.383
					c-1.655,5.855-2.147,10.245-0.619,19.623c0.926,8.003,1.618,10.145,5.178,15.955c3.663,6.687,9.913,11.74,14.027,10.819
					c1.863-0.215,6.797-3.673,8.831-6.242c1.648-2.08,3.79-8.549,3.625-9.972c-0.052-0.439-0.612-0.487-3.953-0.544
					c-6.19,0.272-10.572-1.109-10.901-3.96c-0.112-0.986,2.082-3.129,3.895-3.783c0.936-0.554,3.079-1.246,5.878-2.012
					c2.799-0.769,5.535-2.085,6.961-2.25c4.549-1.97,10.744-1.243,13.313,0.792c1.099,0.874,1.151,1.311,1.531,4.602
					c0.482,4.165,0.589,8.929-0.507,11.945c-0.944,4.33-4.514,9.965-8.896,13.361c-7.408,6.077-14.634,8.914-22.751,8.851
					c-4.28-0.504-9.648-1.773-12.664-2.866c-2.077-1.648-8.914-6.969-9.518-8.342c-0.552-0.936-1.216-1.86-1.705-2.247
					c-1.099-0.874-4.315-8.499-5.733-12.112c-1.531-4.602-2.622-14.03-2.117-18.31c-0.042-4.215,1.596-11.181,2.754-13.65
					c0.324-1.036,1.208-2.028,1.208-2.028C497.423,637.029,501.038,630.834,503.126,628.705z"/>
				<path style="fill:#004341;" d="M596.074,615.249c0.372-0.914,1.63-1.79,2.035-2.265c2.13-1.056,2.46-1.081,4.29-0.342
					c1.795,0.3,3.688,1.808,5.218,4.344c1.091,2.569,5.411,12.3,5.446,12.742c0.035,0.44,0.547,1.283,1.056,2.13
					c0.509,0.844,1.091,2.569,1.635,3.855c0.547,1.283,1.009,2.909,1.044,3.348c0.474,0.404,1.531,2.534,2.145,4.702
					c5.006,12.776,4.532,12.37,7.206,12.599c2.237,0.265,4.432,1.418,5.453,3.109c0.949,0.809,0.984,1.251,0.21,2.639
					c-0.37,0.916-1.079,1.748-1.922,2.257c-0.846,0.512-1.69,1.021-1.69,1.021c-0.44,0.035,3.378,9.031,3.992,11.196
					c0.474,0.404,0.936,2.03,1.923,3.278c1.6,3.416,1.6,3.416,0.826,4.807c-0.809,0.951-1.511,1.893-3.236,2.472
					c-2.569,1.091-2.569,1.091-5.281,0.422c-4.065-1.004-5.416-2.667-9.226-11.553c-1.601-3.416-2.727-6.427-2.762-6.866
					c-0.035-0.439-3.116-0.195-8.397,0.227c-9.131,0.729-7.873-0.147-9.783,9.196c-0.969,4.507-1.608,6.217-3.633,8.594
					c-2.429,2.852-4.966,4.382-9.366,4.732c-3.081,0.247-3.85,0.307-5.276-0.906c-3.66-1.481-3.468-4.597-0.052-6.197
					c2.976-1.565,3.64-2.946,6.222-15.001c0.23-2.674,1.241-6.629,1.541-8.427c1.948-8.901,3.036-16.075,4.949-25.416
					c0.23-2.677,0.934-4.946,1.338-5.421c-0.035-0.442,0.3-1.795,0.669-2.712C593.178,623.341,595.265,616.2,596.074,615.249z
					 M607.829,652.952c-0.649-2.604-2.207-5.468-2.786-7.193c-0.582-1.725-1.161-3.451-1.199-3.893
					c-0.544-1.283-0.434-1.293-0.769,0.062c-0.634,3.151-2.142,12.017-2.335,15.133c-0.742,1.83-0.634,3.151-0.599,3.591
					c0.035,0.44,5.171-0.412,8.657-1.134C610.521,658.939,610.548,659.269,607.829,652.952z"/>
				<path style="fill:#004341;" d="M647.325,610.573c0,0,0.859-0.487,1.718-0.974c2.577-1.458,6.322-1.653,9.036-0.469
					c1.346,0.372,2.275,1.209,3.71,3.343c0.509,1.301,1.456,2.467,1.478,2.906c0.464,0.419,0.864,1.725,1.813,3.001
					c0.534,1.74,1.039,2.929,1.478,2.906c0.023,0.442,2.018,4.759,3.493,7.665c0.487,0.859,0.422,1.745,0.422,1.745
					s0.946,1.166,1.456,2.467c0.509,1.298,1.94,3.323,2.449,4.624c0.512,1.298,1.461,2.577,1.021,2.599
					c0,0,3.795,7.096,6.732,12.579c1.943,3.326,1.833,3.331,2.117,0.332c0.217-4.322-1.029-36.746-1.206-40.165
					c-0.579-2.622-0.602-3.061,0.677-4.012c0.417-0.464,2.03-1.321,3.328-1.83c2.182-0.557,2.514-0.574,4.3-0.225
					c3.463,0.704,4.03,1.006,5.468,3.141c0.974,1.718,0.886,2.165,1.426,12.524c0.292,5.62,0.297,14.24,0.544,18.981
					c-0.205,13.049-0.609,28.654-0.584,29.094c0,0-0.332,2.117-0.659,4.345c-0.589,5.668-1.268,7.471-3.868,8.489
					c-1.718,0.974-2.16,0.996-3.968,0.207c-2.669-0.305-3.046-1.169-9.206-11.236c-5.186-8.35-11.93-21.151-16.235-29.545
					c-0.996-2.16-0.996-2.16-1.298,0.509c0.067,1.323-0.217,4.322-0.08,6.966c-0.035,7.848-0.572,23.016-0.549,23.458
					c0,0-0.354,1.675-0.679,3.903c-0.659,4.344-1.338,6.147-3.498,7.143c-2.906,1.478-6.042,0.647-7.521-2.26
					c-0.996-2.16-1.975-14.597-2.097-25.421c0.195-4.762-0.105-16.901-0.644-27.263C647.36,619.743,647.347,611.014,647.325,610.573
					z"/>
				<path style="fill:#004341;" d="M716.578,607.886c0.532-0.569,1.493-1.593,2.487-1.625c1.513-1.041,5.718-0.732,7.83-0.247
					c1.575,0.946,3.188,3.104,3.838,6.172c0.097,3.089,0.167,22.849-0.335,38.432c-0.694,27.069-1.263,30.067-5.845,31.758
					c-2.065,1.059-4.065,0.679-6.225-1.351c-1.593-1.493-1.593-1.493-2.005-32.062c0.015-17.113-0.602-33.211-0.687-35.857
					C714.97,609.481,715.617,608.909,716.578,607.886z"/>
				<path style="fill:#004341;" d="M748.286,631.551c3.298-12.365,12.339-22.529,22.931-25.301
					c9.488-2.217,19.536,0.532,24.067,6.709c2.761,2.754,2.764,4.522,1.111,5.625c-2.207,1.658-5.076,1.111-7.286-1.094
					c-2.761-2.205-7.843-5.071-10.05-5.069c-6.18,0.008-12.354,7.298-15.653,17.346c-0.549,3.863-1.099,5.079-0.539,12.914
					c0.008,6.18,0.562,9.049,1.116,11.808c2.767,7.833,6.195,12.906,10.06,15.663c3.313,1.65,3.975,1.65,7.286-0.008
					c3.308-1.66,4.961-3.428,10.032-10.165c3.306-3.868,7.83-4.976,12.357-3.326c5.079,2.202,3.431,8.385-3.293,15.678
					c-4.522,4.529-7.83,6.739-14.562,8.402c-7.281,1.663-16.222,0.569-22.959-2.734c-6.185-3.303-11.823-11.798-14.592-20.734
					C746.65,650.535,746.638,638.285,748.286,631.551z"/>
			</g>
		</g>
	</g>
</g>
</svg>
