<?xml version="1.0" encoding="utf-8"?>
<!-- Generator: Adobe Illustrator 27.5.0, SVG Export Plug-In . SVG Version: 6.00 Build 0)  -->
<svg version="1.1" xmlns="http://www.w3.org/2000/svg" xmlns:xlink="http://www.w3.org/1999/xlink" x="0px" y="0px"
	 viewBox="0 0 3710 3710" style="enable-background:new 0 0 3710 3710;" xml:space="preserve">
<g id="Background">
	<g>
		<g>
			<rect style="fill:#FFFFFF;" width="3710" height="3710"/>
		</g>
	</g>
</g>
<g id="Illustration">
	<g>
		<linearGradient id="SVGID_1_" gradientUnits="userSpaceOnUse" x1="3595.9077" y1="4056.134" x2="1121.7354" y2="983.3672">
			<stop  offset="0" style="stop-color:#DAE3FE"/>
			<stop  offset="1" style="stop-color:#E9EFFD"/>
		</linearGradient>
		<path style="fill:url(#SVGID_1_);" d="M2915.247,2844.346c-56.831,59.829-110.604,98.412-153.089,128.896
			c-499.4,358.325-1090.323,253.875-1215.911,228.367c-185.454-37.667-543.932-110.476-803.105-415.258
			c-392.108-461.111-331.051-1187.577-26.906-1667.128c55.633-87.718,349.502-574.573,946.79-652.65
			c361.472-47.251,782.833,48.049,1087.97,303.693C3391.508,1306.888,3345.91,2390.958,2915.247,2844.346z"/>
		<g>
			<path style="fill:#BDD0FB;" d="M2668.085,1101.13c-0.286-15.323-12.703-27.931-27.923-27.931h-575.29
				c-15.424,0-30.572,13.267-30.572,28.798v1388.158c0,7.472,4.275,14.636,9.529,19.913c5.255,5.275,13.038,8.229,20.459,8.209
				l601.497-1.653c7.485-0.021,14.812-3.066,20.048-8.452c5.235-5.387,8.187-12.832,8.046-20.367L2668.085,1101.13z"/>
			<g style="opacity:0.5;">
				<g>
					<polygon style="fill:#FFFFFF;" points="2244.414,1236.776 2080.527,1236.555 2079.227,1151.97 2243.273,1151.97 					"/>
					<polygon style="fill:#FFFFFF;" points="2428.113,1236.734 2264.391,1236.512 2263.269,1151.97 2427.151,1151.97 					"/>
					<polygon style="fill:#FFFFFF;" points="2611.628,1236.691 2448.07,1236.47 2447.126,1151.97 2610.843,1151.97 					"/>
				</g>
				<g>
					<polygon style="fill:#FFFFFF;" points="2246.462,1388.603 2082.861,1388.708 2081.565,1304.676 2245.325,1304.608 					"/>
					<polygon style="fill:#FFFFFF;" points="2429.842,1388.484 2266.404,1388.59 2265.286,1304.599 2428.882,1304.531 					"/>
					<g>
						<polygon style="fill:#FFFFFF;" points="2613.037,1388.366 2449.763,1388.471 2448.823,1304.523 2612.255,1304.455 						"/>
					</g>
				</g>
				<g>
					<polygon style="fill:#FFFFFF;" points="2248.503,1539.386 2085.186,1539.558 2083.895,1455.818 2247.371,1455.682 					"/>
					<polygon style="fill:#FFFFFF;" points="2431.564,1539.192 2268.41,1539.364 2267.296,1455.666 2430.608,1455.53 					"/>
					<polygon style="fill:#FFFFFF;" points="2614.441,1538.998 2451.451,1539.172 2450.514,1455.514 2613.661,1455.379 					"/>
				</g>
				<g>
					<polygon style="fill:#FFFFFF;" points="2250.537,1689.647 2087.504,1689.886 2086.217,1606.435 2249.408,1606.233 					"/>
					<polygon style="fill:#FFFFFF;" points="2433.28,1689.378 2270.409,1689.617 2269.3,1606.208 2432.327,1606.006 					"/>
					<polygon style="fill:#FFFFFF;" points="2615.84,1689.11 2453.132,1689.349 2452.199,1605.981 2615.063,1605.779 					"/>
				</g>
				<g>
					<polygon style="fill:#FFFFFF;" points="2252.564,1839.389 2089.813,1839.695 2088.531,1756.532 2251.439,1756.262 					"/>
					<polygon style="fill:#FFFFFF;" points="2434.99,1839.046 2272.402,1839.351 2271.296,1756.23 2434.041,1755.961 					"/>
					<polygon style="fill:#FFFFFF;" points="2617.234,1838.703 2454.808,1839.009 2453.878,1755.928 2616.46,1755.66 					"/>
				</g>
				<g>
					<polygon style="fill:#FFFFFF;" points="2254.584,1988.614 2092.115,1988.985 2090.837,1906.11 2253.463,1905.775 					"/>
					<polygon style="fill:#FFFFFF;" points="2436.695,1988.197 2274.388,1988.568 2273.285,1905.734 2435.749,1905.399 					"/>
					<polygon style="fill:#FFFFFF;" points="2618.624,1987.781 2456.479,1988.152 2455.551,1905.358 2617.852,1905.024 					"/>
				</g>
				<g>
					<polygon style="fill:#FFFFFF;" points="2256.597,2137.325 2094.409,2137.762 2093.135,2055.172 2255.479,2054.771 					"/>
					<polygon style="fill:#FFFFFF;" points="2438.393,2136.835 2276.366,2137.272 2275.268,2054.722 2437.45,2054.322 					"/>
					<polygon style="fill:#FFFFFF;" points="2620.009,2136.346 2458.143,2136.782 2457.219,2054.273 2619.24,2053.873 					"/>
				</g>
				<g>
					<polygon style="fill:#FFFFFF;" points="2258.603,2285.525 2096.695,2286.027 2095.425,2203.72 2257.49,2203.254 					"/>
					<polygon style="fill:#FFFFFF;" points="2440.086,2284.963 2278.338,2285.464 2277.243,2203.198 2439.146,2202.732 					"/>
					<polygon style="fill:#FFFFFF;" points="2621.389,2284.401 2459.802,2284.901 2458.881,2202.676 2620.622,2202.211 					"/>
				</g>
				<g>
					<polygon style="fill:#FFFFFF;" points="2260.603,2433.217 2098.973,2433.783 2097.708,2351.759 2259.492,2351.228 					"/>
					<polygon style="fill:#FFFFFF;" points="2441.773,2432.581 2280.303,2433.147 2279.212,2351.164 2440.836,2350.634 					"/>
					<polygon style="fill:#FFFFFF;" points="2622.764,2431.948 2461.455,2432.512 2460.537,2350.569 2622,2350.039 					"/>
				</g>
			</g>
		</g>
		<g>
			<path style="fill:#7D97F4;" d="M3221.276,679.64c-0.16-8.868-3.215-17.256-8.441-23.176c-5.226-5.92-12.158-8.844-19.15-8.078
				l-706.255,77.312c-13.131,1.438-23.62,15.328-23.62,31.984v1794.191c0,17.731,12.191,30.768,26.221,30.768h739.564
				c6.838,0,13.387-2.815,18.167-8.995c4.78-6.179,7.386-14.199,7.23-22.838L3221.276,679.64z"/>
			<g style="opacity:0.68;">
				<path style="fill:#BDD0FB;" d="M2603.739,814.19l-56.394,4.613c-5.908,0.49-11.422,7.385-11.422,15.403v1636.607
					c0,8.187,6.293,14.288,12.264,14.288h56.258c6.008,0,10.943-6.396,10.938-14.613l-0.807-1642.758
					C2614.573,819.683,2609.684,813.698,2603.739,814.19z"/>
				<path style="fill:#BDD0FB;" d="M2734.51,803.354l-56.388,4.672c-5.985,0.496-11.757,7.515-11.75,15.584l1.352,1646.84
					c0.007,8.24,5.852,14.652,11.9,14.652h56.997c6.086,0,10.135-6.438,10.124-14.71l-2.181-1653.339
					C2744.554,808.953,2740.532,802.855,2734.51,803.354z"/>
				<path style="fill:#BDD0FB;" d="M2866.988,792.375l-57.126,4.734c-6.063,0.502-9.557,7.376-9.544,15.497l2.775,1657.744
					c0.014,8.294,3.569,14.752,9.698,14.752h57.75c6.167,0,12.655-6.483,12.637-14.811l-3.625-1664.327
					C2879.535,797.811,2873.089,791.87,2866.988,792.375z"/>
				<path style="fill:#BDD0FB;" d="M3001.207,781.253l-57.878,4.796c-6.142,0.509-10.631,7.507-10.61,15.681l4.199,1668.521
					c0.021,8.349,4.593,14.85,10.803,14.85h58.518c6.25,0,11.846-6.528,11.821-14.91l-5.072-1675.188
					C3012.964,786.797,3007.388,780.74,3001.207,781.253z"/>
				<path style="fill:#BDD0FB;" d="M3137.2,769.983l-58.645,4.86c-6.224,0.516-11.731,7.642-11.703,15.869l5.661,1679.44
					c0.028,8.404,5.644,14.95,11.937,14.95h59.302c6.333,0,11.015-6.573,10.982-15.011l-6.557-1686.193
					C3148.145,775.639,3143.463,769.465,3137.2,769.983z"/>
			</g>
		</g>
		<g>
			<path style="fill:#91B3FA;" d="M2134.786,915.883c-0.447-17.622-19.818-32.123-43.563-32.123h-897.492
				c-24.063,0-47.695,15.257-47.695,33.12v1596.503c0,8.593,6.67,16.833,14.866,22.901c8.198,6.068,20.34,9.464,31.917,9.441
				l938.377-1.902c11.677-0.023,23.108-3.525,31.277-9.72c8.167-6.195,12.772-14.757,12.553-23.423L2134.786,915.883z"/>
			<g style="opacity:0.51;">
				<g>
					<polygon style="fill:#FFFFFF;" points="1473.829,1071.888 1218.153,1071.634 1216.125,974.354 1472.049,974.354 					"/>
					<polygon style="fill:#FFFFFF;" points="1760.413,1071.84 1504.994,1071.585 1503.244,974.354 1758.912,974.354 					"/>
					<polygon style="fill:#FFFFFF;" points="2046.708,1071.791 1791.546,1071.536 1790.075,974.354 2045.484,974.354 					"/>
				</g>
				<g>
					<polygon style="fill:#FFFFFF;" points="1477.025,1246.502 1221.794,1246.624 1219.773,1149.979 1475.251,1149.901 					"/>
					<polygon style="fill:#FFFFFF;" points="1763.109,1246.366 1508.135,1246.487 1506.391,1149.891 1761.612,1149.813 					"/>
					<polygon style="fill:#FFFFFF;" points="2048.906,1246.231 1794.189,1246.351 1792.722,1149.803 2047.687,1149.725 					"/>
				</g>
				<g>
					<polygon style="fill:#FFFFFF;" points="1480.209,1419.916 1225.422,1420.114 1223.408,1323.805 1478.442,1323.649 					"/>
					<polygon style="fill:#FFFFFF;" points="1765.796,1419.693 1511.265,1419.891 1509.527,1323.63 1764.304,1323.475 					"/>
					<polygon style="fill:#FFFFFF;" points="2051.097,1419.471 1796.821,1419.67 1795.359,1323.456 2049.881,1323.3 					"/>
				</g>
				<g>
					<polygon style="fill:#FFFFFF;" points="1483.382,1592.729 1229.038,1593.005 1227.031,1497.029 1481.62,1496.796 					"/>
					<polygon style="fill:#FFFFFF;" points="1768.474,1592.42 1514.383,1592.696 1512.652,1496.767 1766.987,1496.535 					"/>
					<polygon style="fill:#FFFFFF;" points="2053.28,1592.112 1799.444,1592.387 1797.988,1496.507 2052.068,1496.274 					"/>
				</g>
				<g>
					<polygon style="fill:#FFFFFF;" points="1486.544,1764.946 1232.641,1765.297 1230.641,1669.653 1484.788,1669.343 					"/>
					<polygon style="fill:#FFFFFF;" points="1771.141,1764.551 1517.493,1764.903 1515.766,1669.305 1769.661,1668.996 					"/>
					<polygon style="fill:#FFFFFF;" points="2055.455,1764.158 1802.059,1764.509 1800.608,1668.959 2054.247,1668.65 					"/>
				</g>
				<g>
					<polygon style="fill:#FFFFFF;" points="1489.695,1936.568 1236.232,1936.995 1234.238,1841.681 1487.946,1841.295 					"/>
					<polygon style="fill:#FFFFFF;" points="1773.801,1936.089 1520.591,1936.516 1518.87,1841.248 1772.325,1840.863 					"/>
					<polygon style="fill:#FFFFFF;" points="2057.623,1935.61 1804.665,1936.036 1803.219,1840.817 2056.419,1840.432 					"/>
				</g>
				<g>
					<polygon style="fill:#FFFFFF;" points="1492.836,2107.599 1239.811,2108.101 1237.824,2013.115 1491.092,2012.655 					"/>
					<polygon style="fill:#FFFFFF;" points="1776.45,2107.035 1523.677,2107.538 1521.963,2012.597 1774.979,2012.138 					"/>
					<polygon style="fill:#FFFFFF;" points="2059.783,2106.472 1807.261,2106.975 1805.819,2012.082 2058.583,2011.621 					"/>
				</g>
				<g>
					<polygon style="fill:#FFFFFF;" points="1495.965,2278.041 1243.377,2278.619 1241.397,2183.959 1494.228,2183.423 					"/>
					<polygon style="fill:#FFFFFF;" points="1779.091,2277.395 1526.753,2277.971 1525.045,2183.357 1777.626,2182.823 					"/>
					<polygon style="fill:#FFFFFF;" points="2061.936,2276.748 1809.848,2277.324 1808.413,2182.758 2060.74,2182.223 					"/>
				</g>
				<g>
					<polygon style="fill:#FFFFFF;" points="1499.084,2447.9 1246.93,2448.551 1244.958,2354.217 1497.352,2353.606 					"/>
					<polygon style="fill:#FFFFFF;" points="1781.723,2447.169 1529.819,2447.82 1528.117,2353.532 1780.262,2352.922 					"/>
					<polygon style="fill:#FFFFFF;" points="2064.082,2446.44 1812.427,2447.09 1810.996,2352.848 2062.89,2352.238 					"/>
				</g>
			</g>
		</g>
		<path style="fill:#7D97F4;" d="M2864.952,3234.988H871.531c-228.946,0-414.543-185.597-414.543-414.543v-163.617
			c0-77.659,62.955-140.614,140.614-140.614h2627.672c13.102,0,23.724,10.622,23.724,23.724v311.003
			C3248.999,3063.045,3077.055,3234.988,2864.952,3234.988z"/>
		<g>
			<path style="fill:#7D97F4;" d="M1343.909,678.066c-0.402-21.49-17.817-39.174-39.164-39.174H497.879
				c-21.633,0-42.879,18.607-42.879,40.39v1946.946c0,10.479,5.996,20.528,13.364,27.928c7.37,7.399,18.286,11.541,28.694,11.513
				l843.623-2.319c10.498-0.029,20.775-4.3,28.118-11.854c7.343-7.555,11.483-17.997,11.285-28.565L1343.909,678.066z"/>
			<g style="opacity:0.5;">
				<g>
					<polygon style="fill:#FFFFFF;" points="749.694,868.315 519.836,868.005 518.012,749.371 748.094,749.371 					"/>
					<polygon style="fill:#FFFFFF;" points="1007.339,868.256 777.712,867.945 776.139,749.371 1005.99,749.371 					"/>
					<polygon style="fill:#FFFFFF;" points="1264.726,868.196 1035.329,867.886 1034.006,749.371 1263.625,749.371 					"/>
				</g>
				<g>
					<polygon style="fill:#FFFFFF;" points="752.567,1081.258 523.109,1081.406 521.291,963.547 750.972,963.452 					"/>
					<polygon style="fill:#FFFFFF;" points="1009.764,1081.092 780.535,1081.24 778.968,963.44 1008.418,963.344 					"/>
					<g>
						<polygon style="fill:#FFFFFF;" points="1266.702,1080.927 1037.704,1081.074 1036.385,963.333 1265.605,963.238 						"/>
					</g>
				</g>
				<g>
					<polygon style="fill:#FFFFFF;" points="755.429,1292.737 526.37,1292.979 524.56,1175.529 753.84,1175.339 					"/>
					<polygon style="fill:#FFFFFF;" points="1012.179,1292.465 783.349,1292.707 781.787,1175.316 1010.838,1175.127 					"/>
					<polygon style="fill:#FFFFFF;" points="1268.671,1292.194 1040.071,1292.437 1038.757,1175.103 1267.578,1174.913 					"/>
				</g>
				<g>
					<polygon style="fill:#FFFFFF;" points="758.282,1503.484 529.621,1503.82 527.817,1386.776 756.698,1386.492 					"/>
					<polygon style="fill:#FFFFFF;" points="1014.586,1503.108 786.153,1503.443 784.597,1386.458 1013.25,1386.174 					"/>
					<polygon style="fill:#FFFFFF;" points="1270.633,1502.732 1042.429,1503.067 1041.12,1386.14 1269.544,1385.856 					"/>
				</g>
				<g>
					<polygon style="fill:#FFFFFF;" points="761.125,1713.503 532.86,1713.932 531.062,1597.293 759.547,1596.915 					"/>
					<polygon style="fill:#FFFFFF;" points="1016.984,1713.022 788.948,1713.451 787.397,1596.869 1015.653,1596.492 					"/>
					<polygon style="fill:#FFFFFF;" points="1272.589,1712.542 1044.78,1712.97 1043.475,1596.447 1271.504,1596.07 					"/>
				</g>
				<g>
					<polygon style="fill:#FFFFFF;" points="763.958,1922.797 536.089,1923.318 534.296,1807.082 762.385,1806.612 					"/>
					<polygon style="fill:#FFFFFF;" points="1019.375,1922.213 791.733,1922.733 790.187,1806.555 1018.048,1806.085 					"/>
					<polygon style="fill:#FFFFFF;" points="1274.537,1921.629 1047.122,1922.149 1045.822,1806.028 1273.456,1805.559 					"/>
				</g>
				<g>
					<polygon style="fill:#FFFFFF;" points="766.782,2131.371 539.306,2131.983 537.519,2016.147 765.214,2015.586 					"/>
					<polygon style="fill:#FFFFFF;" points="1021.758,2130.684 794.508,2131.296 792.968,2015.517 1020.435,2014.955 					"/>
					<polygon style="fill:#FFFFFF;" points="1276.48,2129.998 1049.457,2130.609 1048.161,2014.887 1275.402,2014.326 					"/>
				</g>
				<g>
					<polygon style="fill:#FFFFFF;" points="769.594,2339.227 542.512,2339.931 540.731,2224.493 768.033,2223.839 					"/>
					<polygon style="fill:#FFFFFF;" points="1024.131,2338.438 797.274,2339.141 795.738,2223.76 1022.814,2223.107 					"/>
					<polygon style="fill:#FFFFFF;" points="1278.416,2337.65 1051.783,2338.352 1050.492,2223.028 1277.341,2222.375 					"/>
				</g>
				<g>
					<polygon style="fill:#FFFFFF;" points="772.399,2546.37 545.707,2547.165 543.933,2432.123 770.842,2431.378 					"/>
					<polygon style="fill:#FFFFFF;" points="1026.498,2545.479 800.03,2546.273 798.5,2431.288 1025.184,2430.544 					"/>
					<polygon style="fill:#FFFFFF;" points="1280.344,2544.59 1054.102,2545.383 1052.814,2430.454 1279.273,2429.711 					"/>
				</g>
			</g>
		</g>
		<g>
			
				<linearGradient id="SVGID_00000122698721389930202980000016698144994379750545_" gradientUnits="userSpaceOnUse" x1="2015.9912" y1="3203.8704" x2="2128.562" y2="3203.8704" gradientTransform="matrix(-1 0 0 1 2861.6616 0)">
				<stop  offset="0" style="stop-color:#09005D"/>
				<stop  offset="1" style="stop-color:#1A0F91"/>
			</linearGradient>
			<path style="fill:url(#SVGID_00000122698721389930202980000016698144994379750545_);" d="M733.102,3241.592
				c-0.013-0.848,0.043-1.707,0.261-2.571c12.818-50.82,65.23-76.868,65.23-76.868l25.211,1.977
				c14.495,44.791,23.841,66.656,21.513,78.893c-0.065,0.343-0.169,0.669-0.26,1.001
				C824.26,3245.882,781.455,3247.094,733.102,3241.592z"/>
			
				<linearGradient id="SVGID_00000059268533640429894300000000397799878905674403_" gradientUnits="userSpaceOnUse" x1="2299.6655" y1="3066.8083" x2="1885.6302" y2="3391.9099" gradientTransform="matrix(-1 0 0 1 2861.6616 0)">
				<stop  offset="0" style="stop-color:#53D8FF"/>
				<stop  offset="1" style="stop-color:#3840F7"/>
			</linearGradient>
			<path style="fill:url(#SVGID_00000059268533640429894300000000397799878905674403_);" d="M845.055,3244.023
				c-1.123,4.085-4.139,7.267-7.999,8.079c-29.583,6.221-76.602,1.214-96.344-1.366c-4.354-0.569-7.539-4.597-7.611-9.144
				C781.455,3247.094,824.26,3245.882,845.055,3244.023z"/>
			
				<linearGradient id="SVGID_00000145737678283800018820000003810176029290314919_" gradientUnits="userSpaceOnUse" x1="2620.5671" y1="3071.7783" x2="2598.0935" y2="3267.9126" gradientTransform="matrix(1 0 0 1 -1811.8352 0)">
				<stop  offset="0" style="stop-color:#FEBBBA"/>
				<stop  offset="1" style="stop-color:#FF928E"/>
			</linearGradient>
			<path style="fill:url(#SVGID_00000145737678283800018820000003810176029290314919_);" d="M777.833,3122.922l11.038,53.136
				c0.809,3.894,3.8,6.81,7.425,7.15c4.436,0.416,10.749,0.66,17.1-0.273c5.694-0.836,9.66-6.623,8.65-12.833l-7.673-47.18H777.833z
				"/>
			
				<linearGradient id="SVGID_00000116957400746722060150000000219332133279816628_" gradientUnits="userSpaceOnUse" x1="3002.1069" y1="3163.2913" x2="2601.72" y2="3477.676" gradientTransform="matrix(1 0 0 1 -1811.8352 0)">
				<stop  offset="0" style="stop-color:#53D8FF"/>
				<stop  offset="1" style="stop-color:#3840F7"/>
			</linearGradient>
			<path style="fill:url(#SVGID_00000116957400746722060150000000219332133279816628_);" d="M1059.263,3243.582
				c-26.925-0.753-40.852-3.924-48.051-6.867c-0.017,2.678-0.002,5.402,0.085,8.224c0.093,3.016,2.326,5.424,5.073,5.406
				l147.835-0.954c4.718-0.031,7.475-5.502,5.431-9.828C1150.253,3241.165,1100.884,3244.747,1059.263,3243.582z"/>
			
				<linearGradient id="SVGID_00000036224507023074813230000014563781698082980521_" gradientUnits="userSpaceOnUse" x1="2823.0474" y1="3205.47" x2="2981.4712" y2="3205.47" gradientTransform="matrix(1 0 0 1 -1811.8352 0)">
				<stop  offset="0" style="stop-color:#09005D"/>
				<stop  offset="1" style="stop-color:#1A0F91"/>
			</linearGradient>
			<path style="fill:url(#SVGID_00000036224507023074813230000014563781698082980521_);" d="M1169.636,3239.563
				c-0.178-0.376-0.332-0.76-0.585-1.115c-13.055-18.242-46.308-54.569-112.016-70.325l-31.522-0.994
				c0,0-14.035,24.396-14.301,69.586c7.199,2.943,21.126,6.114,48.051,6.867C1100.884,3244.747,1150.253,3241.165,1169.636,3239.563
				z"/>
			
				<linearGradient id="SVGID_00000164510082448842160390000008346256881642057628_" gradientUnits="userSpaceOnUse" x1="2857.3113" y1="3096.8706" x2="2836.2888" y2="3280.3416" gradientTransform="matrix(1 0 0 1 -1811.8352 0)">
				<stop  offset="0" style="stop-color:#FEBBBA"/>
				<stop  offset="1" style="stop-color:#FF928E"/>
			</linearGradient>
			<path style="fill:url(#SVGID_00000164510082448842160390000008346256881642057628_);" d="M1019.668,3119.358
				c0.35,2.349,4.67,38.06,6.343,51.906c0.398,3.291,2.781,5.837,5.786,6.195c5.368,0.641,14.054,1.225,21.652-0.333
				c4.099-0.84,7.067-4.778,7.067-9.358v-56.056L1019.668,3119.358z"/>
			
				<linearGradient id="SVGID_00000025409055496904726200000013285070615766002342_" gradientUnits="userSpaceOnUse" x1="915.696" y1="3091.0039" x2="940.9156" y2="2300.8059">
				<stop  offset="0" style="stop-color:#09005D"/>
				<stop  offset="1" style="stop-color:#1A0F91"/>
			</linearGradient>
			<path style="fill:url(#SVGID_00000025409055496904726200000013285070615766002342_);" d="M798.897,2425.158
				c0,0-50.441,448.363-22.419,728.588c0,0,33.627,0,50.441-5.604c0,0,52.415-438.384,69.372-563.829
				c0.639-4.729,7.39-4.944,8.318-0.263c20.921,105.538,103.093,519.403,112.864,558.488c0,0,28.023,11.208,50.441,0
				c0,0-44.837-599.685-78.464-706.171L798.897,2425.158z"/>
			
				<linearGradient id="SVGID_00000139291185757917967800000002569897639352732550_" gradientUnits="userSpaceOnUse" x1="1119.7418" y1="1305.3217" x2="1018.0881" y2="1623.837">
				<stop  offset="0" style="stop-color:#FF928E"/>
				<stop  offset="1" style="stop-color:#FE7062"/>
			</linearGradient>
			<path style="fill:url(#SVGID_00000139291185757917967800000002569897639352732550_);" d="M698.015,1903.936
				c0,0,212.972-33.627,381.108,11.209l-11.209,173.74c0,0-44.837,240.995-78.464,347.481c0,0-128.904,22.418-190.553-11.208
				c0,0-50.441-302.645-78.464-347.482C720.433,2077.676,692.41,1959.982,698.015,1903.936z"/>
			
				<linearGradient id="SVGID_00000000916582409805561930000016232022448916102032_" gradientUnits="userSpaceOnUse" x1="824.7485" y1="1828.4135" x2="925.5277" y2="1828.4135">
				<stop  offset="0" style="stop-color:#FEBBBA"/>
				<stop  offset="1" style="stop-color:#FF928E"/>
			</linearGradient>
			<path style="fill:url(#SVGID_00000000916582409805561930000016232022448916102032_);" d="M845.965,1750.794l-21.216,143.476
				c0,0,59.274,27.229,100.779-1.168l-8.936-101.257L845.965,1750.794z"/>
			<g>
				
					<linearGradient id="SVGID_00000062886518658168253250000003441046776432383929_" gradientUnits="userSpaceOnUse" x1="11409.248" y1="-1758.0139" x2="11585.7959" y2="-1800.983" gradientTransform="matrix(0.8757 -0.4828 0.4828 0.8757 133.6748 1095.1436)">
					<stop  offset="0" style="stop-color:#FEBBBA"/>
					<stop  offset="1" style="stop-color:#FF928E"/>
				</linearGradient>
				<path style="fill:url(#SVGID_00000062886518658168253250000003441046776432383929_);" d="M937.312,1657.368
					c0.668,1.212,13.456,73.561,21.328,118.346c3.253,18.504-10.349,35.693-29.104,36.803l-17.174,1.016
					c-31.555,1.869-59.343-20.597-64.126-51.844l-12.418-81.125C835.818,1680.563,921.091,1627.944,937.312,1657.368z"/>
				
					<linearGradient id="SVGID_00000128484928060939460930000016207992776232158887_" gradientUnits="userSpaceOnUse" x1="286.1901" y1="866.6876" x2="468.0345" y2="866.6876" gradientTransform="matrix(0.8757 -0.4828 0.4828 0.8757 133.6748 1095.1436)">
					<stop  offset="0" style="stop-color:#09005D"/>
					<stop  offset="1" style="stop-color:#1A0F91"/>
				</linearGradient>
				<path style="fill:url(#SVGID_00000128484928060939460930000016207992776232158887_);" d="M817.302,1680.764
					c-6.585-8.189-12.326-21.429,1.697-35.351c14.195-14.096,30.3-10.583,40.517-5.855c4.521,2.092,10.093,1.166,13.313-2.639
					c1.43-1.69,3.554-2.84,6.702-2.487c5.939,0.666,11.241-3.254,11.946-9.189c1.208-10.174,6.629-22.154,24.617-25.629
					c32.993-6.377,49.453,26.642,48.864,49.85c-0.587,23.206-36.751,28.087-57.269,24.234c-15.071-2.83-28.103,10.415-33.958,17.644
					c-2.126,2.625-2.92,6.063-2.155,9.352l5.216,22.42c-3.614,6.97-7.159,14.087-12.234,20.033
					c-3.653,4.283-7.66,6.646-11.908,7.646c-6.152-11.45-23.356-13.392-31.352-13.649c-3.06-0.097-5.916-1.446-7.926-3.753
					c-6.032-6.918-15.474-22.352,2.598-37.509C820.463,1692.116,820.976,1685.335,817.302,1680.764z"/>
				
					<linearGradient id="SVGID_00000092420758810360806800000016773377370790171521_" gradientUnits="userSpaceOnUse" x1="11402.9609" y1="-1783.5719" x2="11579.5078" y2="-1826.541" gradientTransform="matrix(0.8757 -0.4828 0.4828 0.8757 133.6748 1095.1436)">
					<stop  offset="0" style="stop-color:#FEBBBA"/>
					<stop  offset="1" style="stop-color:#FF928E"/>
				</linearGradient>
				<path style="fill:url(#SVGID_00000092420758810360806800000016773377370790171521_);" d="M858.599,1774.796
					c0,0-0.711-40.483-17.096-44.285c-16.384-3.803-34.062,8.044-20.048,32.281C838.886,1792.939,858.599,1774.796,858.599,1774.796
					z"/>
			</g>
			
				<linearGradient id="SVGID_00000093148404781250452860000006967628640481614984_" gradientUnits="userSpaceOnUse" x1="866.1297" y1="1224.3762" x2="764.4758" y2="1542.8922">
				<stop  offset="0" style="stop-color:#FF928E"/>
				<stop  offset="1" style="stop-color:#FE7062"/>
			</linearGradient>
			<path style="fill:url(#SVGID_00000093148404781250452860000006967628640481614984_);" d="M793.878,2097.458
				c0,0-481.226-130.99-242.278-467.858l16.167,22.89c0,0-71.992,228.165,166.491,249.846
				C734.258,1902.336,796.023,2061.636,793.878,2097.458z"/>
			
				<linearGradient id="SVGID_00000038376760118460934460000012601972373717332880_" gradientUnits="userSpaceOnUse" x1="795.4841" y1="1207.1088" x2="458.8043" y2="1845.6384">
				<stop  offset="0" style="stop-color:#FEBBBA"/>
				<stop  offset="1" style="stop-color:#FF928E"/>
			</linearGradient>
			<path style="fill:url(#SVGID_00000038376760118460934460000012601972373717332880_);" d="M549.976,1631.332
				c0,0-5.421-65.041,27.1-70.461c32.52-5.42,43.36,27.1,48.78,43.36c5.421,16.26-48.78,48.781-59.62,48.781
				S549.976,1631.332,549.976,1631.332z"/>
			
				<linearGradient id="SVGID_00000144335736428921613250000010937856492662147508_" gradientUnits="userSpaceOnUse" x1="1315.1962" y1="1367.6974" x2="1213.5424" y2="1686.2133">
				<stop  offset="0" style="stop-color:#FF928E"/>
				<stop  offset="1" style="stop-color:#FE7062"/>
			</linearGradient>
			<path style="fill:url(#SVGID_00000144335736428921613250000010937856492662147508_);" d="M967.481,2113.719
				c0,0,481.226-130.99,242.278-467.858l-16.166,22.889c0,0,71.991,228.166-166.492,249.847
				C1027.101,1918.597,965.335,2077.896,967.481,2113.719z"/>
			
				<linearGradient id="SVGID_00000129903072034938322410000001793984949073275038_" gradientUnits="userSpaceOnUse" x1="746.5215" y1="1545.3076" x2="689.6111" y2="1732.2992" gradientTransform="matrix(-1 0 0 1 1897.0294 0)">
				<stop  offset="0" style="stop-color:#FEBBBA"/>
				<stop  offset="1" style="stop-color:#FF928E"/>
			</linearGradient>
			<path style="fill:url(#SVGID_00000129903072034938322410000001793984949073275038_);" d="M1211.384,1647.592
				c0,0,5.42-65.041-27.1-70.461c-32.521-5.419-43.36,27.101-48.781,43.361s48.781,48.78,59.621,48.78
				C1205.964,1669.272,1211.384,1647.592,1211.384,1647.592z"/>
			<path style="fill:#FFFFFF;" d="M936.693,1659.292c-0.417,0-0.781-0.308-0.837-0.733c-0.063-0.463,0.261-0.89,0.725-0.953
				c0.06-0.008,6.085-0.9,10.182-6.76c4.103-5.874,4.95-14.535,2.512-25.745c-1.79-8.229-5.602-13.855-11.33-16.717
				c-11.221-5.61-26.227,1.147-26.376,1.214c-0.43,0.194-0.93,0.008-1.125-0.417c-0.195-0.425-0.007-0.928,0.417-1.122
				c0.645-0.296,15.903-7.159,27.842-1.191c6.211,3.104,10.324,9.116,12.227,17.872c2.548,11.712,1.605,20.832-2.803,27.109
				c-4.533,6.463-11.046,7.397-11.32,7.435C936.766,1659.29,936.73,1659.292,936.693,1659.292z"/>
		</g>
		<g>
			
				<linearGradient id="SVGID_00000127036362309154068600000001819669799264575112_" gradientUnits="userSpaceOnUse" x1="2427.1577" y1="1400.514" x2="1889.5585" y2="3274.6416">
				<stop  offset="0" style="stop-color:#4F52FF"/>
				<stop  offset="1" style="stop-color:#4042E2"/>
			</linearGradient>
			<path style="fill:url(#SVGID_00000127036362309154068600000001819669799264575112_);" d="M3175.556,2604.314H1322.504
				c-14.911,0-26.999-12.088-26.999-26.999v-1111.66c0-14.911,12.088-26.999,26.999-26.999h1853.052
				c14.911,0,26.999,12.088,26.999,26.999v1111.66C3202.555,2592.227,3190.467,2604.314,3175.556,2604.314z"/>
			
				<linearGradient id="SVGID_00000054230833548983720640000015936402634615018656_" gradientUnits="userSpaceOnUse" x1="2077.6958" y1="73.3125" x2="2138.6875" y2="601.9122">
				<stop  offset="0" style="stop-color:#4F52FF"/>
				<stop  offset="1" style="stop-color:#4042E2"/>
			</linearGradient>
			<path style="fill:url(#SVGID_00000054230833548983720640000015936402634615018656_);" d="M3205.047,1613.022v-97.226
				c0-42.603-37.029-78.974-79.632-78.974H1372.644c-42.602,0-78.691,36.372-78.691,78.974v97.226H3205.047z"/>
			<path style="fill:#91B3FA;" d="M3049.819,2120.041h-285.927c-32.284,0-58.455-26.171-58.455-58.455v-285.928
				c0-32.284,26.171-58.455,58.455-58.455h285.927c32.284,0,58.455,26.171,58.455,58.455v285.928
				C3108.274,2093.869,3082.103,2120.041,3049.819,2120.041z"/>
			<g>
				<path style="fill:#FFFFFF;" d="M2976.906,1832.241c0,38.544-31.246,80.154-69.789,80.154c-38.544,0-69.79-41.611-69.79-80.154
					c0-38.544,31.246-65.888,69.79-65.888C2945.661,1766.353,2976.906,1793.698,2976.906,1832.241z"/>
				<path style="fill:#FFFFFF;" d="M2820.508,2060.792h170.368c17.934,0,33.812-11.591,39.277-28.672l9.168-28.654
					c6.712-20.979-4.201-43.694-24.889-51.258c-69.334-25.35-141.027-22.098-214.469,2.339
					c-20.574,6.846-31.992,28.853-26.314,49.781l7.059,26.022C2785.583,2048.319,2801.891,2060.792,2820.508,2060.792z"/>
			</g>
			<path style="fill:#91B3FA;" d="M2472.246,1802.925H1421.558c-17.547,0-31.772-14.225-31.772-31.772v-22.166
				c0-17.547,14.225-31.772,31.772-31.772h1050.687c17.547,0,31.772,14.225,31.772,31.772v22.166
				C2504.018,1788.7,2489.793,1802.925,2472.246,1802.925z"/>
			<path style="opacity:0.4;fill:#FFFFFF;" d="M2491.207,2445.75H1405.474c-7.87,0-14.249-6.38-14.249-14.249v-117.208
				c0-7.87,6.38-14.249,14.249-14.249h1085.733c7.87,0,14.249,6.38,14.249,14.249v117.208
				C2505.456,2439.371,2499.076,2445.75,2491.207,2445.75z"/>
			<path style="fill:#91B3FA;" d="M1869.416,1970.06h-442.145c-17.547,0-31.772-14.225-31.772-31.772v-22.166
				c0-17.547,14.225-31.772,31.772-31.772h442.145c17.547,0,31.772,14.225,31.772,31.772v22.166
				C1901.188,1955.835,1886.963,1970.06,1869.416,1970.06z"/>
			<path style="fill:#91B3FA;" d="M1870.848,2137.183h-442.145c-17.547,0-31.772-14.225-31.772-31.772v-22.166
				c0-17.547,14.225-31.772,31.772-31.772h442.145c17.547,0,31.772,14.225,31.772,31.772v22.166
				C1902.62,2122.958,1888.396,2137.183,1870.848,2137.183z"/>
			<path style="fill:#91B3FA;" d="M2456.553,1970.06h-442.146c-17.547,0-31.772-14.225-31.772-31.772v-22.166
				c0-17.547,14.225-31.772,31.772-31.772h442.146c17.547,0,31.772,14.225,31.772,31.772v22.166
				C2488.325,1955.835,2474.101,1970.06,2456.553,1970.06z"/>
		</g>
		<g>
			<path style="fill:#91B3FA;" d="M2932.618,2617.371c0,0,62.533-70.17,52.368-136.503c-10.165-66.334-60.912-58.421-83.492-19.196
				c-22.58,39.225-42.879,33.841-29.464-3.036c13.415-36.878,30.229-60.881,2.43-97.591c-27.799-36.71-30.681-52.308-15.062-85.065
				c15.619-32.757,35.233-79.17-26.917-95.731c-62.15-16.562-124.063,34.32-109.569,100.911
				c14.493,66.592,23.199,73.845,3.237,98.512c-19.962,24.667-11.643,34.798-8.815,50.853c2.829,16.055-27.668,19.814-27.019-2.8
				c0.649-22.614,39.444-75.989,12.965-100.89c-26.478-24.901-78.376-25.17-91.667,32.407
				c-13.29,57.577,29.294,83.452,27.173,104.276c-2.12,20.824-24.991-10.752-44.911,10.476c-19.921,21.228,6.9,37.903,26.637,49.407
				c19.737,11.503,49.498,32.121,21.18,47.094c-28.319,14.972-55.132,0.644-37.784,46.876H2932.618z"/>
			<path style="opacity:0.62;fill:#FFFFFF;" d="M2804.061,2228.269c-2.041,0.968-3.831,2.181-5.577,3.483
				c-1.738,1.304-3.341,2.751-4.833,4.287c-3.012,3.056-5.556,6.497-7.627,10.157c-4.155,7.331-6.377,15.492-7.117,23.661
				c-0.131,1.024-0.168,2.046-0.224,3.071c-0.042,1.025-0.113,2.052-0.085,3.074l0.018,3.074l0.167,3.064l0.093,1.533l0.168,1.523
				l0.342,3.049c0.343,2.011,0.583,4.049,1.017,6.045c0.412,2.001,0.819,4.007,1.36,5.978l0.764,2.971l0.793,2.872l3.194,11.465
				c4.228,15.28,8.302,30.553,11.504,45.906c3.114,15.343,5.27,30.854,4.784,46.179c-0.112,3.827-0.396,7.639-0.949,11.401
				c-0.531,3.765-1.266,7.497-2.344,11.126c-1.064,3.632-2.374,7.195-4.044,10.603c-1.855,3.858-3.303,7.859-4.437,11.824
				c-2.137,7.962-3.399,15.924-4.364,23.854c-0.934,7.932-1.661,15.835-2.237,23.725c-1.213,15.767-2.254,31.486-4.8,46.987
				c-0.322,1.937-0.662,3.87-1.07,5.79c-0.359,1.931-0.826,3.837-1.269,5.75c-0.41,1.923-1,3.796-1.491,5.701
				c-0.279,0.942-0.594,1.874-0.89,2.812c-0.304,0.936-0.582,1.882-0.953,2.795l-1.048,2.767c-0.351,0.923-0.795,1.808-1.189,2.716
				c-0.759,1.831-1.755,3.553-2.664,5.327c-2.03,3.436-4.412,6.715-7.319,9.642l0.709,0.626c3.224-2.784,5.968-5.989,8.361-9.391
				c2.282-3.453,4.275-7.069,5.891-10.805c3.331-7.452,5.522-15.232,7.322-23.034c3.593-15.629,5.297-31.458,7.235-47.143
				c0.985-7.843,1.858-15.674,3.065-23.422c1.197-7.741,2.694-15.417,4.926-22.768c1.179-3.658,2.5-7.172,4.209-10.549
				c1.953-3.8,3.49-7.74,4.741-11.726c1.267-3.987,2.148-8.039,2.804-12.098c0.678-4.06,1.063-8.134,1.263-12.198
				c0.762-16.287-1.502-32.319-4.548-48.046c-3.111-15.736-7.315-31.204-12.015-46.488c-1.189-3.818-2.38-7.634-3.613-11.435
				l-0.93-2.848l-0.851-2.774c-0.606-1.845-1.058-3.714-1.554-5.577c-0.524-1.861-0.854-3.744-1.295-5.619l-0.489-2.827
				c-0.173-0.943-0.324-1.887-0.432-2.833c-0.589-3.783-0.732-7.585-0.772-11.383c-0.014-3.801,0.338-7.595,1.063-11.331
				c0.746-3.73,1.763-7.433,3.279-10.996c0.781-1.769,1.623-3.526,2.615-5.218c0.946-1.717,2.048-3.365,3.24-4.965
				c2.398-3.173,5.238-6.201,8.61-8.596L2804.061,2228.269z"/>
			<path style="opacity:0.62;fill:#FFFFFF;" d="M2937.187,2465.954c-1.865,12.418-4.516,24.73-7.755,36.874
				c-1.63,6.072-3.424,12.103-5.409,18.077c-0.47,1.5-1.03,2.976-1.54,4.465c-0.506,1.49-1.063,2.966-1.615,4.442
				c-1.055,2.968-2.25,5.89-3.413,8.822c-1.251,2.901-2.466,5.815-3.832,8.673c-1.265,2.896-2.716,5.718-4.116,8.559
				c-2.942,5.624-6.047,11.176-9.498,16.561c-3.437,5.392-7.239,10.586-11.285,15.647c-4.129,5.005-8.623,9.765-13.382,14.383
				l0.674,0.656c5.51-3.969,10.58-8.443,15.255-13.237c4.592-4.852,8.79-10.004,12.627-15.364
				c3.704-5.427,7.199-10.977,10.214-16.732c1.467-2.89,2.984-5.765,4.312-8.708c1.38-2.926,2.583-5.909,3.833-8.876
				c1.158-2.996,2.346-5.982,3.392-9.009c0.551-1.505,1.052-3.024,1.531-4.548c0.477-1.524,1.002-3.037,1.437-4.57
				c1.888-6.1,3.44-12.274,4.78-18.478c2.633-12.412,4.474-24.956,4.786-37.584L2937.187,2465.954z"/>
		</g>
		<g>
			<g>
				<g>
					<g>
						
							<linearGradient id="SVGID_00000130640382413262667100000007167831156864200890_" gradientUnits="userSpaceOnUse" x1="1237.8953" y1="1560.8511" x2="1278.2432" y2="2838.5635">
							<stop  offset="0" style="stop-color:#09005D"/>
							<stop  offset="1" style="stop-color:#1A0F91"/>
						</linearGradient>
						<path style="fill:url(#SVGID_00000130640382413262667100000007167831156864200890_);" d="M1395.607,2891.124
							c0-50.887-41.252-92.139-92.139-92.139h-39.36c-50.887,0-92.14,41.252-92.14,92.139v246.056
							c0,50.887,41.252,92.139,92.14,92.139h39.36c50.887,0,92.139-41.252,92.139-92.139V2891.124z"/>
						
							<linearGradient id="SVGID_00000053538869420142985600000002894418043026949263_" gradientUnits="userSpaceOnUse" x1="2503.9214" y1="1520.9656" x2="2544.2693" y2="2798.6777">
							<stop  offset="0" style="stop-color:#09005D"/>
							<stop  offset="1" style="stop-color:#1A0F91"/>
						</linearGradient>
						<path style="fill:url(#SVGID_00000053538869420142985600000002894418043026949263_);" d="M2662.893,2891.124
							c0-50.887-41.252-92.139-92.139-92.139h-39.36c-50.887,0-92.139,41.252-92.139,92.139v246.056
							c0,50.887,41.252,92.139,92.139,92.139h39.36c50.887,0,92.139-41.252,92.139-92.139V2891.124z"/>
					</g>
					<g>
						
							<linearGradient id="SVGID_00000003817127442688884150000012817644642994607522_" gradientUnits="userSpaceOnUse" x1="1127.9186" y1="2437.2483" x2="1353.5988" y2="2437.2483">
							<stop  offset="0" style="stop-color:#FF928E"/>
							<stop  offset="1" style="stop-color:#FE7062"/>
						</linearGradient>
						<path style="fill:url(#SVGID_00000003817127442688884150000012817644642994607522_);" d="M1293.615,2432.068
							c-2.761-0.612-6.438-3.06-6.438-5.888v-18.935c0-18.246-8.566-34.935-24.859-43.148
							c-21.019-10.595-44.881-10.964-66.207-1.002l-38.391,18.329c-18.697,8.734-29.801,27.505-29.801,48.141v14.438
							c0,26.575,19.217,49.063,45.549,52.649l161.138,21.967l18.993-73.484L1293.615,2432.068z"/>
						
							<linearGradient id="SVGID_00000145756162101606173320000012527383541145849011_" gradientUnits="userSpaceOnUse" x1="-2096.7332" y1="2437.2483" x2="-1871.1876" y2="2437.2483" gradientTransform="matrix(-1 0 0 1 620.375 0)">
							<stop  offset="0" style="stop-color:#FF928E"/>
							<stop  offset="1" style="stop-color:#FE7062"/>
						</linearGradient>
						<path style="fill:url(#SVGID_00000145756162101606173320000012527383541145849011_);" d="M2549.487,2432.068
							c2.761-0.612,1.587-3.06,1.587-5.888v-18.935c0-18.246,13.418-34.935,29.711-43.148c21.019-10.595,47.307-10.964,68.633-1.002
							l38.14,18.329c18.697,8.734,29.551,27.505,29.551,48.141v14.438c0,26.575-17.754,49.063-44.085,52.649l-160.407,21.967
							l-21.053-73.484L2549.487,2432.068z"/>
					</g>
					
						<linearGradient id="SVGID_00000072973158914055957450000017235176850831819914_" gradientUnits="userSpaceOnUse" x1="1925.4935" y1="2367.0911" x2="1914.6912" y2="3674.2004">
						<stop  offset="0" style="stop-color:#FF928E"/>
						<stop  offset="1" style="stop-color:#FE7062"/>
					</linearGradient>
					<path style="fill:url(#SVGID_00000072973158914055957450000017235176850831819914_);" d="M2670.506,2594.537
						c-23.359-78.845-144.049-153.832-144.049-153.832s-101.224-312.636-210.234-312.636c-87.532,0-297.723,0-377.164,0
						c0,0-11.653,0-31.146,0c-79.525,0-290.092,0-377.643,0c-109.01,0-210.234,312.636-210.234,312.636
						s-120.69,73.95-144.049,152.795c-17.077,57.642,19.947,278.447,41.095,392.85c7.456,40.335,45.516,70.158,89.962,70.158
						h600.869h31.146h600.39c44.446,0,82.506-29.305,89.962-69.639C2650.559,2872.465,2687.583,2652.179,2670.506,2594.537z"/>
					
						<linearGradient id="SVGID_00000153706274841170007850000014500290575378003351_" gradientUnits="userSpaceOnUse" x1="1931.8727" y1="2070.6987" x2="1918.5968" y2="3418.1306">
						<stop  offset="0" style="stop-color:#E1473D"/>
						<stop  offset="1" style="stop-color:#E9605A"/>
					</linearGradient>
					<path style="fill:url(#SVGID_00000153706274841170007850000014500290575378003351_);" d="M2655.344,2926.521
						c-6.793-7.771-17.153-12.329-28.116-12.329h-1407.96c-10.896,0-21.199,4.502-27.996,12.192
						c-6.797,7.69-9.35,17.767-6.935,27.361l23.041,89.646c3.707,14.728,18.206,23.281,34.931,23.281h1360.728
						c16.581,0,30.995-8.371,34.844-22.934l24.192-90.606C2664.616,2943.503,2662.137,2934.292,2655.344,2926.521z"/>
					<g>
						
							<linearGradient id="SVGID_00000115507955798799018340000004750251327179260329_" gradientUnits="userSpaceOnUse" x1="1501.948" y1="1514.365" x2="1440.9561" y2="2144.6196">
							<stop  offset="0" style="stop-color:#E1473D"/>
							<stop  offset="1" style="stop-color:#E9605A"/>
						</linearGradient>
						<path style="fill:url(#SVGID_00000115507955798799018340000004750251327179260329_);" d="M1542.981,2783.682
							c0,0-35.039-105.117-79.162-114.201c-44.123-9.084-230.997-48.016-234.891-15.573
							c-3.893,32.443-41.528,144.049,70.078,154.431C1410.612,2818.721,1560.96,2827.263,1542.981,2783.682z"/>
						
							<linearGradient id="SVGID_00000095312657379320602490000000409649380035222954_" gradientUnits="userSpaceOnUse" x1="2574.896" y1="1618.1981" x2="2513.9041" y2="2248.4529">
							<stop  offset="0" style="stop-color:#E1473D"/>
							<stop  offset="1" style="stop-color:#E9605A"/>
						</linearGradient>
						<path style="fill:url(#SVGID_00000095312657379320602490000000409649380035222954_);" d="M2303.512,2783.682
							c0,0,35.039-105.117,79.162-114.201c44.123-9.084,230.998-48.016,234.891-15.573c3.894,32.443,41.528,144.049-70.078,154.431
							C2435.882,2818.721,2285.534,2827.263,2303.512,2783.682z"/>
					</g>
					
						<linearGradient id="SVGID_00000111174734857133647040000004999896430881036211_" gradientUnits="userSpaceOnUse" x1="2033.3073" y1="1565.7894" x2="1972.3156" y2="2196.042">
						<stop  offset="0" style="stop-color:#E1473D"/>
						<stop  offset="1" style="stop-color:#E9605A"/>
					</linearGradient>
					<path style="fill:url(#SVGID_00000111174734857133647040000004999896430881036211_);" d="M2278.346,2691.677
						c-3.625-5.585-9.831-11.289-16.489-11.289h-677.221c-6.897,0-13.289,5.947-16.844,11.857s-3.753,14.417-0.522,20.509
						l38.103,72.623c14.139,26.661,41.849,44.104,72.027,44.104h497.597c32.182,0,61.353-19.12,74.46-48.512l30.352-69.323
						C2282.522,2705.564,2281.971,2697.263,2278.346,2691.677z"/>
					<g>
						
							<linearGradient id="SVGID_00000034782852660431949800000003563966379788989079_" gradientUnits="userSpaceOnUse" x1="1853.4309" y1="3092.5969" x2="1907.6459" y2="2597.8823">
							<stop  offset="0" style="stop-color:#E1473D"/>
							<stop  offset="1" style="stop-color:#E9605A"/>
						</linearGradient>
						<path style="fill:url(#SVGID_00000034782852660431949800000003563966379788989079_);" d="M2462.756,2468.846
							c-4.4,6.697-11.874,11.623-19.933,11.623H1403.645c-8.137,0-15.729-5.044-20.089-11.935
							c-4.361-6.891-4.906-15.973-1.402-23.37c23.593-49.717,67.859-141.972,92.659-193.479c1.129-2.336,2.375-5.262,3.777-7.403
							c11.991-19.038,33.053-31.502,55.906-31.502h785.846c23.087,0,44.227,12.589,56.179,31.782
							c1.674,2.725,3.193,5.866,4.478,8.825l83.626,192.33C2467.856,2453.074,2467.156,2462.111,2462.756,2468.846z"/>
						
							<linearGradient id="SVGID_00000080893278432461815580000012238533186908879513_" gradientUnits="userSpaceOnUse" x1="1959.0665" y1="1882.84" x2="2074.2739" y2="561.3398">
							<stop  offset="0" style="stop-color:#FEBBBA"/>
							<stop  offset="1" style="stop-color:#FF928E"/>
						</linearGradient>
						<path style="fill:url(#SVGID_00000080893278432461815580000012238533186908879513_);" d="M2376.521,2244.562
							c-55.05,10.862-216.813,38.219-460.801,38.219c-246.012,0-390.373-28.051-437.13-38.757
							c11.991-19.038,33.053-31.243,55.906-31.243h785.846C2343.429,2212.78,2364.569,2225.369,2376.521,2244.562z"/>
					</g>
					<g>
						<g>
							<path style="opacity:0.7;fill:#FFFFFF;" d="M1526.235,2640.687c-0.962,0-1.924-0.353-2.677-1.064l-134.694-127.463
								c-1.56-1.479-1.629-3.943-0.152-5.506c1.483-1.56,3.947-1.625,5.505-0.152l134.695,127.463
								c1.56,1.479,1.629,3.942,0.152,5.505C1528.298,2640.278,1527.267,2640.687,1526.235,2640.687z"/>
						</g>
						<g>
							<path style="opacity:0.7;fill:#FFFFFF;" d="M2310.341,2640.687c-1.032,0-2.063-0.408-2.828-1.216
								c-1.478-1.563-1.409-4.027,0.152-5.505l134.694-127.463c1.563-1.473,4.028-1.408,5.505,0.152
								c1.477,1.563,1.408,4.027-0.152,5.506l-134.694,127.463C2312.265,2640.333,2311.303,2640.687,2310.341,2640.687z"/>
						</g>
					</g>
				</g>
			</g>
		</g>
		<g>
			
				<linearGradient id="SVGID_00000106828780660513830180000003235812974059050402_" gradientUnits="userSpaceOnUse" x1="1848.2813" y1="282.3759" x2="1855.0757" y2="710.414">
				<stop  offset="0" style="stop-color:#FF928E"/>
				<stop  offset="1" style="stop-color:#FE7062"/>
			</linearGradient>
			<path style="fill:url(#SVGID_00000106828780660513830180000003235812974059050402_);" d="M2777.139,1352.648H948.246
				c-6.6,0-12-5.4-12-12v-300.774c0-6.6,5.4-12,12-12h1828.892c6.6,0,12,5.4,12,12v300.774
				C2789.139,1347.248,2783.739,1352.648,2777.139,1352.648z"/>
			<g>
				<g>
					<path style="fill:#FFFFFF;" d="M1191.613,1194.775c0,9.957-1.676,19.115-5.026,27.473c-3.35,8.36-8.077,15.546-14.183,21.557
						s-13.448,10.708-22.025,14.088c-8.58,3.382-18.097,5.073-28.554,5.073h-52.412v-136.288h52.412
						c10.457,0,19.973,1.691,28.554,5.073c8.577,3.38,15.92,8.092,22.025,14.135c6.105,6.044,10.832,13.23,14.183,21.557
						C1189.937,1175.771,1191.613,1184.883,1191.613,1194.775z M1162.682,1194.775c0-7.138-0.938-13.556-2.818-19.255
						c-1.878-5.697-4.572-10.52-8.078-14.464c-3.508-3.946-7.781-6.982-12.821-9.111c-5.041-2.128-10.754-3.193-17.141-3.193
						h-24.045v92.142h24.045c6.387,0,12.1-1.047,17.141-3.147c5.04-2.096,9.313-5.134,12.821-9.11
						c3.506-3.976,6.2-8.814,8.078-14.512C1161.744,1208.427,1162.682,1201.977,1162.682,1194.775z"/>
					<path style="fill:#FFFFFF;" d="M1321.041,1262.966h-25.455c-4.76,0-8.203-1.815-10.333-5.448l-25.923-41.797
						c-1.066-1.628-2.24-2.818-3.522-3.569c-1.284-0.753-3.178-1.128-5.683-1.128h-9.58v51.942h-28.178v-136.288h42.831
						c9.517,0,17.659,0.986,24.421,2.958c6.764,1.972,12.305,4.712,16.625,8.22c4.322,3.508,7.483,7.687,9.487,12.538
						c2.004,4.854,3.006,10.192,3.006,16.016c0,4.509-0.644,8.782-1.926,12.821c-1.284,4.039-3.147,7.718-5.589,11.036
						c-2.442,3.321-5.447,6.262-9.017,8.828c-3.569,2.569-7.639,4.636-12.21,6.199c1.817,1.003,3.506,2.207,5.073,3.617
						c1.563,1.408,2.973,3.084,4.227,5.025L1321.041,1262.966z M1255.011,1191.206c4.57,0,8.514-0.579,11.835-1.737
						c3.317-1.158,6.041-2.755,8.172-4.792c2.128-2.033,3.693-4.429,4.696-7.186c1.001-2.755,1.502-5.759,1.502-9.016
						c0-6.449-2.146-11.459-6.433-15.03c-4.29-3.569-10.819-5.354-19.585-5.354h-14.652v43.114H1255.011z"/>
					<path style="fill:#FFFFFF;" d="M1362.744,1262.966h-28.367v-136.288h28.367V1262.966z"/>
					<path style="fill:#FFFFFF;" d="M1510.583,1126.678l-54.854,136.288h-25.547l-54.854-136.288h22.73
						c2.442,0,4.431,0.579,5.965,1.737c1.534,1.16,2.677,2.646,3.428,4.462l29.494,78.522c1.127,2.945,2.239,6.153,3.334,9.628
						c1.095,3.476,2.115,7.124,3.054,10.943c0.812-3.819,1.704-7.467,2.675-10.943c0.971-3.474,2.02-6.683,3.147-9.628
						l29.305-78.522c0.625-1.565,1.739-2.99,3.335-4.274c1.597-1.284,3.584-1.926,5.965-1.926H1510.583z"/>
					<path style="fill:#FFFFFF;" d="M1551.535,1262.966h-28.367v-136.288h28.367V1262.966z"/>
					<path style="fill:#FFFFFF;" d="M1696.838,1126.678v136.288h-14.558c-2.194,0-4.039-0.359-5.543-1.08
						c-1.502-0.718-2.975-1.956-4.414-3.709l-67.91-86.414c0.189,2.194,0.329,4.353,0.423,6.482
						c0.094,2.129,0.141,4.102,0.141,5.917v78.805h-24.891v-136.288h14.841c1.188,0,2.207,0.046,3.053,0.141
						c0.845,0.094,1.611,0.314,2.301,0.657c0.688,0.346,1.345,0.799,1.972,1.363c0.625,0.563,1.314,1.314,2.067,2.253l68.378,86.788
						c-0.251-2.378-0.438-4.679-0.564-6.903c-0.126-2.222-0.187-4.335-0.187-6.34v-77.959H1696.838z"/>
					<path style="fill:#FFFFFF;" d="M1791.705,1193.554h46.775v56.262c-6.951,5.073-14.356,8.782-22.214,11.13
						c-7.859,2.35-16.171,3.523-24.939,3.523c-11.209,0-21.353-1.737-30.432-5.212c-9.08-3.476-16.845-8.314-23.294-14.512
						c-6.449-6.199-11.428-13.557-14.934-22.073c-3.508-8.516-5.26-17.814-5.26-27.897c0-10.205,1.674-19.568,5.025-28.084
						c3.349-8.516,8.124-15.842,14.323-21.979c6.199-6.137,13.698-10.927,22.496-14.371c8.796-3.443,18.643-5.166,29.54-5.166
						c5.635,0,10.895,0.455,15.779,1.362c4.884,0.908,9.393,2.161,13.526,3.757c4.133,1.597,7.92,3.491,11.365,5.682
						c3.443,2.192,6.575,4.603,9.393,7.232l-8.172,12.588c-1.254,2.004-2.881,3.225-4.884,3.663
						c-2.005,0.438-4.196-0.063-6.575-1.504c-2.253-1.377-4.461-2.613-6.621-3.71c-2.161-1.095-4.462-2.05-6.904-2.866
						c-2.442-0.812-5.104-1.439-7.983-1.878c-2.88-0.437-6.199-0.657-9.957-0.657c-6.325,0-12.055,1.095-17.189,3.287
						c-5.134,2.192-9.502,5.291-13.102,9.298c-3.602,4.007-6.373,8.829-8.312,14.464c-1.943,5.637-2.912,11.929-2.912,18.88
						c0,7.515,1.064,14.231,3.193,20.147c2.128,5.918,5.134,10.911,9.017,14.982c3.881,4.072,8.531,7.171,13.948,9.298
						c5.415,2.129,11.443,3.193,18.082,3.193c4.507,0,8.531-0.453,12.068-1.362c3.537-0.907,6.999-2.144,10.38-3.71v-22.918h-15.405
						c-1.817,0-3.24-0.485-4.274-1.456c-1.032-0.97-1.549-2.207-1.549-3.709V1193.554z"/>
					<path style="fill:#FFFFFF;" d="M1979.929,1152.79c-0.877,1.441-1.77,2.488-2.677,3.147c-0.908,0.657-2.083,0.986-3.522,0.986
						c-1.378,0-2.864-0.485-4.461-1.456c-1.597-0.97-3.461-2.02-5.589-3.147c-2.129-1.127-4.571-2.174-7.326-3.147
						c-2.756-0.97-5.981-1.456-9.674-1.456c-6.514,0-11.398,1.456-14.654,4.368c-3.256,2.912-4.884,6.716-4.884,11.413
						c0,3.005,0.893,5.495,2.677,7.467c1.785,1.972,4.133,3.68,7.045,5.119c2.912,1.441,6.214,2.723,9.909,3.85
						c3.695,1.128,7.482,2.364,11.367,3.711c3.882,1.347,7.669,2.927,11.365,4.744c3.693,1.817,6.997,4.102,9.909,6.856
						c2.912,2.756,5.26,6.122,7.045,10.098c1.784,3.977,2.677,8.814,2.677,14.512c0,6.198-1.08,12.007-3.241,17.422
						c-2.161,5.417-5.276,10.146-9.346,14.184c-4.07,4.039-9.095,7.217-15.074,9.533c-5.981,2.316-12.76,3.474-20.336,3.474
						c-4.32,0-8.627-0.438-12.915-1.314c-4.289-0.877-8.422-2.098-12.397-3.663c-3.978-1.565-7.718-3.443-11.224-5.637
						c-3.508-2.191-6.575-4.633-9.206-7.326l8.266-13.337c0.688-1.001,1.597-1.832,2.723-2.488c1.128-0.659,2.316-0.988,3.57-0.988
						c1.689,0,3.474,0.627,5.352,1.879c1.88,1.253,4.04,2.629,6.482,4.133c2.442,1.502,5.275,2.88,8.499,4.133
						c3.225,1.253,7.091,1.878,11.6,1.878c6.575,0,11.663-1.502,15.263-4.509c3.6-3.006,5.402-7.482,5.402-13.431
						c0-3.443-0.893-6.229-2.677-8.36c-1.785-2.128-4.118-3.911-6.999-5.352c-2.88-1.441-6.168-2.677-9.861-3.711
						c-3.696-1.032-7.483-2.174-11.367-3.428c-3.883-1.252-7.67-2.755-11.365-4.509c-3.695-1.752-6.982-4.07-9.863-6.951
						c-2.881-2.879-5.212-6.448-6.997-10.708c-1.785-4.257-2.677-9.548-2.677-15.874c0-5.071,1.001-9.987,3.006-14.747
						c2.004-4.757,4.945-8.984,8.829-12.68c3.881-3.693,8.656-6.668,14.325-8.923c5.665-2.253,12.162-3.38,19.489-3.38
						c8.203,0,15.794,1.267,22.778,3.804c6.982,2.536,12.882,6.057,17.705,10.566L1979.929,1152.79z"/>
					<path style="fill:#FFFFFF;" d="M2102.41,1229.434c1.564,0,2.879,0.564,3.944,1.691l11.178,11.929
						c-5.511,7.014-12.353,12.336-20.524,15.968c-8.172,3.632-17.892,5.447-29.164,5.447c-10.207,0-19.381-1.737-27.52-5.212
						c-8.142-3.476-15.061-8.314-20.758-14.512c-5.7-6.199-10.083-13.557-13.15-22.073c-3.069-8.516-4.603-17.814-4.603-27.897
						c0-6.762,0.736-13.196,2.207-19.302c1.471-6.105,3.617-11.726,6.434-16.86c2.818-5.134,6.214-9.768,10.19-13.901
						c3.976-4.133,8.469-7.656,13.479-10.568c5.008-2.912,10.473-5.134,16.39-6.669c5.918-1.532,12.225-2.3,18.926-2.3
						c5.01,0,9.753,0.438,14.23,1.314c4.475,0.879,8.656,2.1,12.54,3.663c3.882,1.567,7.467,3.461,10.754,5.683
						c3.288,2.224,6.246,4.649,8.877,7.28l-9.487,12.962c-0.564,0.814-1.284,1.535-2.161,2.161s-2.067,0.938-3.569,0.938
						s-3.021-0.531-4.555-1.597c-1.535-1.064-3.415-2.254-5.637-3.569c-2.222-1.315-5.01-2.503-8.359-3.569
						c-3.35-1.064-7.594-1.597-12.727-1.597c-5.7,0-10.928,1.032-15.687,3.099c-4.76,2.067-8.845,5.058-12.257,8.971
						c-3.415,3.913-6.059,8.719-7.937,14.417c-1.88,5.698-2.819,12.179-2.819,19.442c0,7.326,1.018,13.855,3.053,19.585
						c2.035,5.73,4.821,10.566,8.36,14.512c3.537,3.944,7.67,6.936,12.399,8.969c4.727,2.035,9.783,3.053,15.169,3.053
						c3.193,0,6.089-0.156,8.688-0.47c2.598-0.313,5.01-0.845,7.232-1.597c2.222-0.751,4.322-1.721,6.294-2.912
						c1.972-1.188,3.959-2.692,5.965-4.509c0.688-0.563,1.408-1.032,2.161-1.408
						C2100.719,1229.623,2101.531,1229.434,2102.41,1229.434z"/>
					<path style="fill:#FFFFFF;" d="M2250.156,1126.678v136.288h-28.367v-58.704h-60.018v58.704h-28.367v-136.288h28.367v57.859
						h60.018v-57.859H2250.156z"/>
					<path style="fill:#FFFFFF;" d="M2410.394,1194.775c0,9.957-1.676,19.194-5.025,27.708c-3.35,8.517-8.077,15.874-14.182,22.073
						c-6.105,6.199-13.448,11.069-22.027,14.606c-8.579,3.537-18.097,5.306-28.554,5.306c-10.458,0-19.975-1.769-28.554-5.306
						c-8.579-3.537-15.936-8.407-22.073-14.606s-10.88-13.556-14.229-22.073c-3.351-8.514-5.025-17.751-5.025-27.708
						s1.674-19.176,5.025-27.662c3.349-8.484,8.092-15.826,14.229-22.025c6.137-6.2,13.494-11.067,22.073-14.606
						c8.579-3.537,18.095-5.306,28.554-5.306c10.457,0,19.975,1.769,28.554,5.306c8.579,3.539,15.921,8.423,22.027,14.652
						c6.105,6.233,10.832,13.589,14.182,22.073C2408.718,1175.693,2410.394,1184.883,2410.394,1194.775z M2381.559,1194.775
						c0-7.138-0.94-13.541-2.818-19.207c-1.878-5.667-4.588-10.488-8.125-14.465c-3.537-3.976-7.827-7.012-12.867-9.111
						c-5.041-2.096-10.754-3.145-17.143-3.145c-6.386,0-12.116,1.049-17.189,3.145c-5.071,2.1-9.378,5.136-12.914,9.111
						c-3.539,3.977-6.248,8.799-8.125,14.465c-1.878,5.667-2.818,12.07-2.818,19.207c0,7.202,0.94,13.635,2.818,19.302
						c1.878,5.668,4.586,10.473,8.125,14.417c3.536,3.946,7.843,6.967,12.914,9.065c5.073,2.098,10.802,3.147,17.189,3.147
						c6.388,0,12.101-1.049,17.143-3.147c5.04-2.098,9.33-5.119,12.867-9.065c3.537-3.944,6.248-8.749,8.125-14.417
						C2380.619,1208.41,2381.559,1201.977,2381.559,1194.775z"/>
					<path style="fill:#FFFFFF;" d="M2562.741,1194.775c0,9.957-1.676,19.194-5.025,27.708c-3.35,8.517-8.077,15.874-14.183,22.073
						c-6.105,6.199-13.448,11.069-22.027,14.606c-8.579,3.537-18.097,5.306-28.554,5.306c-10.458,0-19.975-1.769-28.554-5.306
						c-8.579-3.537-15.937-8.407-22.073-14.606c-6.137-6.199-10.88-13.556-14.229-22.073c-3.35-8.514-5.025-17.751-5.025-27.708
						s1.674-19.176,5.025-27.662c3.349-8.484,8.092-15.826,14.229-22.025c6.136-6.2,13.494-11.067,22.073-14.606
						c8.579-3.537,18.095-5.306,28.554-5.306c10.457,0,19.975,1.769,28.554,5.306c8.579,3.539,15.922,8.423,22.027,14.652
						c6.105,6.233,10.832,13.589,14.183,22.073C2561.065,1175.693,2562.741,1184.883,2562.741,1194.775z M2533.906,1194.775
						c0-7.138-0.94-13.541-2.818-19.207c-1.878-5.667-4.588-10.488-8.125-14.465c-3.537-3.976-7.828-7.012-12.867-9.111
						c-5.041-2.096-10.754-3.145-17.143-3.145c-6.386,0-12.116,1.049-17.189,3.145c-5.071,2.1-9.378,5.136-12.913,9.111
						c-3.539,3.977-6.248,8.799-8.125,14.465s-2.818,12.07-2.818,19.207c0,7.202,0.94,13.635,2.818,19.302
						c1.878,5.668,4.586,10.473,8.125,14.417c3.536,3.946,7.842,6.967,12.913,9.065c5.073,2.098,10.802,3.147,17.189,3.147
						c6.388,0,12.101-1.049,17.143-3.147c5.04-2.098,9.33-5.119,12.867-9.065c3.537-3.944,6.248-8.749,8.125-14.417
						C2532.966,1208.41,2533.906,1201.977,2533.906,1194.775z"/>
					<path style="fill:#FFFFFF;" d="M2664.276,1240.048v22.918h-80.871v-136.288h28.178v113.37H2664.276z"/>
				</g>
			</g>
		</g>
	</g>
</g>
</svg>
