<?xml version="1.0" encoding="utf-8"?>
<!-- Generator: Adobe Illustrator 27.5.0, SVG Export Plug-In . SVG Version: 6.00 Build 0)  -->
<svg version="1.1" xmlns="http://www.w3.org/2000/svg" xmlns:xlink="http://www.w3.org/1999/xlink" x="0px" y="0px"
	 viewBox="0 0 650 500" style="enable-background:new 0 0 650 500;" xml:space="preserve">
<g id="BACKGROUND">
	<g id="XMLID_23_">
		<rect id="XMLID_24_" y="0" style="fill:#FFFFFF;" width="650" height="500"/>
	</g>
</g>
<g id="OBJECTS">
	<g id="XMLID_2_">
		<g id="XMLID_181_">
			
				<linearGradient id="XMLID_00000015339930871219139660000017697245725481133474_" gradientUnits="userSpaceOnUse" x1="310.5665" y1="-15951.1416" x2="310.5665" y2="-16332.5029" gradientTransform="matrix(1 0 0 -1 0 -15881.8896)">
				<stop  offset="0" style="stop-color:#DFEDF2"/>
				<stop  offset="1" style="stop-color:#E8F8FF"/>
			</linearGradient>
			<path id="XMLID_226_" style="fill:url(#XMLID_00000015339930871219139660000017697245725481133474_);" d="M310.566,71.404
				c-140.593,0-254.571,113.977-254.571,254.571c0,41.352,9.862,80.407,27.361,114.929h454.419
				c17.499-34.522,27.361-73.577,27.361-114.929C565.137,185.381,451.16,71.404,310.566,71.404z"/>
			
				<linearGradient id="XMLID_00000174592623659914459480000017751274249456802727_" gradientUnits="userSpaceOnUse" x1="139.3651" y1="-15622.5674" x2="139.3651" y2="-16003.9297" gradientTransform="matrix(1 0 0 -1 0 -15881.8896)">
				<stop  offset="0" style="stop-color:#DFEDF2"/>
				<stop  offset="1" style="stop-color:#E8F8FF"/>
			</linearGradient>
			
				<circle id="XMLID_225_" style="fill:url(#XMLID_00000174592623659914459480000017751274249456802727_);" cx="139.365" cy="91.866" r="19.108"/>
			
				<linearGradient id="XMLID_00000165223043670335242620000006630099160011926419_" gradientUnits="userSpaceOnUse" x1="595.3652" y1="-16188.3604" x2="595.3652" y2="-16569.7227" gradientTransform="matrix(1 0 0 -1 0 -15881.8896)">
				<stop  offset="0" style="stop-color:#DFEDF2"/>
				<stop  offset="1" style="stop-color:#E8F8FF"/>
			</linearGradient>
			
				<circle id="XMLID_219_" style="fill:url(#XMLID_00000165223043670335242620000006630099160011926419_);" cx="595.365" cy="374.763" r="11.201"/>
			
				<linearGradient id="XMLID_00000103959865600264806080000004047446668721359803_" gradientUnits="userSpaceOnUse" x1="509.1064" y1="-15975.1289" x2="509.1064" y2="-16154.3037" gradientTransform="matrix(1 0 0 -1 0 -15881.8896)">
				<stop  offset="0" style="stop-color:#DFEDF2"/>
				<stop  offset="1" style="stop-color:#E8F8FF"/>
			</linearGradient>
			<path id="XMLID_47_" style="fill:url(#XMLID_00000103959865600264806080000004047446668721359803_);" d="M514.369,125.325
				c0,2.907-2.356,5.263-5.263,5.263c-2.906,0-5.263-2.356-5.263-5.263c0-2.906,2.356-5.263,5.263-5.263
				C512.013,120.062,514.369,122.418,514.369,125.325z"/>
			
				<ellipse id="XMLID_217_" transform="matrix(0.7071 -0.7071 0.7071 0.7071 -11.7703 462.3603)" style="fill:#FFFFFF;" cx="552.233" cy="245.388" rx="18.333" ry="18.333"/>
			<path id="XMLID_215_" style="fill:#FFFFFF;" d="M89.002,415.852c0,8.244-6.683,14.927-14.926,14.927
				c-8.244,0-14.926-6.683-14.926-14.927c0-8.243,6.682-14.926,14.926-14.926C82.32,400.926,89.002,407.609,89.002,415.852z"/>
			
				<ellipse id="XMLID_210_" transform="matrix(0.9013 -0.4332 0.4332 0.9013 -77.3751 58.537)" style="fill:#FFFFFF;" cx="89.774" cy="199.071" rx="26.052" ry="26.052"/>
			<g id="XMLID_53_">
				
					<line id="XMLID_54_" style="fill:none;stroke:#FFFFFF;stroke-linecap:round;stroke-miterlimit:10;" x1="85.002" y1="237.144" x2="182.006" y2="237.144"/>
				
					<line id="XMLID_55_" style="fill:none;stroke:#FFFFFF;stroke-linecap:round;stroke-miterlimit:10;" x1="525.096" y1="340.187" x2="622.1" y2="340.187"/>
				
					<line id="XMLID_56_" style="fill:none;stroke:#FFFFFF;stroke-linecap:round;stroke-miterlimit:10;" x1="362.448" y1="106.388" x2="459.453" y2="106.388"/>
			</g>
			<g id="XMLID_17_">
				<path id="XMLID_52_" style="fill:#FFFFFF;" d="M97.202,376.894h-3.707v-3.707c0-0.541-0.439-0.98-0.98-0.98
					c-0.541,0-0.98,0.439-0.98,0.98v3.707h-3.707c-0.541,0-0.98,0.439-0.98,0.98c0,0.541,0.439,0.98,0.98,0.98h3.707v3.707
					c0,0.541,0.439,0.98,0.98,0.98c0.541,0,0.98-0.439,0.98-0.98v-3.707h3.707c0.541,0,0.98-0.439,0.98-0.98
					C98.182,377.332,97.743,376.894,97.202,376.894z"/>
				<path id="XMLID_50_" style="fill:#FFFFFF;" d="M532.231,223.175h-5.643v-5.643c0-0.824-0.668-1.492-1.492-1.492
					s-1.492,0.668-1.492,1.492v5.643h-5.643c-0.824,0-1.492,0.668-1.492,1.492c0,0.824,0.668,1.492,1.492,1.492h5.643v5.643
					c0,0.824,0.668,1.492,1.492,1.492s1.492-0.668,1.492-1.492v-5.643h5.643c0.824,0,1.492-0.668,1.492-1.492
					C533.722,223.843,533.054,223.175,532.231,223.175z"/>
				<path id="XMLID_46_" style="fill:#FFFFFF;" d="M137.859,189.144h-3.444V185.7c0-0.503-0.408-0.91-0.91-0.91
					c-0.503,0-0.91,0.408-0.91,0.91v3.444h-3.444c-0.503,0-0.91,0.408-0.91,0.91c0,0.503,0.408,0.91,0.91,0.91h3.444v3.444
					c0,0.503,0.408,0.91,0.91,0.91c0.503,0,0.91-0.408,0.91-0.91v-3.444h3.444c0.503,0,0.91-0.408,0.91-0.91
					C138.769,189.552,138.361,189.144,137.859,189.144z"/>
				
					<linearGradient id="XMLID_00000015321868244893078750000016172046501014266539_" gradientUnits="userSpaceOnUse" x1="559.8187" y1="-16303.4209" x2="574.5688" y2="-16287.6709" gradientTransform="matrix(1 0 0 -1 0 -15881.8896)">
					<stop  offset="0" style="stop-color:#DFEDF2"/>
					<stop  offset="1" style="stop-color:#E8F8FF"/>
				</linearGradient>
				<path id="XMLID_51_" style="fill:url(#XMLID_00000015321868244893078750000016172046501014266539_);" d="M569.824,414.872
					h-3.707v-3.707c0-0.541-0.439-0.98-0.98-0.98c-0.541,0-0.98,0.439-0.98,0.98v3.707h-3.707c-0.541,0-0.98,0.439-0.98,0.98
					s0.439,0.98,0.98,0.98h3.707v3.707c0,0.541,0.439,0.98,0.98,0.98c0.541,0,0.98-0.439,0.98-0.98v-3.707h3.707
					c0.541,0,0.98-0.439,0.98-0.98S570.365,414.872,569.824,414.872z"/>
			</g>
			<g id="XMLID_1_">
				<polygon id="XMLID_43_" style="fill:#FFFFFF;" points="545.142,301.888 538.618,290.588 532.093,301.888 536.519,301.888 
					536.519,320.805 540.716,320.805 540.716,301.888 				"/>
				<polygon id="XMLID_41_" style="fill:#FFFFFF;" points="111.482,403.265 104.958,391.965 98.434,403.265 102.859,403.265 
					102.859,422.182 107.057,422.182 107.057,403.265 				"/>
				<polygon id="XMLID_42_" style="fill:#FFFFFF;" points="286.421,102.58 279.896,91.28 273.372,102.58 277.798,102.58 
					277.798,121.497 281.995,121.497 281.995,102.58 				"/>
				<polygon id="XMLID_44_" style="fill:#FFFFFF;" points="133.59,271.212 129.385,263.929 125.18,271.212 128.033,271.212 
					128.033,283.404 130.738,283.404 130.738,271.212 				"/>
				<path id="XMLID_3_" style="fill:#FFFFFF;" d="M92.515,271.514c-12.854,0-23.312,10.458-23.312,23.311
					c0,12.854,10.458,23.311,23.312,23.311c12.854,0,23.311-10.458,23.311-23.311C115.826,281.972,105.369,271.514,92.515,271.514z
					 M71.201,300.221h6.434c0.465,2.974,1.304,5.728,2.438,8.141h-4.863C73.349,305.989,71.963,303.229,71.201,300.221z
					 M113.829,289.43h-6.434c-0.465-2.974-1.303-5.728-2.437-8.141h4.863C111.681,283.661,113.068,286.422,113.829,289.43z
					 M106.062,289.43h-6.864c-0.194-2.872-0.543-5.656-1.04-8.141h5.356C104.696,283.661,105.577,286.422,106.062,289.43z
					 M106.489,294.825c0,1.391-0.086,2.751-0.244,4.071h-6.969c0.069-1.353,0.104-2.717,0.104-4.071
					c0-1.354-0.035-2.718-0.104-4.071h6.969C106.402,292.075,106.489,293.434,106.489,294.825z M87.076,298.896
					c-0.065-1.307-0.101-2.664-0.101-4.071c0-1.406,0.036-2.763,0.101-4.071h10.878c0.065,1.307,0.101,2.664,0.101,4.071
					c0,1.406-0.036,2.763-0.101,4.071H87.076z M97.877,300.221c-0.205,3.063-0.576,5.809-1.059,8.141h-8.606
					c-0.483-2.332-0.854-5.078-1.059-8.141H97.877z M78.542,294.825c0-1.391,0.086-2.751,0.244-4.071h6.969
					c-0.068,1.353-0.104,2.717-0.104,4.071c0,1.354,0.035,2.718,0.104,4.071h-6.969C78.628,297.576,78.542,296.216,78.542,294.825z
					 M87.153,289.43c0.205-3.064,0.576-5.809,1.059-8.141h8.606c0.483,2.332,0.854,5.078,1.059,8.141H87.153z M97.873,279.964
					c-0.662-2.849-1.538-5.204-2.616-6.698c2.957,0.929,5.58,3.331,7.546,6.698H97.873z M96.52,279.964h-8.01
					c1.083-4.478,2.588-7.125,4.005-7.125S95.437,275.486,96.52,279.964z M87.158,279.964h-4.93
					c1.966-3.367,4.589-5.769,7.546-6.698C88.696,274.76,87.82,277.115,87.158,279.964z M86.872,281.289
					c-0.497,2.485-0.846,5.269-1.04,8.141h-6.864c0.484-3.008,1.366-5.768,2.548-8.141H86.872z M77.635,289.43h-6.434
					c0.762-3.008,2.148-5.768,4.009-8.141h4.863C78.938,283.702,78.1,286.456,77.635,289.43z M77.455,290.755
					c-0.154,1.323-0.238,2.682-0.238,4.071c0,1.389,0.085,2.748,0.238,4.071h-6.543c-0.248-1.32-0.384-2.68-0.384-4.071
					c0-1.391,0.136-2.751,0.384-4.071H77.455z M78.969,300.221h6.864c0.194,2.872,0.543,5.656,1.04,8.141h-5.356
					C80.334,305.989,79.453,303.229,78.969,300.221z M87.158,309.687c0.662,2.849,1.538,5.204,2.617,6.698
					c-2.957-0.929-5.58-3.331-7.546-6.698H87.158z M88.51,309.687h8.01c-1.083,4.478-2.587,7.125-4.005,7.125
					S89.593,314.165,88.51,309.687z M97.873,309.687h4.93c-1.966,3.367-4.589,5.769-7.546,6.698
					C96.335,314.891,97.211,312.536,97.873,309.687z M98.158,308.362c0.497-2.486,0.846-5.269,1.04-8.141h6.864
					c-0.484,3.008-1.365,5.768-2.548,8.141H98.158z M107.395,300.221h6.434c-0.762,3.008-2.148,5.768-4.008,8.141h-4.863
					C106.092,305.949,106.931,303.195,107.395,300.221z M107.575,298.896c0.154-1.323,0.238-2.682,0.238-4.071
					c0-1.389-0.085-2.748-0.238-4.071h6.543c0.248,1.32,0.384,2.68,0.384,4.071c0,1.391-0.136,2.751-0.384,4.071H107.575z
					 M108.701,279.964h-4.409c-1.376-2.528-3.096-4.605-5.048-6.068C102.908,275.076,106.155,277.192,108.701,279.964z
					 M85.787,273.896c-1.952,1.463-3.672,3.54-5.049,6.068h-4.409C78.876,277.192,82.123,275.076,85.787,273.896z M76.329,309.687
					h4.409c1.376,2.528,3.096,4.605,5.049,6.068C82.123,314.574,78.876,312.458,76.329,309.687z M99.244,315.755
					c1.952-1.463,3.672-3.54,5.048-6.068h4.409C106.155,312.458,102.908,314.574,99.244,315.755z"/>
			</g>
		</g>
		<g id="XMLID_63_">
			
				<linearGradient id="XMLID_00000023263510533838645530000001468498221648777873_" gradientUnits="userSpaceOnUse" x1="437.233" y1="204.3513" x2="340.5664" y2="109.6847">
				<stop  offset="0" style="stop-color:#3949B2"/>
				<stop  offset="1" style="stop-color:#5CA5F7"/>
			</linearGradient>
			<path id="XMLID_297_" style="fill:url(#XMLID_00000023263510533838645530000001468498221648777873_);" d="M427.461,159.889
				v-10.031c0-0.981-0.795-1.777-1.777-1.777h-2.582c-0.756,0-1.425-0.514-1.594-1.251c-0.894-3.895-2.416-7.55-4.469-10.845
				c-0.41-0.658-0.332-1.505,0.216-2.053l1.816-1.816c0.694-0.694,0.694-1.819,0-2.512l-7.092-7.093
				c-0.694-0.694-1.819-0.694-2.513,0l-1.813,1.813c-0.548,0.548-1.396,0.625-2.053,0.215c-3.294-2.054-6.95-3.578-10.847-4.473
				c-0.737-0.169-1.25-0.838-1.25-1.594V115.9c0-0.981-0.795-1.777-1.777-1.777h-10.031c-0.981,0-1.777,0.796-1.777,1.777v2.574
				c0,0.756-0.514,1.425-1.25,1.594c-3.898,0.894-7.555,2.418-10.849,4.472c-0.657,0.41-1.505,0.332-2.053-0.215l-1.811-1.812
				c-0.694-0.694-1.819-0.694-2.513,0l-7.092,7.093c-0.694,0.694-0.694,1.819,0,2.512l1.814,1.813
				c0.548,0.548,0.625,1.395,0.216,2.053c-2.053,3.295-3.575,6.951-4.469,10.847c-0.169,0.737-0.838,1.25-1.594,1.25h-2.579
				c-0.981,0-1.777,0.795-1.777,1.777v10.031c0,0.981,0.795,1.777,1.777,1.777h2.58c0.756,0,1.424,0.513,1.594,1.25
				c0.895,3.896,2.418,7.552,4.471,10.845c0.41,0.657,0.332,1.505-0.216,2.053l-1.816,1.816c-0.694,0.694-0.694,1.819,0,2.512
				l7.092,7.093c0.694,0.694,1.819,0.694,2.513,0l1.818-1.818c0.548-0.548,1.395-0.625,2.053-0.216
				c3.293,2.051,6.948,3.571,10.843,4.465c0.737,0.169,1.25,0.838,1.25,1.594v2.587c0,0.981,0.796,1.777,1.777,1.777h10.031
				c0.981,0,1.777-0.795,1.777-1.777v-2.588c0-0.756,0.514-1.425,1.251-1.594c3.895-0.893,7.549-2.415,10.842-4.465
				c0.657-0.41,1.505-0.332,2.053,0.216l1.819,1.819c0.694,0.694,1.819,0.694,2.513,0l7.092-7.093c0.694-0.694,0.694-1.819,0-2.512
				l-1.817-1.817c-0.548-0.548-0.626-1.396-0.216-2.053c2.052-3.293,3.575-6.948,4.469-10.843c0.169-0.737,0.838-1.25,1.594-1.25
				h2.583C426.666,161.666,427.461,160.871,427.461,159.889z M386.709,178.385c-12.985,0-23.496-10.532-23.496-23.518
				c0-12.965,10.512-23.498,23.496-23.498c12.985,0,23.497,10.533,23.497,23.498C410.206,167.853,399.694,178.385,386.709,178.385z"
				/>
			<path id="XMLID_298_" style="fill:#FFFFFF;" d="M356.67,124.264v-6.257c0-0.612-0.496-1.108-1.108-1.108h-1.61
				c-0.472,0-0.889-0.32-0.994-0.78c-0.557-2.429-1.507-4.71-2.787-6.764c-0.255-0.41-0.207-0.939,0.134-1.28l1.133-1.133
				c0.433-0.433,0.433-1.134,0-1.567l-4.424-4.424c-0.433-0.433-1.134-0.433-1.567,0l-1.131,1.131
				c-0.342,0.342-0.871,0.39-1.281,0.134c-2.054-1.281-4.335-2.232-6.766-2.79c-0.46-0.106-0.78-0.523-0.78-0.994v-1.605
				c0-0.612-0.496-1.108-1.108-1.108h-6.257c-0.612,0-1.108,0.496-1.108,1.108v1.605c0,0.471-0.32,0.889-0.78,0.994
				c-2.431,0.558-4.712,1.508-6.767,2.79c-0.41,0.256-0.939,0.207-1.281-0.134l-1.13-1.13c-0.433-0.433-1.135-0.433-1.567,0
				l-4.424,4.424c-0.433,0.433-0.433,1.134,0,1.567l1.131,1.131c0.342,0.342,0.39,0.87,0.135,1.28
				c-1.28,2.055-2.23,4.336-2.788,6.766c-0.106,0.46-0.523,0.78-0.994,0.78h-1.609c-0.612,0-1.108,0.496-1.108,1.108v6.257
				c0,0.612,0.496,1.108,1.108,1.108h1.609c0.471,0,0.888,0.32,0.994,0.78c0.559,2.43,1.508,4.71,2.789,6.764
				c0.255,0.41,0.207,0.939-0.135,1.281l-1.133,1.133c-0.433,0.433-0.433,1.134,0,1.567l4.424,4.424
				c0.433,0.433,1.134,0.433,1.567,0l1.134-1.134c0.342-0.342,0.87-0.39,1.28-0.135c2.054,1.279,4.334,2.228,6.763,2.785
				c0.46,0.105,0.78,0.523,0.78,0.994v1.614c0,0.612,0.496,1.108,1.108,1.108h6.257c0.612,0,1.108-0.496,1.108-1.108v-1.614
				c0-0.472,0.32-0.889,0.78-0.994c2.429-0.557,4.709-1.506,6.762-2.785c0.41-0.255,0.939-0.207,1.28,0.134l1.134,1.135
				c0.433,0.433,1.134,0.433,1.567,0l4.424-4.424c0.433-0.433,0.433-1.134,0-1.567l-1.133-1.133c-0.342-0.342-0.39-0.87-0.135-1.281
				c1.28-2.054,2.23-4.333,2.788-6.763c0.105-0.46,0.523-0.78,0.994-0.78h1.611C356.173,125.373,356.67,124.876,356.67,124.264z
				 M331.251,134.134c-7.178,0-12.99-5.823-12.99-13.002c0-7.168,5.811-12.99,12.99-12.99c7.179,0,12.99,5.823,12.99,12.99
				C344.241,128.312,338.43,134.134,331.251,134.134z"/>
		</g>
		<g id="XMLID_36_">
			
				<linearGradient id="XMLID_00000138533274888273860400000017027411901131759797_" gradientUnits="userSpaceOnUse" x1="325" y1="144.0553" x2="325" y2="384.0637">
				<stop  offset="0" style="stop-color:#CBE1F2"/>
				<stop  offset="1" style="stop-color:#AED2ED"/>
			</linearGradient>
			<path id="XMLID_20_" style="fill:url(#XMLID_00000138533274888273860400000017027411901131759797_);" d="M475.697,390.694
				H174.303c-11.452,0-20.735-9.284-20.735-20.735V175.623c0-11.452,9.284-20.735,20.735-20.735h301.394
				c11.452,0,20.735,9.284,20.735,20.735v194.336C496.432,381.411,487.149,390.694,475.697,390.694z"/>
			<path id="XMLID_255_" style="fill:#FFFFFF;" d="M488.025,176.528v174.946c0,3.212-2.603,5.815-5.815,5.815H167.799
				c-3.212,0-5.815-2.603-5.815-5.815V176.528c0-7.679,6.225-13.904,13.904-13.904h298.234
				C481.8,162.624,488.025,168.849,488.025,176.528z"/>
			
				<linearGradient id="XMLID_00000140001674801364527410000004612736262505850291_" gradientUnits="userSpaceOnUse" x1="324.9989" y1="380.5552" x2="324.9989" y2="436.0577">
				<stop  offset="0" style="stop-color:#CBE1F2"/>
				<stop  offset="1" style="stop-color:#AED2ED"/>
			</linearGradient>
			<polygon id="XMLID_15_" style="fill:url(#XMLID_00000140001674801364527410000004612736262505850291_);" points="
				357.709,441.007 292.289,441.007 299.159,401.137 300.959,390.697 349.039,390.697 350.839,401.137 			"/>
			
				<linearGradient id="XMLID_00000085238188217121485310000004221219762978749838_" gradientUnits="userSpaceOnUse" x1="299.1589" y1="-16277.8066" x2="350.8389" y2="-16277.8066" gradientTransform="matrix(1 0 0 -1 0 -15881.8896)">
				<stop  offset="0" style="stop-color:#CBE1F2"/>
				<stop  offset="1" style="stop-color:#AED2ED"/>
			</linearGradient>
			<polygon id="XMLID_9_" style="fill:url(#XMLID_00000085238188217121485310000004221219762978749838_);" points="350.839,401.137 
				299.159,401.137 300.959,390.697 349.039,390.697 			"/>
			
				<linearGradient id="XMLID_00000147932759221774538890000003114789121122817932_" gradientUnits="userSpaceOnUse" x1="324.9999" y1="426.5552" x2="324.9999" y2="443.5846">
				<stop  offset="0" style="stop-color:#CBE1F2"/>
				<stop  offset="1" style="stop-color:#AED2ED"/>
			</linearGradient>
			
				<rect id="XMLID_57_" x="270.615" y="432.437" style="fill:url(#XMLID_00000147932759221774538890000003114789121122817932_);" width="108.771" height="8.572"/>
			
				<linearGradient id="XMLID_00000020392342908040342940000012888758091611431321_" gradientUnits="userSpaceOnUse" x1="222.9938" y1="261.3487" x2="427.0061" y2="261.3487">
				<stop  offset="0" style="stop-color:#71D2F9"/>
				<stop  offset="1" style="stop-color:#51B9F8"/>
			</linearGradient>
			
				<path id="XMLID_34_" style="fill:none;stroke:url(#XMLID_00000020392342908040342940000012888758091611431321_);stroke-width:1.0981;stroke-linecap:round;stroke-miterlimit:10;" d="
				M415.169,305.993H234.831c-6.234,0-11.288-5.054-11.288-11.288v-66.711c0-6.234,5.054-11.288,11.288-11.288h180.338
				c6.234,0,11.288,5.054,11.288,11.288v66.711C426.457,300.939,421.403,305.993,415.169,305.993z"/>
		</g>
		<g id="XMLID_185_">
			
				<linearGradient id="XMLID_00000005244576369899081370000017626852342169539770_" gradientUnits="userSpaceOnUse" x1="145.5103" y1="330.093" x2="145.5103" y2="425.7111">
				<stop  offset="0" style="stop-color:#71D2F9"/>
				<stop  offset="1" style="stop-color:#51B9F8"/>
			</linearGradient>
			<path id="XMLID_168_" style="fill:url(#XMLID_00000005244576369899081370000017626852342169539770_);" d="M168.147,440.542
				h-45.273c-3.096,0-5.605-2.509-5.605-5.605v-91.978c0-3.096,2.509-5.605,5.605-5.605h45.273c3.096,0,5.605,2.509,5.605,5.605
				v91.978C173.752,438.033,171.242,440.542,168.147,440.542z"/>
			<path id="XMLID_175_" style="fill:#FFFFFF;" d="M168.177,426.937h-45.333c-1.616,0-2.925-1.31-2.925-2.925v-77.316
				c0-1.616,1.31-2.925,2.925-2.925h45.333c1.616,0,2.925,1.31,2.925,2.925v77.316C171.102,425.628,169.792,426.937,168.177,426.937
				z"/>
			
				<linearGradient id="XMLID_00000019675995510103531450000000051534548720189112_" gradientUnits="userSpaceOnUse" x1="145.5103" y1="439.4165" x2="145.5103" y2="427.6531">
				<stop  offset="0" style="stop-color:#CBE1F2"/>
				<stop  offset="1" style="stop-color:#AED2ED"/>
			</linearGradient>
			<path id="XMLID_176_" style="fill:url(#XMLID_00000019675995510103531450000000051534548720189112_);" d="M150.936,433.854
				c0,2.996-2.429,5.425-5.425,5.425c-2.996,0-5.425-2.429-5.425-5.425c0-2.996,2.429-5.425,5.425-5.425
				C148.507,428.429,150.936,430.858,150.936,433.854z"/>
			<path id="XMLID_178_" style="fill:#FFFFFF;" d="M150.186,433.854c0,2.582-2.093,4.675-4.675,4.675
				c-2.582,0-4.675-2.093-4.675-4.675c0-2.582,2.093-4.675,4.675-4.675C148.092,429.179,150.186,431.272,150.186,433.854z"/>
			
				<linearGradient id="XMLID_00000021840044695243776960000016632072884981466033_" gradientUnits="userSpaceOnUse" x1="145.5103" y1="433.9359" x2="145.5103" y2="313.8814">
				<stop  offset="0" style="stop-color:#DFEDF2"/>
				<stop  offset="1" style="stop-color:#E8F8FF"/>
			</linearGradient>
			<path id="XMLID_182_" style="fill:url(#XMLID_00000021840044695243776960000016632072884981466033_);" d="M152.427,341.812
				h-13.833c-0.575,0-1.042-0.466-1.042-1.042l0,0c0-0.575,0.466-1.042,1.042-1.042h13.833c0.575,0,1.042,0.466,1.042,1.042l0,0
				C153.469,341.346,153.002,341.812,152.427,341.812z"/>
			
				<linearGradient id="XMLID_00000174570660972056885860000015986879687277686673_" gradientUnits="userSpaceOnUse" x1="156.0605" y1="433.9359" x2="156.0605" y2="313.8814">
				<stop  offset="0" style="stop-color:#DFEDF2"/>
				<stop  offset="1" style="stop-color:#E8F8FF"/>
			</linearGradient>
			<path id="XMLID_184_" style="fill:url(#XMLID_00000174570660972056885860000015986879687277686673_);" d="M157.102,340.771
				c0,0.575-0.466,1.042-1.042,1.042c-0.575,0-1.042-0.466-1.042-1.042c0-0.575,0.466-1.042,1.042-1.042
				C156.636,339.729,157.102,340.195,157.102,340.771z"/>
			
				<linearGradient id="XMLID_00000178180861704844682250000000639455064327735942_" gradientUnits="userSpaceOnUse" x1="145.5103" y1="407.8541" x2="145.5103" y2="357.0542">
				<stop  offset="0" style="stop-color:#DFEDF2"/>
				<stop  offset="1" style="stop-color:#E8F8FF"/>
			</linearGradient>
			
				<circle id="XMLID_199_" style="fill:url(#XMLID_00000178180861704844682250000000639455064327735942_);" cx="145.51" cy="385.354" r="16.125"/>
			
				<linearGradient id="XMLID_00000166673059060182440540000003801255402423712948_" gradientUnits="userSpaceOnUse" x1="145.2498" y1="404.104" x2="145.2498" y2="332.3264">
				<stop  offset="0" style="stop-color:#283770"/>
				<stop  offset="1" style="stop-color:#141A5A"/>
			</linearGradient>
			<path id="XMLID_256_" style="fill:url(#XMLID_00000166673059060182440540000003801255402423712948_);" d="M145.51,390.948
				c-0.514,0-1.012-0.198-1.387-0.56l-14.741-14.192c-0.795-0.766-0.82-2.032-0.054-2.827c0.766-0.798,2.032-0.82,2.828-0.054
				l12.947,12.465l12.921-21.118c0.577-0.941,1.807-1.237,2.75-0.662c0.942,0.576,1.239,1.808,0.662,2.75l-14.22,23.242
				c-0.316,0.517-0.85,0.862-1.452,0.94C145.68,390.943,145.595,390.948,145.51,390.948z"/>
		</g>
		
			<linearGradient id="XMLID_00000055691164963278355870000006664646595698357937_" gradientUnits="userSpaceOnUse" x1="479.7664" y1="359.0552" x2="479.7664" y2="430.5552">
			<stop  offset="0" style="stop-color:#71D2F9"/>
			<stop  offset="1" style="stop-color:#51B9F8"/>
		</linearGradient>
		<path id="XMLID_179_" style="fill:url(#XMLID_00000055691164963278355870000006664646595698357937_);" d="M518.766,396.609
			c-0.326,0-0.65,0.01-0.973,0.025c0-0.008,0.001-0.016,0.001-0.025c0-16.37-13.27-29.64-29.64-29.64
			c-13.396,0-24.712,8.89-28.382,21.09c-1.277-0.415-2.636-0.646-4.052-0.646c-5.924,0-10.925,3.933-12.547,9.329
			c-0.791-0.086-1.593-0.134-2.407-0.134c-12.123,0-21.95,9.827-21.95,21.95s9.827,21.95,21.95,21.95h78
			c12.123,0,21.95-9.827,21.95-21.95S530.889,396.609,518.766,396.609z"/>
		<g id="XMLID_305_">
			<path id="XMLID_304_" style="fill:#FFFFFF;" d="M213.027,129.339c-0.326,0-0.65,0.01-0.973,0.025
				c0-0.008,0.001-0.016,0.001-0.025c0-16.37-13.27-29.64-29.64-29.64c-13.396,0-24.712,8.89-28.382,21.09
				c-1.277-0.415-2.636-0.646-4.051-0.646c-5.924,0-10.925,3.933-12.547,9.329c-0.791-0.086-1.593-0.134-2.407-0.134
				c-12.123,0-21.95,9.827-21.95,21.95c0,12.123,9.827,21.95,21.95,21.95h78c12.123,0,21.95-9.827,21.95-21.95
				C234.977,139.167,225.15,129.339,213.027,129.339z"/>
			
				<linearGradient id="XMLID_00000181790355467840409240000001224124315523438263_" gradientUnits="userSpaceOnUse" x1="112.0774" y1="136.4692" x2="235.9772" y2="136.4692">
				<stop  offset="0" style="stop-color:#71D2F9"/>
				<stop  offset="1" style="stop-color:#51B9F8"/>
			</linearGradient>
			
				<path id="XMLID_288_" style="fill:none;stroke:url(#XMLID_00000181790355467840409240000001224124315523438263_);stroke-width:2;stroke-linecap:round;stroke-linejoin:round;stroke-miterlimit:10;" d="
				M213.027,129.339c-0.326,0-0.65,0.01-0.973,0.025c0-0.008,0.001-0.016,0.001-0.025c0-16.37-13.27-29.64-29.64-29.64
				c-13.396,0-24.712,8.89-28.382,21.09c-1.277-0.415-2.636-0.646-4.051-0.646c-5.924,0-10.925,3.933-12.547,9.329
				c-0.791-0.086-1.593-0.134-2.407-0.134c-12.123,0-21.95,9.827-21.95,21.95c0,12.123,9.827,21.95,21.95,21.95h78
				c12.123,0,21.95-9.827,21.95-21.95C234.977,139.167,225.15,129.339,213.027,129.339z"/>
		</g>
		<g id="XMLID_45_">
			<g id="XMLID_282_">
				<g id="XMLID_187_">
					<g id="XMLID_70_">
						
							<linearGradient id="XMLID_00000005267740326754075850000012457918272150423224_" gradientUnits="userSpaceOnUse" x1="145.0103" y1="329.8052" x2="224.0428" y2="329.8052">
							<stop  offset="0" style="stop-color:#71D2F9"/>
							<stop  offset="1" style="stop-color:#51B9F8"/>
						</linearGradient>
						
							<line id="XMLID_75_" style="fill:none;stroke:url(#XMLID_00000005267740326754075850000012457918272150423224_);stroke-linecap:round;stroke-miterlimit:10;" x1="145.51" y1="330.555" x2="145.51" y2="329.055"/>
						
							<linearGradient id="XMLID_00000122698749519997921780000016401781723897549193_" gradientUnits="userSpaceOnUse" x1="145.0103" y1="294.9785" x2="224.0428" y2="294.9785">
							<stop  offset="0" style="stop-color:#71D2F9"/>
							<stop  offset="1" style="stop-color:#51B9F8"/>
						</linearGradient>
						
							<path id="XMLID_73_" style="fill:none;stroke:url(#XMLID_00000122698749519997921780000016401781723897549193_);stroke-linecap:round;stroke-miterlimit:10;stroke-dasharray:3.0268,3.0268;" d="
							M145.51,326.028v-49.407c0-7.01,5.683-12.693,12.693-12.693h62.327"/>
						
							<linearGradient id="XMLID_00000042723466711974472060000013940917656762384283_" gradientUnits="userSpaceOnUse" x1="145.0103" y1="263.9286" x2="224.0428" y2="263.9286">
							<stop  offset="0" style="stop-color:#71D2F9"/>
							<stop  offset="1" style="stop-color:#51B9F8"/>
						</linearGradient>
						
							<line id="XMLID_71_" style="fill:none;stroke:url(#XMLID_00000042723466711974472060000013940917656762384283_);stroke-linecap:round;stroke-miterlimit:10;" x1="222.043" y1="263.929" x2="223.543" y2="263.929"/>
					</g>
				</g>
				
					<linearGradient id="XMLID_00000023991290079135716130000010797464269931187856_" gradientUnits="userSpaceOnUse" x1="220.9417" y1="263.7215" x2="226.1439" y2="263.7215">
					<stop  offset="0" style="stop-color:#71D2F9"/>
					<stop  offset="1" style="stop-color:#51B9F8"/>
				</linearGradient>
				
					<circle id="XMLID_193_" style="fill:url(#XMLID_00000023991290079135716130000010797464269931187856_);" cx="223.543" cy="263.721" r="2.601"/>
				
					<linearGradient id="XMLID_00000173869533090787801970000007977458009582466488_" gradientUnits="userSpaceOnUse" x1="141.6353" y1="330.5552" x2="149.3853" y2="330.5552">
					<stop  offset="0" style="stop-color:#71D2F9"/>
					<stop  offset="1" style="stop-color:#51B9F8"/>
				</linearGradient>
				
					<circle id="XMLID_195_" style="fill:url(#XMLID_00000173869533090787801970000007977458009582466488_);" cx="145.51" cy="330.555" r="3.875"/>
			</g>
			<g id="XMLID_310_">
				<g id="XMLID_317_">
					<g id="XMLID_585_">
						
							<linearGradient id="XMLID_00000016066982373131487650000010214978707979236265_" gradientUnits="userSpaceOnUse" x1="243.2256" y1="142.2376" x2="243.2256" y2="217.2046">
							<stop  offset="0" style="stop-color:#71D2F9"/>
							<stop  offset="1" style="stop-color:#51B9F8"/>
						</linearGradient>
						
							<line id="XMLID_588_" style="fill:none;stroke:url(#XMLID_00000016066982373131487650000010214978707979236265_);stroke-linecap:round;stroke-miterlimit:10;" x1="242.476" y1="142.738" x2="243.976" y2="142.738"/>
						
							<linearGradient id="XMLID_00000064326449688248043540000014424567530139851708_" gradientUnits="userSpaceOnUse" x1="275.6025" y1="142.2376" x2="275.6025" y2="217.2045">
							<stop  offset="0" style="stop-color:#71D2F9"/>
							<stop  offset="1" style="stop-color:#51B9F8"/>
						</linearGradient>
						
							<path id="XMLID_587_" style="fill:none;stroke:url(#XMLID_00000064326449688248043540000014424567530139851708_);stroke-linecap:round;stroke-miterlimit:10;stroke-dasharray:2.9606,2.9606;" d="
							M246.936,142.738h44.64c7.01,0,12.693,5.683,12.693,12.693v58.294"/>
						
							<linearGradient id="XMLID_00000012451106316886715020000014714011519135648667_" gradientUnits="userSpaceOnUse" x1="304.2689" y1="142.2376" x2="304.2689" y2="217.2046">
							<stop  offset="0" style="stop-color:#71D2F9"/>
							<stop  offset="1" style="stop-color:#51B9F8"/>
						</linearGradient>
						
							<line id="XMLID_586_" style="fill:none;stroke:url(#XMLID_00000012451106316886715020000014714011519135648667_);stroke-linecap:round;stroke-miterlimit:10;" x1="304.269" y1="215.205" x2="304.269" y2="216.705"/>
					</g>
				</g>
				
					<linearGradient id="XMLID_00000155837341155649517790000015689024548421640322_" gradientUnits="userSpaceOnUse" x1="214.9222" y1="139.3669" x2="220.1244" y2="139.3669" gradientTransform="matrix(0 1 -1 0 443.6358 -0.8187)">
					<stop  offset="0" style="stop-color:#71D2F9"/>
					<stop  offset="1" style="stop-color:#51B9F8"/>
				</linearGradient>
				
					<circle id="XMLID_315_" style="fill:url(#XMLID_00000155837341155649517790000015689024548421640322_);" cx="304.269" cy="216.705" r="2.601"/>
				
					<linearGradient id="XMLID_00000142865664264218372040000007786618951758487172_" gradientUnits="userSpaceOnUse" x1="139.6813" y1="201.1602" x2="147.4313" y2="201.1602" gradientTransform="matrix(0 1 -1 0 443.6358 -0.8187)">
					<stop  offset="0" style="stop-color:#71D2F9"/>
					<stop  offset="1" style="stop-color:#51B9F8"/>
				</linearGradient>
				
					<circle id="XMLID_312_" style="fill:url(#XMLID_00000142865664264218372040000007786618951758487172_);" cx="242.476" cy="142.738" r="3.875"/>
			</g>
			<g id="XMLID_552_">
				<g id="XMLID_556_">
					<g id="XMLID_557_">
						
							<linearGradient id="XMLID_00000140708673046993407810000014731437504875937454_" gradientUnits="userSpaceOnUse" x1="247.6746" y1="305.4927" x2="247.6746" y2="391.1437">
							<stop  offset="0" style="stop-color:#71D2F9"/>
							<stop  offset="1" style="stop-color:#51B9F8"/>
						</linearGradient>
						
							<line id="XMLID_590_" style="fill:none;stroke:url(#XMLID_00000140708673046993407810000014731437504875937454_);stroke-linecap:round;stroke-miterlimit:10;" x1="247.675" y1="305.993" x2="247.675" y2="307.493"/>
						
							<linearGradient id="XMLID_00000028315791214126691950000002224669603310526862_" gradientUnits="userSpaceOnUse" x1="247.6746" y1="305.4927" x2="247.6746" y2="391.1441">
							<stop  offset="0" style="stop-color:#71D2F9"/>
							<stop  offset="1" style="stop-color:#51B9F8"/>
						</linearGradient>
						
							<line id="XMLID_589_" style="fill:none;stroke:url(#XMLID_00000028315791214126691950000002224669603310526862_);stroke-linecap:round;stroke-miterlimit:10;stroke-dasharray:3.0241,3.0241;" x1="247.675" y1="310.517" x2="247.675" y2="387.632"/>
						
							<linearGradient id="XMLID_00000121969440063063772060000015654262995088783532_" gradientUnits="userSpaceOnUse" x1="247.6746" y1="305.4928" x2="247.6746" y2="391.1438">
							<stop  offset="0" style="stop-color:#71D2F9"/>
							<stop  offset="1" style="stop-color:#51B9F8"/>
						</linearGradient>
						
							<line id="XMLID_558_" style="fill:none;stroke:url(#XMLID_00000121969440063063772060000015654262995088783532_);stroke-linecap:round;stroke-miterlimit:10;" x1="247.675" y1="389.144" x2="247.675" y2="390.644"/>
					</g>
				</g>
				
					<linearGradient id="XMLID_00000024714165084951025410000004861050847535374768_" gradientUnits="userSpaceOnUse" x1="387.5875" y1="195.7541" x2="395.3375" y2="195.7541" gradientTransform="matrix(0 1 -1 0 443.6358 -0.8187)">
					<stop  offset="0" style="stop-color:#71D2F9"/>
					<stop  offset="1" style="stop-color:#51B9F8"/>
				</linearGradient>
				
					<circle id="XMLID_555_" style="fill:url(#XMLID_00000024714165084951025410000004861050847535374768_);" cx="247.882" cy="390.644" r="3.875"/>
				
					<linearGradient id="XMLID_00000082328140117695536460000012734701219923512207_" gradientUnits="userSpaceOnUse" x1="304.2103" y1="195.9612" x2="309.4125" y2="195.9612" gradientTransform="matrix(0 1 -1 0 443.6358 -0.8187)">
					<stop  offset="0" style="stop-color:#71D2F9"/>
					<stop  offset="1" style="stop-color:#51B9F8"/>
				</linearGradient>
				<path id="XMLID_553_" style="fill:url(#XMLID_00000082328140117695536460000012734701219923512207_);" d="M247.675,308.594
					c-1.436,0-2.601-1.165-2.601-2.601s1.165-2.601,2.601-2.601c1.437,0,2.601,1.165,2.601,2.601S249.111,308.594,247.675,308.594z"
					/>
			</g>
			<g id="XMLID_290_">
				<g id="XMLID_303_">
					<g id="XMLID_580_">
						
							<linearGradient id="XMLID_00000042696867105814278540000007179559861097817244_" gradientUnits="userSpaceOnUse" x1="427.2071" y1="241.5371" x2="427.2071" y2="266.2974">
							<stop  offset="0" style="stop-color:#71D2F9"/>
							<stop  offset="1" style="stop-color:#51B9F8"/>
						</linearGradient>
						
							<line id="XMLID_583_" style="fill:none;stroke:url(#XMLID_00000042696867105814278540000007179559861097817244_);stroke-linecap:round;stroke-miterlimit:10;" x1="426.457" y1="242.037" x2="427.957" y2="242.037"/>
						
							<linearGradient id="XMLID_00000061461377898045930210000004323172525649410692_" gradientUnits="userSpaceOnUse" x1="438.4676" y1="241.5371" x2="438.4676" y2="266.2975">
							<stop  offset="0" style="stop-color:#71D2F9"/>
							<stop  offset="1" style="stop-color:#51B9F8"/>
						</linearGradient>
						
							<path id="XMLID_582_" style="fill:none;stroke:url(#XMLID_00000061461377898045930210000004323172525649410692_);stroke-linecap:round;stroke-miterlimit:10;stroke-dasharray:2.9592,2.9592;" d="
							M430.916,242.037h10.808c2.372,0,4.294,1.923,4.294,4.295v16.486"/>
						
							<linearGradient id="XMLID_00000049222179225004279920000013826346164458617270_" gradientUnits="userSpaceOnUse" x1="446.0189" y1="241.5371" x2="446.0189" y2="266.2974">
							<stop  offset="0" style="stop-color:#71D2F9"/>
							<stop  offset="1" style="stop-color:#51B9F8"/>
						</linearGradient>
						
							<line id="XMLID_581_" style="fill:none;stroke:url(#XMLID_00000049222179225004279920000013826346164458617270_);stroke-linecap:round;stroke-miterlimit:10;" x1="446.019" y1="264.297" x2="446.019" y2="265.797"/>
					</g>
				</g>
				
					<linearGradient id="XMLID_00000062156808000929692490000000287322692984631974_" gradientUnits="userSpaceOnUse" x1="437.0879" y1="274.7289" x2="444.8379" y2="274.7289" gradientTransform="matrix(0 1 -1 0 720.7478 -175.1655)">
					<stop  offset="0" style="stop-color:#71D2F9"/>
					<stop  offset="1" style="stop-color:#51B9F8"/>
				</linearGradient>
				
					<circle id="XMLID_302_" style="fill:url(#XMLID_00000062156808000929692490000000287322692984631974_);" cx="446.019" cy="265.797" r="3.875"/>
				
					<linearGradient id="XMLID_00000049187056161039675950000013382202508823947187_" gradientUnits="userSpaceOnUse" x1="414.6015" y1="294.2907" x2="419.8037" y2="294.2907" gradientTransform="matrix(0 1 -1 0 720.7478 -175.1655)">
					<stop  offset="0" style="stop-color:#71D2F9"/>
					<stop  offset="1" style="stop-color:#51B9F8"/>
				</linearGradient>
				
					<circle id="XMLID_301_" style="fill:url(#XMLID_00000049187056161039675950000013382202508823947187_);" cx="426.457" cy="242.037" r="2.601"/>
			</g>
			<g id="XMLID_284_">
				<g id="XMLID_102_">
					<g id="XMLID_431_">
						
							<linearGradient id="XMLID_00000019650879639766573870000017553121869635079587_" gradientUnits="userSpaceOnUse" x1="381.7689" y1="305.4927" x2="381.7689" y2="419.8885">
							<stop  offset="0" style="stop-color:#71D2F9"/>
							<stop  offset="1" style="stop-color:#51B9F8"/>
						</linearGradient>
						
							<line id="XMLID_435_" style="fill:none;stroke:url(#XMLID_00000019650879639766573870000017553121869635079587_);stroke-linecap:round;stroke-miterlimit:10;" x1="381.769" y1="305.993" x2="381.769" y2="307.493"/>
						
							<linearGradient id="XMLID_00000054249735271086652870000017218147252346366883_" gradientUnits="userSpaceOnUse" x1="395.8842" y1="305.4926" x2="395.8842" y2="419.8889">
							<stop  offset="0" style="stop-color:#71D2F9"/>
							<stop  offset="1" style="stop-color:#51B9F8"/>
						</linearGradient>
						
							<path id="XMLID_434_" style="fill:none;stroke:url(#XMLID_00000054249735271086652870000017218147252346366883_);stroke-linecap:round;stroke-miterlimit:10;stroke-dasharray:3.0389,3.0389;" d="
							M381.769,310.531v97.458c0,6.295,5.103,11.398,11.398,11.398h16.832"/>
						
							<linearGradient id="XMLID_00000137111330725233704860000012009257140718168476_" gradientUnits="userSpaceOnUse" x1="412.2689" y1="305.4927" x2="412.2689" y2="419.8885">
							<stop  offset="0" style="stop-color:#71D2F9"/>
							<stop  offset="1" style="stop-color:#51B9F8"/>
						</linearGradient>
						
							<line id="XMLID_432_" style="fill:none;stroke:url(#XMLID_00000137111330725233704860000012009257140718168476_);stroke-linecap:round;stroke-miterlimit:10;" x1="411.519" y1="419.388" x2="413.019" y2="419.388"/>
					</g>
				</g>
				
					<linearGradient id="XMLID_00000101818424947630986700000000830018659812119998_" gradientUnits="userSpaceOnUse" x1="381.7689" y1="303.3916" x2="381.7689" y2="308.5938">
					<stop  offset="0" style="stop-color:#71D2F9"/>
					<stop  offset="1" style="stop-color:#51B9F8"/>
				</linearGradient>
				
					<circle id="XMLID_103_" style="fill:url(#XMLID_00000101818424947630986700000000830018659812119998_);" cx="381.769" cy="305.993" r="2.601"/>
				
					<linearGradient id="XMLID_00000042699475228029315960000011307161435272323763_" gradientUnits="userSpaceOnUse" x1="413.0189" y1="415.5135" x2="413.0189" y2="423.2635">
					<stop  offset="0" style="stop-color:#71D2F9"/>
					<stop  offset="1" style="stop-color:#51B9F8"/>
				</linearGradient>
				
					<circle id="XMLID_170_" style="fill:url(#XMLID_00000042699475228029315960000011307161435272323763_);" cx="413.019" cy="419.388" r="3.875"/>
			</g>
		</g>
		<g id="XMLID_198_">
			
				<linearGradient id="XMLID_00000117674361447557511900000013940584342182660249_" gradientUnits="userSpaceOnUse" x1="410.798" y1="190.0544" x2="476.1225" y2="190.0544">
				<stop  offset="0" style="stop-color:#71D2F9"/>
				<stop  offset="1" style="stop-color:#51B9F8"/>
			</linearGradient>
			
				<path id="XMLID_188_" style="fill:none;stroke:url(#XMLID_00000117674361447557511900000013940584342182660249_);stroke-linecap:round;stroke-miterlimit:10;stroke-dasharray:5,5;" d="
				M468.197,210.957h-49.473c-4.101,0-7.426-3.325-7.426-7.426v-26.954c0-4.101,3.325-7.426,7.426-7.426h49.473
				c4.101,0,7.426,3.325,7.426,7.426v26.954C475.622,207.633,472.298,210.957,468.197,210.957z"/>
			<g id="XMLID_190_">
				<g id="XMLID_196_">
					
						<linearGradient id="XMLID_00000153701816627523652380000010385770288761050538_" gradientUnits="userSpaceOnUse" x1="445.1336" y1="173.3828" x2="445.1336" y2="203.2884">
						<stop  offset="0" style="stop-color:#71D2F9"/>
						<stop  offset="1" style="stop-color:#51B9F8"/>
					</linearGradient>
					<path id="XMLID_197_" style="fill:url(#XMLID_00000153701816627523652380000010385770288761050538_);" d="M439.307,206.985
						c-0.15,0-0.302-0.026-0.451-0.082c-0.665-0.249-1.004-0.99-0.755-1.656l11.653-31.171c0.249-0.666,0.991-1.005,1.656-0.755
						c0.665,0.249,1.004,0.99,0.755,1.656l-11.653,31.171C440.319,206.665,439.828,206.985,439.307,206.985z"/>
				</g>
				<g id="XMLID_189_">
					
						<linearGradient id="XMLID_00000131341356018311546310000010860507702179373996_" gradientUnits="userSpaceOnUse" x1="430.0514" y1="173.3829" x2="430.0514" y2="203.2883">
						<stop  offset="0" style="stop-color:#71D2F9"/>
						<stop  offset="1" style="stop-color:#51B9F8"/>
					</linearGradient>
					<path id="XMLID_194_" style="fill:url(#XMLID_00000131341356018311546310000010860507702179373996_);" d="M434.548,201.599
						c-0.384,0-0.768-0.147-1.062-0.44l-8.636-8.636c-1.31-1.31-1.31-3.441,0-4.75l8.823-8.823c0.587-0.587,1.537-0.587,2.124,0
						c0.587,0.586,0.587,1.537,0,2.124l-8.823,8.823c-0.139,0.139-0.139,0.364,0,0.503l8.636,8.636c0.587,0.586,0.587,1.538,0,2.124
						C435.316,201.452,434.932,201.599,434.548,201.599z"/>
				</g>
				<g id="XMLID_191_">
					
						<linearGradient id="XMLID_00000017511697347316515560000016920196713811781787_" gradientUnits="userSpaceOnUse" x1="460.2157" y1="173.3829" x2="460.2157" y2="203.2883">
						<stop  offset="0" style="stop-color:#71D2F9"/>
						<stop  offset="1" style="stop-color:#51B9F8"/>
					</linearGradient>
					<path id="XMLID_192_" style="fill:url(#XMLID_00000017511697347316515560000016920196713811781787_);" d="M455.533,201.599
						c-0.384,0-0.768-0.147-1.062-0.44c-0.587-0.586-0.587-1.537,0-2.124l8.823-8.822c0.139-0.139,0.139-0.365,0-0.503l-8.636-8.636
						c-0.587-0.586-0.587-1.537,0-2.124c0.587-0.587,1.537-0.587,2.124,0l8.636,8.636c1.31,1.31,1.31,3.441,0,4.75l-8.823,8.823
						C456.302,201.452,455.917,201.599,455.533,201.599z"/>
				</g>
			</g>
		</g>
		<g id="XMLID_261_">
			<path id="XMLID_332_" style="fill:#283770;" d="M452.898,440.509h12.432h1.754h5.752c0,0,1.738-3.655-0.748-8.184
				c0,0-1.652,1.325-6.602,0.429c0,0-2.065,1.754-3.492,2.44C460.56,435.887,452.345,437.5,452.898,440.509z"/>
			<path id="XMLID_331_" style="fill:#283770;" d="M509.106,431.599c0,0-2.758,1.419-6.643,0.525c0,0-0.377,0.515-0.889,1.916
				c-0.41,1.12-2.872,3.359-3.344,5.776c-0.07,0.359,0.214,0.692,0.579,0.692h11.885c0.276,0,0.516-0.19,0.571-0.461
				C511.513,438.83,511.871,435.362,509.106,431.599z"/>
			<path id="XMLID_275_" style="fill:#FFA49A;" d="M465.486,432.754l-0.235-6.98l7.344,0.156l-0.507,6.395
				C472.088,432.325,470.565,434.14,465.486,432.754z"/>
			<path id="XMLID_278_" style="fill:#FFA49A;" d="M502.463,432.125l-0.743-6.351h7.125l0.261,5.825
				C509.106,431.599,507.206,433.444,502.463,432.125z"/>
			
				<linearGradient id="XMLID_00000084491242155584541770000012735162730585331596_" gradientUnits="userSpaceOnUse" x1="485.7845" y1="321.5552" x2="485.7845" y2="433.8954">
				<stop  offset="0" style="stop-color:#283770"/>
				<stop  offset="1" style="stop-color:#141A5A"/>
			</linearGradient>
			<path id="XMLID_254_" style="fill:url(#XMLID_00000084491242155584541770000012735162730585331596_);" d="M507.569,375.833
				c-1.001-11.946-1.743-26.088-1.55-29.153c0.639-9.905-1.861-24.274-5.796-28.857c0,0-18.368,0.808-26.763,1.278
				c-5.846,0.331-6.1-1.24-6.084-1.617c-0.216,1.371-3.705,23.922-5.961,59.505c-0.062,0.97-0.116,3.658-0.077,4.244
				c0.169,3.889,0.785,11.869,1.54,20.872c0.762,9.003,1.962,27.386,1.962,27.386c1.348,0.208,5.14,0.606,8.151,0.398
				c0,0,1.386-14.814,2.279-21.676c1.394-10.667,0.888-28.844,0.716-31.616c0,0,5.817-21.024,8.027-29.019l1.771,0.478
				c8.947,41.148,15.204,80.346,15.204,80.346c3.225,0.762,6.884,0.53,8.572-0.096C509.561,428.305,512.036,400.171,507.569,375.833
				z"/>
			
				<linearGradient id="XMLID_00000134210907772861895840000004827894813259305605_" gradientUnits="userSpaceOnUse" x1="465.2199" y1="253.0981" x2="465.2199" y2="278.9305">
				<stop  offset="0" style="stop-color:#49A5F7"/>
				<stop  offset="1" style="stop-color:#1C6CEB"/>
			</linearGradient>
			<path id="XMLID_272_" style="fill:url(#XMLID_00000134210907772861895840000004827894813259305605_);" d="M465.824,263.721
				c0,0-2.417,2.646-5.229,15.521h9.25L465.824,263.721z"/>
			
				<linearGradient id="XMLID_00000157277817209752793580000000632430728122871952_" gradientUnits="userSpaceOnUse" x1="484.3578" y1="253.0552" x2="484.3578" y2="317.7434">
				<stop  offset="0" style="stop-color:#49A5F7"/>
				<stop  offset="1" style="stop-color:#1C6CEB"/>
			</linearGradient>
			<path id="XMLID_324_" style="fill:url(#XMLID_00000157277817209752793580000000632430728122871952_);" d="M466.827,318.805
				c0.232,2.537,8.527,3.601,13.936,3.601c6.087,0,16.429-2.639,19.46-4.583c0.758-0.486-0.645-4.857-0.715-12.174
				c-0.093-9.727,1.017-21.398,1.489-22.786c2.073-6.111,3.991-11.348,3.164-16.228c-0.943-1.621-1.98-2.954-3.001-4.037
				c-3.047-3.258-10.837-6.414-11.282-6.554c-0.031-0.008-4.798,0.054-7.931-0.048c-2.787-0.084-3.321-0.163-5.32,0.048
				c-3.22,1.573-8.595,4.363-10.803,7.677c-1.928,2.893-1.876,7.127-0.301,17.571c0.534,3.526,1.505,17.577,1.705,27.919
				C467.338,314.871,466.726,317.703,466.827,318.805z"/>
			<path id="XMLID_323_" style="fill:#FFA49A;" d="M488.157,257.493c-0.481-1.14,0.558-1.633,0.32-3.115
				c-0.818-5.094-0.517-11.691-0.517-11.691l-6.267,5.269l-2.954,2.486c-0.32,1.481-0.842,3.375-1.278,4.91
				c-0.46,1.566,0.119,2.751,0.119,2.751L488.157,257.493z"/>
			<path id="XMLID_322_" style="fill:#FF8189;" d="M485.569,247.96c0,0-2.513,5.55-8.11,7.388c0.441-1.533,0.96-3.424,1.281-4.906
				l2.954-2.487L485.569,247.96z"/>
			<path id="XMLID_321_" style="fill:#FFA49A;" d="M472.102,236.779c0,0-1.184,12.411,2.87,14.669
				c2.225,1.24,6.926,0.763,9.973-2.081c1.337-1.247,2.134-2.963,2.759-4.681c1.016-2.791,2.574-7.97,1.584-11.285
				c-1.306-4.376-13.934-8.101-16.786,0.285C472.278,234.348,472.196,235.973,472.102,236.779z"/>
			<path id="XMLID_320_" style="fill:#1D2D4E;" d="M470.286,231.893c-1.612,1.774-0.079,3.325,2.181,4.124
				c0.855,0.302,1.907,0.53,3.19,0.599c2.475,0.14,5.812-0.296,7.023-0.728c-0.43,1.778-0.165,3.059,0.698,3.699
				c1.002,0.742,4.078,0.749,4.125,1.276c0.235,2.634,0.284,4.704,0.45,7.908l0.541-0.266c0.091-1.078,5.832-13.557,3.913-18.568
				c-1.024-2.674-4.076-1.637-4.076-1.637c-2.283-5.888-15.052-7.528-18.908-3.609C467.037,227.116,469.073,230.248,470.286,231.893
				z"/>
			<path id="XMLID_318_" style="fill:#FFA49A;" d="M485.291,244.595c3.193,1.742,5.184-5.552,1.956-6.369
				c-2.112-0.535-2.601,2.446-2.601,2.446S483.678,243.715,485.291,244.595z"/>
			<path id="XMLID_274_" style="fill:#FFA49A;" d="M514.255,294.576c0,0-0.004-0.004-0.005-0.005
				c-0.005-6.374-4.492-17.375-5.083-18.669c-1.484-3.284-11.827,2.87-11.094,5.277c0.875,2.875,5.169,12.601,5.175,12.617
				c-4.516,1.084-11.93,3.633-16.399,5.149c0,0-2.943,0.818-4.526,0.776c-1.583-0.042-3.75-0.83-4.708-1.061
				c-0.958-0.231-4.443,2.004-5.035,2.352c-0.633,0.373-0.064,1.073,1.118,1c0.535-0.033,1.431-0.279,2.156-0.503
				c-0.593,0.332-1.106,0.62-1.302,0.732c-0.583,0.333-1.743,3.338-1.95,3.674c-0.208,0.335,1.115,0.502,1.761-0.144
				c0.351-0.351,0.879-1.076,1.292-1.669c-0.401,0.862-0.752,1.703-0.853,1.866c-0.208,0.336,0.959,0.398,1.605-0.248
				c0.439-0.439,1.275-1.51,1.772-2.161c-0.324,0.965-0.795,2.469-0.616,2.572c0.265,0.153,0.906-0.016,1.359-0.641
				c0.191-0.264,0.408-0.651,0.598-1.013c0.345,0.211,0.729,0.397,1.166,0.533c2.929,0.917,5.238-1.15,6.931-1.387h0
				c3.207-0.095,8.151-0.248,11.891-0.385c6.191-0.228,9.97-1.465,12.483-2.561C515.137,299.308,514.255,294.576,514.255,294.576z"
				/>
			<path id="XMLID_311_" style="fill:#D99490;" d="M480.687,300.192c0.15-0.058,0.289-0.117,0.428-0.177
				c-0.079,0.036-0.152,0.069-0.223,0.09C480.815,300.13,480.742,300.162,480.687,300.192z"/>
			<path id="XMLID_308_" style="fill:#FFFFFF;" d="M489.878,256.045c0,0,0.268,0.407-0.408-0.778
				c-0.289-0.507-1.085-1.499-1.085-1.499s-0.901,2.742-8.013,4.174l1.156,4.297C481.529,262.239,487.103,260.464,489.878,256.045z"
				/>
			<path id="XMLID_306_" style="fill:#FFFFFF;" d="M477.689,254.538c0,0-0.264,0.885,0.924,2.117
				c0.658,0.682,1.759,1.287,1.759,1.287l-2.046,3.64c0,0-1.699-1.705-1.699-5.537c0,0,0.108-0.287,0.433-0.729
				C477.197,255.131,477.689,254.538,477.689,254.538z"/>
			<path id="XMLID_265_" style="fill:#FFFFFF;" d="M484.35,308.075h-16.965v-2.082l16.988,0.478
				c0.434,0.012,0.779,0.367,0.779,0.802l0,0C485.152,307.716,484.793,308.075,484.35,308.075z"/>
			<path id="XMLID_267_" style="fill:#FFFFFF;" d="M473.984,307.2H436.06c-1.405,0-2.611-0.999-2.873-2.378l-5.695-29.953
				c-0.205-1.078,0.622-2.077,1.719-2.077h35.809c1.404,0,2.611,0.999,2.873,2.378L473.984,307.2z"/>
			
				<linearGradient id="XMLID_00000028311373933960210460000001421769152139543743_" gradientUnits="userSpaceOnUse" x1="449.4156" y1="265.4161" x2="449.4156" y2="315.5061">
				<stop  offset="0" style="stop-color:#71D2F9"/>
				<stop  offset="1" style="stop-color:#51B9F8"/>
			</linearGradient>
			<path id="XMLID_212_" style="fill:url(#XMLID_00000028311373933960210460000001421769152139543743_);" d="M471.244,308.075
				h-36.866c-1.082,0-2.011-0.769-2.213-1.832l-5.892-30.991c-0.156-0.823,0.475-1.586,1.313-1.586h36.866
				c1.082,0,2.011,0.769,2.213,1.832l5.892,30.991C472.714,307.312,472.082,308.075,471.244,308.075z"/>
			
				<linearGradient id="XMLID_00000069382519779315810250000010053599739547478168_" gradientUnits="userSpaceOnUse" x1="502.6599" y1="253.0552" x2="502.6599" y2="317.7434">
				<stop  offset="0" style="stop-color:#49A5F7"/>
				<stop  offset="1" style="stop-color:#1C6CEB"/>
			</linearGradient>
			<path id="XMLID_271_" style="fill:url(#XMLID_00000069382519779315810250000010053599739547478168_);" d="M501.16,262.599
				c0,0,5.682,5.502,7.997,11.79c2.375,6.448,3.125,8.51,3.125,8.51s-5.458,4.904-12.708,5.155c0,0-5.832-10.444-6.458-15.263
				C492.491,267.972,495.62,259.464,501.16,262.599z"/>
			<path id="XMLID_296_" style="fill:#CE8684;" d="M443.425,308.075h-2.021c0,0-0.313,0.22-0.156,0.569
				c0.156,0.349,1.241,0.705,1.671,0.787c1.423,0.271,2.798,0.023,2.798,0.023L443.425,308.075z"/>
			<path id="XMLID_299_" style="fill:#FFA49A;" d="M452.056,307.479c-0.625-0.104-1.519-0.25-1.519-0.25l-1.242-1.35
				c0,0-0.121-0.428-0.646-1.44c-0.626-1.204-1.659-1.269-1.499-0.35c0.03,0.175,0.066,0.39,0.105,0.617
				c-0.141-0.28-0.299-0.578-0.479-0.882c-0.781-1.325-1.879-1.438-1.698-0.396c0.029,0.164,0.061,0.36,0.096,0.567
				c-0.064-0.115-0.127-0.23-0.196-0.348c-0.808-1.37-1.943-1.487-1.756-0.41c0.091,0.525,0.216,1.318,0.363,2.038
				c-0.056-0.102-0.112-0.204-0.173-0.308c-0.611-1.035-1.469-1.124-1.327-0.31c0.142,0.814,0.389,2.487,0.673,2.77
				c0.032,0.032,0.092,0.081,0.162,0.137l-0.001,0c0,0,1.208,1.237,1.554,1.492c0.586,0.431,1.345,0.542,1.345,0.542
				s0.83,0.49,1.353,0.458s1.059-0.212,1.059-0.212s0.34,0.152,0.965,0.235c0.625,0.083,1.459-0.294,1.459-0.294
				s1.456,0.041,1.885-0.229c0.904-0.571,1.307-1.48,1.307-1.48S452.681,307.583,452.056,307.479z"/>
		</g>
		<g id="XMLID_409_">
			
				<linearGradient id="XMLID_00000183961822667358267970000000414149733216538536_" gradientUnits="userSpaceOnUse" x1="138.9433" y1="126.7017" x2="215.6933" y2="153.9516">
				<stop  offset="0" style="stop-color:#71D2F9"/>
				<stop  offset="1" style="stop-color:#51B9F8"/>
			</linearGradient>
			<path id="XMLID_309_" style="fill:url(#XMLID_00000183961822667358267970000000414149733216538536_);" d="M197.371,140.18
				h-50.213c-0.91,0-1.648-0.738-1.648-1.648l0,0c0-0.91,0.738-1.648,1.648-1.648h50.213c0.91,0,1.648,0.738,1.648,1.648l0,0
				C199.019,139.442,198.281,140.18,197.371,140.18z"/>
			
				<linearGradient id="XMLID_00000135682678794459247090000004898236505673307814_" gradientUnits="userSpaceOnUse" x1="135.9957" y1="135.0036" x2="212.7458" y2="162.2536">
				<stop  offset="0" style="stop-color:#71D2F9"/>
				<stop  offset="1" style="stop-color:#51B9F8"/>
			</linearGradient>
			<path id="XMLID_413_" style="fill:url(#XMLID_00000135682678794459247090000004898236505673307814_);" d="M180.621,146.555
				h-33.463c-0.91,0-1.648-0.738-1.648-1.648l0,0c0-0.91,0.738-1.648,1.648-1.648h33.463c0.91,0,1.648,0.738,1.648,1.648l0,0
				C182.269,145.817,181.531,146.555,180.621,146.555z"/>
			
				<linearGradient id="XMLID_00000041265124095622740650000003619653022124860856_" gradientUnits="userSpaceOnUse" x1="132.5024" y1="144.8427" x2="209.2522" y2="172.0926">
				<stop  offset="0" style="stop-color:#71D2F9"/>
				<stop  offset="1" style="stop-color:#51B9F8"/>
			</linearGradient>
			<path id="XMLID_418_" style="fill:url(#XMLID_00000041265124095622740650000003619653022124860856_);" d="M154.121,152.93h-6.963
				c-0.91,0-1.648-0.738-1.648-1.648l0,0c0-0.91,0.738-1.648,1.648-1.648h6.963c0.91,0,1.648,0.738,1.648,1.648l0,0
				C155.769,152.192,155.031,152.93,154.121,152.93z"/>
			
				<linearGradient id="XMLID_00000021082415574434825940000017071329957668378278_" gradientUnits="userSpaceOnUse" x1="135.6488" y1="135.9808" x2="212.3989" y2="163.2307">
				<stop  offset="0" style="stop-color:#71D2F9"/>
				<stop  offset="1" style="stop-color:#51B9F8"/>
			</linearGradient>
			<path id="XMLID_419_" style="fill:url(#XMLID_00000021082415574434825940000017071329957668378278_);" d="M197.371,152.93h-37.25
				c-0.91,0-1.648-0.738-1.648-1.648l0,0c0-0.91,0.738-1.648,1.648-1.648h37.25c0.91,0,1.648,0.738,1.648,1.648l0,0
				C199.019,152.192,198.281,152.93,197.371,152.93z"/>
			
				<linearGradient id="XMLID_00000152952164265124924100000016258550935059570847_" gradientUnits="userSpaceOnUse" x1="139.1237" y1="126.1936" x2="215.8737" y2="153.4435">
				<stop  offset="0" style="stop-color:#71D2F9"/>
				<stop  offset="1" style="stop-color:#51B9F8"/>
			</linearGradient>
			<path id="XMLID_415_" style="fill:url(#XMLID_00000152952164265124924100000016258550935059570847_);" d="M197.371,146.555
				h-11.079c-0.91,0-1.648-0.738-1.648-1.648l0,0c0-0.91,0.738-1.648,1.648-1.648h11.079c0.91,0,1.648,0.738,1.648,1.648l0,0
				C199.019,145.817,198.281,146.555,197.371,146.555z"/>
		</g>
		<g id="XMLID_424_">
			
				<linearGradient id="XMLID_00000160901324852405738750000004478278778807629719_" gradientUnits="userSpaceOnUse" x1="286.7298" y1="342.7255" x2="323.0631" y2="385.8922">
				<stop  offset="0" style="stop-color:#71D2F9"/>
				<stop  offset="1" style="stop-color:#51B9F8"/>
			</linearGradient>
			<path id="XMLID_420_" style="fill:url(#XMLID_00000160901324852405738750000004478278778807629719_);" d="M318.823,374.778
				h-41.875c-3.498,0-6.333-2.836-6.333-6.333v-24.931c0-3.498,2.835-6.333,6.333-6.333h41.875c3.498,0,6.333,2.835,6.333,6.333
				v24.931C325.156,371.943,322.321,374.778,318.823,374.778z"/>
			<path id="XMLID_422_" style="fill:#FFFFFF;" d="M293.764,348.668l9.006,5.2c1.626,0.938,1.626,3.285,0,4.223l-9.006,5.2
				c-1.625,0.938-3.657-0.235-3.657-2.112v-10.4C290.107,348.902,292.139,347.729,293.764,348.668z"/>
		</g>
		<g id="XMLID_437_">
			<path id="XMLID_425_" style="fill:#FFFFFF;" d="M203.893,231.055h-58.466c-4.35,0-7.876-3.526-7.876-7.876v-13.95
				c0-4.35,3.526-7.875,7.876-7.875h58.466c4.35,0,7.876,3.526,7.876,7.875v13.95C211.769,227.529,208.243,231.055,203.893,231.055z
				"/>
			
				<linearGradient id="XMLID_00000089538386376386710310000002855768577575366847_" gradientUnits="userSpaceOnUse" x1="148.8271" y1="228.8885" x2="148.8271" y2="206.1021">
				<stop  offset="0" style="stop-color:#CBE1F2"/>
				<stop  offset="1" style="stop-color:#AED2ED"/>
			</linearGradient>
			
				<circle id="XMLID_436_" style="fill:url(#XMLID_00000089538386376386710310000002855768577575366847_);" cx="148.827" cy="208.243" r="2.313"/>
			
				<linearGradient id="XMLID_00000065794315778791334370000006195631569669518737_" gradientUnits="userSpaceOnUse" x1="148.8271" y1="228.8886" x2="148.8271" y2="206.1021">
				<stop  offset="0" style="stop-color:#CBE1F2"/>
				<stop  offset="1" style="stop-color:#AED2ED"/>
			</linearGradient>
			
				<circle id="XMLID_438_" style="fill:url(#XMLID_00000065794315778791334370000006195631569669518737_);" cx="148.827" cy="216.205" r="2.313"/>
			
				<linearGradient id="XMLID_00000053542800473304703800000002694890316694279328_" gradientUnits="userSpaceOnUse" x1="148.8271" y1="228.8885" x2="148.8271" y2="206.1021">
				<stop  offset="0" style="stop-color:#CBE1F2"/>
				<stop  offset="1" style="stop-color:#AED2ED"/>
			</linearGradient>
			
				<circle id="XMLID_441_" style="fill:url(#XMLID_00000053542800473304703800000002694890316694279328_);" cx="148.827" cy="224.167" r="2.313"/>
			<g id="XMLID_443_">
				
					<linearGradient id="XMLID_00000114059385903123940210000000843016614269900712_" gradientUnits="userSpaceOnUse" x1="204.3148" y1="221.7385" x2="161.0648" y2="199.4885">
					<stop  offset="0" style="stop-color:#CBE1F2"/>
					<stop  offset="1" style="stop-color:#AED2ED"/>
				</linearGradient>
				<path id="XMLID_551_" style="fill:url(#XMLID_00000114059385903123940210000000843016614269900712_);" d="M200.894,208.743
					h-45.625c-0.276,0-0.5-0.224-0.5-0.5c0-0.276,0.224-0.5,0.5-0.5h45.625c0.276,0,0.5,0.224,0.5,0.5
					C201.394,208.519,201.17,208.743,200.894,208.743z"/>
			</g>
			<g id="XMLID_536_">
				
					<linearGradient id="XMLID_00000165202484996504585470000007702420875892176003_" gradientUnits="userSpaceOnUse" x1="201.076" y1="228.0342" x2="157.8259" y2="205.7841">
					<stop  offset="0" style="stop-color:#CBE1F2"/>
					<stop  offset="1" style="stop-color:#AED2ED"/>
				</linearGradient>
				<path id="XMLID_550_" style="fill:url(#XMLID_00000165202484996504585470000007702420875892176003_);" d="M200.894,216.705
					h-45.625c-0.276,0-0.5-0.224-0.5-0.5s0.224-0.5,0.5-0.5h45.625c0.276,0,0.5,0.224,0.5,0.5S201.17,216.705,200.894,216.705z"/>
			</g>
			<g id="XMLID_542_">
				
					<linearGradient id="XMLID_00000166659603112815743940000002147290700185905830_" gradientUnits="userSpaceOnUse" x1="195.0903" y1="239.6694" x2="151.8403" y2="217.4194">
					<stop  offset="0" style="stop-color:#CBE1F2"/>
					<stop  offset="1" style="stop-color:#AED2ED"/>
				</linearGradient>
				<path id="XMLID_548_" style="fill:url(#XMLID_00000166659603112815743940000002147290700185905830_);" d="M174.644,224.667
					h-19.375c-0.276,0-0.5-0.224-0.5-0.5c0-0.276,0.224-0.5,0.5-0.5h19.375c0.276,0,0.5,0.224,0.5,0.5
					C175.144,224.443,174.92,224.667,174.644,224.667z"/>
			</g>
		</g>
		<g id="XMLID_682_">
			<g id="XMLID_701_">
				
					<linearGradient id="XMLID_00000129918281538757308310000009419370330422672533_" gradientUnits="userSpaceOnUse" x1="184.4356" y1="429.0334" x2="276.8417" y2="429.0334">
					<stop  offset="0" style="stop-color:#3949B2"/>
					<stop  offset="1" style="stop-color:#5CA5F7"/>
				</linearGradient>
				<path id="XMLID_709_" style="fill:url(#XMLID_00000129918281538757308310000009419370330422672533_);" d="M259.128,438.33
					H185.63c-1.514,0-2.741-1.227-2.741-2.741v-13.112c0-1.514,1.227-2.741,2.741-2.741h73.498c1.514,0,2.741,1.227,2.741,2.741
					v13.112C261.869,437.103,260.642,438.33,259.128,438.33z"/>
				<g id="XMLID_702_">
					
						<linearGradient id="XMLID_00000096753917132854889640000004218149217690612151_" gradientUnits="userSpaceOnUse" x1="191.1961" y1="423.5552" x2="191.1961" y2="433.181">
						<stop  offset="0" style="stop-color:#71D2F9"/>
						<stop  offset="1" style="stop-color:#51B9F8"/>
					</linearGradient>
					<path id="XMLID_708_" style="fill:url(#XMLID_00000096753917132854889640000004218149217690612151_);" d="M193.624,434.194
						h-4.856c-0.714,0-1.293-0.579-1.293-1.293v-7.736c0-0.714,0.579-1.293,1.293-1.293h4.856c0.714,0,1.293,0.579,1.293,1.293
						v7.736C194.917,433.616,194.338,434.194,193.624,434.194z"/>
					
						<linearGradient id="XMLID_00000155134331254876101790000000136271693303738808_" gradientUnits="userSpaceOnUse" x1="200.6576" y1="423.5552" x2="200.6576" y2="433.181">
						<stop  offset="0" style="stop-color:#71D2F9"/>
						<stop  offset="1" style="stop-color:#51B9F8"/>
					</linearGradient>
					<path id="XMLID_707_" style="fill:url(#XMLID_00000155134331254876101790000000136271693303738808_);" d="M203.086,434.194
						h-4.856c-0.714,0-1.293-0.579-1.293-1.293v-7.736c0-0.714,0.579-1.293,1.293-1.293h4.856c0.714,0,1.293,0.579,1.293,1.293
						v7.736C204.379,433.616,203.8,434.194,203.086,434.194z"/>
					<path id="XMLID_599_" style="fill:#FFFFFF;" d="M232.594,434.194h-24.902c-0.714,0-1.293-0.579-1.293-1.293v-7.736
						c0-0.714,0.579-1.293,1.293-1.293h24.902c0.714,0,1.293,0.579,1.293,1.293v7.736
						C233.887,433.616,233.308,434.194,232.594,434.194z"/>
					
						<linearGradient id="XMLID_00000132052223270521296130000000570670911175110787_" gradientUnits="userSpaceOnUse" x1="258.8542" y1="429.0493" x2="189.7517" y2="429.0493">
						<stop  offset="0" style="stop-color:#CBE1F2"/>
						<stop  offset="1" style="stop-color:#AED2ED"/>
					</linearGradient>
					<path id="XMLID_705_" style="fill:url(#XMLID_00000132052223270521296130000000570670911175110787_);" d="M241.85,429.049
						c0,1.466-1.188,2.654-2.654,2.654c-1.466,0-2.654-1.188-2.654-2.654c0-1.466,1.188-2.654,2.654-2.654
						C240.662,426.395,241.85,427.583,241.85,429.049z"/>
					<path id="XMLID_704_" style="fill:#FFFFFF;" d="M249.09,429.049c0,1.466-1.188,2.654-2.654,2.654
						c-1.466,0-2.654-1.188-2.654-2.654c0-1.466,1.188-2.654,2.654-2.654C247.902,426.395,249.09,427.583,249.09,429.049z"/>
					
						<linearGradient id="XMLID_00000031909263312707407300000016441991728422506139_" gradientUnits="userSpaceOnUse" x1="258.8541" y1="429.0333" x2="189.7531" y2="429.0333">
						<stop  offset="0" style="stop-color:#CBE1F2"/>
						<stop  offset="1" style="stop-color:#AED2ED"/>
					</linearGradient>
					<path id="XMLID_703_" style="fill:url(#XMLID_00000031909263312707407300000016441991728422506139_);" d="M256.427,430.187
						h-4.925c-0.472,0-0.855-0.383-0.855-0.855v-0.598c0-0.472,0.383-0.855,0.855-0.855h4.925c0.472,0,0.855,0.383,0.855,0.855
						v0.598C257.282,429.804,256.9,430.187,256.427,430.187z"/>
				</g>
			</g>
			
				<linearGradient id="XMLID_00000060749462092302260890000014694926119716357262_" gradientUnits="userSpaceOnUse" x1="199.4577" y1="436.4203" x2="191.5911" y2="441.2203">
				<stop  offset="0" style="stop-color:#0B1B6A"/>
				<stop  offset="1" style="stop-color:#3949B2"/>
			</linearGradient>
			
				<rect id="XMLID_700_" x="191.196" y="438.33" style="fill:url(#XMLID_00000060749462092302260890000014694926119716357262_);" width="6.637" height="2.212"/>
			
				<linearGradient id="XMLID_00000034789839306771126860000009791759475091069836_" gradientUnits="userSpaceOnUse" x1="255.5906" y1="436.4203" x2="247.7241" y2="441.2202">
				<stop  offset="0" style="stop-color:#0B1B6A"/>
				<stop  offset="1" style="stop-color:#3949B2"/>
			</linearGradient>
			
				<rect id="XMLID_699_" x="247.329" y="438.33" style="fill:url(#XMLID_00000034789839306771126860000009791759475091069836_);" width="6.637" height="2.212"/>
		</g>
		<g id="XMLID_662_">
			<g id="XMLID_670_">
				
					<linearGradient id="XMLID_00000018207797795956179460000001005421221646470528_" gradientUnits="userSpaceOnUse" x1="184.4356" y1="408.2273" x2="276.8417" y2="408.2273">
					<stop  offset="0" style="stop-color:#3949B2"/>
					<stop  offset="1" style="stop-color:#5CA5F7"/>
				</linearGradient>
				<path id="XMLID_596_" style="fill:url(#XMLID_00000018207797795956179460000001005421221646470528_);" d="M259.128,417.524
					H185.63c-1.514,0-2.741-1.227-2.741-2.741v-13.112c0-1.514,1.227-2.741,2.741-2.741h73.498c1.514,0,2.741,1.227,2.741,2.741
					v13.112C261.869,416.297,260.642,417.524,259.128,417.524z"/>
				<g id="XMLID_671_">
					
						<linearGradient id="XMLID_00000085231338448590377430000013332642403746171799_" gradientUnits="userSpaceOnUse" x1="186.7689" y1="408.2273" x2="210.1878" y2="408.2273">
						<stop  offset="0" style="stop-color:#CBE1F2"/>
						<stop  offset="1" style="stop-color:#AED2ED"/>
					</linearGradient>
					<path id="XMLID_677_" style="fill:url(#XMLID_00000085231338448590377430000013332642403746171799_);" d="M193.624,413.388
						h-4.856c-0.714,0-1.293-0.579-1.293-1.293v-7.736c0-0.714,0.579-1.293,1.293-1.293h4.856c0.714,0,1.293,0.579,1.293,1.293
						v7.736C194.917,412.809,194.338,413.388,193.624,413.388z"/>
					<path id="XMLID_676_" style="fill:#FFFFFF;" d="M203.086,413.388h-4.856c-0.714,0-1.293-0.579-1.293-1.293v-7.736
						c0-0.714,0.579-1.293,1.293-1.293h4.856c0.714,0,1.293,0.579,1.293,1.293v7.736C204.379,412.809,203.8,413.388,203.086,413.388
						z"/>
					<path id="XMLID_675_" style="fill:#FFFFFF;" d="M232.594,413.388h-24.902c-0.714,0-1.293-0.579-1.293-1.293v-7.736
						c0-0.714,0.579-1.293,1.293-1.293h24.902c0.714,0,1.293,0.579,1.293,1.293v7.736
						C233.887,412.809,233.308,413.388,232.594,413.388z"/>
					
						<linearGradient id="XMLID_00000082330568847949183380000015492467770903062168_" gradientUnits="userSpaceOnUse" x1="239.1958" y1="403.8051" x2="239.1958" y2="411.3094">
						<stop  offset="0" style="stop-color:#71D2F9"/>
						<stop  offset="1" style="stop-color:#51B9F8"/>
					</linearGradient>
					<path id="XMLID_674_" style="fill:url(#XMLID_00000082330568847949183380000015492467770903062168_);" d="M241.85,408.243
						c0,1.466-1.188,2.654-2.654,2.654c-1.466,0-2.654-1.188-2.654-2.654c0-1.466,1.188-2.654,2.654-2.654
						C240.662,405.589,241.85,406.777,241.85,408.243z"/>
					
						<linearGradient id="XMLID_00000109742944055278782700000009723624445900111542_" gradientUnits="userSpaceOnUse" x1="246.4362" y1="403.8051" x2="246.4362" y2="411.3094">
						<stop  offset="0" style="stop-color:#71D2F9"/>
						<stop  offset="1" style="stop-color:#51B9F8"/>
					</linearGradient>
					<path id="XMLID_673_" style="fill:url(#XMLID_00000109742944055278782700000009723624445900111542_);" d="M249.09,408.243
						c0,1.466-1.188,2.654-2.654,2.654c-1.466,0-2.654-1.188-2.654-2.654c0-1.466,1.188-2.654,2.654-2.654
						C247.902,405.589,249.09,406.777,249.09,408.243z"/>
					<path id="XMLID_595_" style="fill:#FFFFFF;" d="M256.427,409.381h-4.925c-0.472,0-0.855-0.383-0.855-0.855v-0.598
						c0-0.472,0.383-0.855,0.855-0.855h4.925c0.472,0,0.855,0.383,0.855,0.855v0.598C257.282,408.999,256.9,409.381,256.427,409.381
						z"/>
				</g>
			</g>
			
				<linearGradient id="XMLID_00000145768937901091783580000018115106369657676961_" gradientUnits="userSpaceOnUse" x1="199.4577" y1="415.6143" x2="191.5911" y2="420.4142">
				<stop  offset="0" style="stop-color:#0B1B6A"/>
				<stop  offset="1" style="stop-color:#3949B2"/>
			</linearGradient>
			
				<rect id="XMLID_669_" x="191.196" y="417.524" style="fill:url(#XMLID_00000145768937901091783580000018115106369657676961_);" width="6.637" height="2.212"/>
			
				<linearGradient id="XMLID_00000072980530599653748980000009969172099078006965_" gradientUnits="userSpaceOnUse" x1="255.5906" y1="415.6143" x2="247.7241" y2="420.4142">
				<stop  offset="0" style="stop-color:#0B1B6A"/>
				<stop  offset="1" style="stop-color:#3949B2"/>
			</linearGradient>
			
				<rect id="XMLID_668_" x="247.329" y="417.524" style="fill:url(#XMLID_00000072980530599653748980000009969172099078006965_);" width="6.637" height="2.212"/>
		</g>
		
			<line id="XMLID_26_" style="fill:none;stroke:#232230;stroke-linecap:round;stroke-linejoin:round;stroke-miterlimit:10;" x1="65.25" y1="441.009" x2="584.75" y2="441.009"/>
	</g>
</g>
<g id="TEXTS">
	<g id="XMLID_100_">
		
			<text transform="matrix(1 0 0 1 242.9914 289.9951)" style="fill:#8FABD8; font-family:'Montserrat-ExtraBold'; font-size:88.0871px;">API</text>
	</g>
</g>
</svg>
