<?xml version="1.0" encoding="utf-8"?>
<!-- Generator: Adobe Illustrator 27.5.0, SVG Export Plug-In . SVG Version: 6.00 Build 0)  -->
<svg version="1.1" id="Layer_1" xmlns="http://www.w3.org/2000/svg" xmlns:xlink="http://www.w3.org/1999/xlink" x="0px" y="0px"
	 viewBox="0 0 2975.402 2000" style="enable-background:new 0 0 2975.402 2000;" xml:space="preserve">
<g>
	<rect x="0" y="0" style="fill:#FFFFFF;" width="2975.402" height="2000"/>
	<g>
		<g>
			<path style="fill:#EBF3FA;" d="M469.1,1813.012c0,0-350.658-558.548-186-1060.106
				C409.075,369.179,625.572,340.05,817.058,436.031c97.637,48.94,236.271,33.757,669.236-131.618
				c330.743-126.33,1244.727-223.228,1068.589,649.567c-85.24,422.371,259.415,437.724,83.8,859.926L469.1,1813.012z"/>
		</g>
		<path style="fill:#CADDF3;" d="M899.93,1808.258h82.405c7.296,0,13.21-5.914,13.21-13.21v-13.839h0l-39.384-95.658
			c30.052-12.493,51.188-42.122,51.188-76.697c0-20.438-7.398-39.139-19.644-53.605c-0.433-0.511-0.87-1.018-1.315-1.518
			c-0.351-0.395-0.703-0.79-1.061-1.178c-0.587-0.636-1.185-1.261-1.791-1.878c-0.367-0.374-0.738-0.743-1.112-1.109
			c-0.612-0.6-1.231-1.193-1.861-1.774c-0.378-0.348-0.763-0.688-1.147-1.03c-0.509-0.452-1.024-0.897-1.544-1.337
			c-0.494-0.417-0.992-0.829-1.495-1.235c-0.552-0.445-1.109-0.883-1.672-1.314c-0.357-0.273-0.712-0.549-1.073-0.816
			c-0.754-0.558-1.521-1.099-2.295-1.632c-0.366-0.252-0.733-0.503-1.103-0.749c-0.797-0.531-1.603-1.048-2.419-1.551
			c-0.348-0.215-0.7-0.424-1.051-0.634c-0.859-0.512-1.724-1.015-2.602-1.496c-0.293-0.161-0.59-0.313-0.885-0.471
			c-0.802-0.427-1.611-0.842-2.429-1.244c-0.29-0.143-0.579-0.287-0.871-0.426c-0.924-0.441-1.861-0.861-2.804-1.268
			c-0.287-0.124-0.574-0.25-0.863-0.371c-0.994-0.416-1.999-0.81-3.012-1.188c-0.287-0.107-0.574-0.212-0.862-0.316
			c-1.039-0.374-2.087-0.73-3.145-1.064c-0.247-0.078-0.496-0.151-0.745-0.227c-1.116-0.34-2.239-0.664-3.374-0.958
			c-0.135-0.035-0.273-0.066-0.408-0.1c-1.118-0.284-2.245-0.543-3.381-0.78c-0.159-0.033-0.317-0.07-0.477-0.103
			c-1.178-0.239-2.366-0.447-3.562-0.636c-0.221-0.035-0.441-0.071-0.662-0.104c-1.182-0.177-2.373-0.328-3.571-0.454
			c-0.223-0.023-0.446-0.045-0.669-0.067c-1.221-0.119-2.449-0.215-3.685-0.28c-0.168-0.009-0.337-0.014-0.505-0.021
			c-1.306-0.061-2.618-0.1-3.94-0.1h0h0c-11.108,0-21.699,2.198-31.383,6.156l-10.983-26.676
			c26.587-10.28,45.453-36.074,45.453-66.289c0-17.493-6.332-33.5-16.814-45.881c-0.369-0.437-0.743-0.869-1.122-1.296
			c-0.301-0.338-0.602-0.676-0.909-1.009c-0.502-0.543-1.013-1.078-1.531-1.605c-0.315-0.32-0.633-0.637-0.954-0.952
			c-0.523-0.512-1.051-1.019-1.589-1.515c-0.324-0.299-0.655-0.592-0.985-0.885c-0.436-0.387-0.877-0.769-1.322-1.145
			c-0.423-0.357-0.849-0.709-1.28-1.057c-0.472-0.38-0.948-0.755-1.43-1.124c-0.306-0.234-0.61-0.47-0.919-0.699
			c-0.646-0.478-1.304-0.942-1.966-1.398c-0.312-0.215-0.625-0.429-0.941-0.639c-0.682-0.454-1.372-0.896-2.07-1.327
			c-0.299-0.185-0.601-0.365-0.904-0.545c-0.734-0.438-1.474-0.867-2.224-1.279c-0.251-0.138-0.506-0.269-0.759-0.403
			c-0.687-0.366-1.381-0.722-2.082-1.066c-0.245-0.12-0.489-0.242-0.735-0.36c-0.794-0.378-1.598-0.739-2.407-1.088
			c-0.245-0.105-0.49-0.214-0.737-0.317c-0.85-0.355-1.71-0.693-2.577-1.016c-0.247-0.092-0.494-0.183-0.742-0.272
			c-0.889-0.32-1.784-0.625-2.689-0.91c-0.212-0.067-0.425-0.13-0.638-0.194c-0.955-0.292-1.916-0.569-2.888-0.82
			c-0.116-0.03-0.233-0.056-0.349-0.085c-0.957-0.243-1.923-0.465-2.895-0.668c-0.136-0.028-0.27-0.06-0.407-0.087
			c-1.009-0.205-2.027-0.384-3.051-0.545c-0.188-0.03-0.375-0.061-0.563-0.089c-1.012-0.151-2.031-0.28-3.057-0.388
			c-0.191-0.02-0.382-0.039-0.573-0.057c-1.045-0.102-2.095-0.184-3.153-0.24c-0.144-0.008-0.289-0.012-0.433-0.019
			c-1.117-0.052-2.24-0.085-3.371-0.085c0,0,0,0,0,0h0c-10.133,0-19.764,2.135-28.487,5.958l-13.595-33.022
			c24.586-9.259,42.082-32.988,42.082-60.813c0-17.014-6.547-32.492-17.249-44.075c-0.06-0.064-0.122-0.126-0.181-0.19
			c-0.702-0.753-1.421-1.49-2.157-2.209c-0.145-0.142-0.294-0.28-0.441-0.42c-0.663-0.636-1.337-1.258-2.027-1.866
			c-0.19-0.167-0.382-0.332-0.573-0.497c-0.663-0.571-1.338-1.128-2.024-1.672c-0.213-0.169-0.425-0.337-0.641-0.504
			c-0.689-0.533-1.391-1.05-2.102-1.555c-0.214-0.152-0.427-0.308-0.643-0.458c-0.753-0.521-1.519-1.024-2.295-1.514
			c-0.179-0.113-0.355-0.231-0.535-0.343c-0.924-0.571-1.862-1.121-2.816-1.646c-0.034-0.019-0.066-0.039-0.1-0.058
			c-2.009-1.101-4.083-2.098-6.213-2.986c-0.252-0.105-0.51-0.199-0.763-0.301c-0.788-0.316-1.58-0.625-2.383-0.911
			c-0.359-0.128-0.724-0.246-1.086-0.368c-0.709-0.239-1.421-0.471-2.141-0.685c-0.412-0.123-0.827-0.238-1.242-0.353
			c-0.685-0.189-1.373-0.37-2.067-0.537c-0.44-0.106-0.881-0.208-1.324-0.306c-0.686-0.15-1.377-0.287-2.071-0.416
			c-0.451-0.083-0.902-0.168-1.357-0.242c-0.71-0.116-1.427-0.213-2.145-0.306c-0.441-0.057-0.88-0.12-1.325-0.168
			c-0.785-0.085-1.577-0.146-2.37-0.202c-0.382-0.027-0.761-0.066-1.144-0.087c-1.177-0.063-2.361-0.101-3.554-0.101
			c-0.001,0-0.003,0-0.004,0h0h0c-3.24,0-6.422,0.245-9.535,0.703c-0.119,0.018-0.24,0.027-0.359,0.045
			c-5.852,0.894-11.437,2.585-16.665,4.931l-12.755-30.979c18.52-8.565,31.376-27.297,31.376-49.042
			c0-14.145-5.443-27.014-14.341-36.644c-0.049-0.053-0.1-0.104-0.15-0.157c-0.584-0.627-1.182-1.24-1.795-1.839
			c-0.12-0.117-0.243-0.231-0.364-0.347c-0.552-0.529-1.113-1.047-1.686-1.552c-0.158-0.139-0.318-0.276-0.477-0.414
			c-0.551-0.474-1.112-0.938-1.682-1.39c-0.177-0.141-0.354-0.281-0.533-0.419c-0.574-0.443-1.158-0.874-1.75-1.294
			c-0.177-0.126-0.352-0.254-0.531-0.377c-0.627-0.434-1.265-0.853-1.911-1.26c-0.148-0.094-0.294-0.192-0.443-0.284
			c-0.768-0.475-1.548-0.932-2.341-1.369c-0.028-0.016-0.056-0.033-0.084-0.048c-1.67-0.916-3.395-1.745-5.167-2.483
			c-0.208-0.087-0.421-0.165-0.63-0.249c-0.656-0.264-1.316-0.52-1.984-0.759c-0.298-0.106-0.6-0.204-0.901-0.305
			c-0.591-0.199-1.184-0.392-1.783-0.571c-0.341-0.102-0.684-0.196-1.028-0.292c-0.571-0.158-1.145-0.308-1.724-0.448
			c-0.365-0.088-0.73-0.172-1.098-0.253c-0.571-0.125-1.145-0.239-1.723-0.346c-0.375-0.07-0.75-0.14-1.128-0.202
			c-0.591-0.096-1.187-0.177-1.784-0.254c-0.366-0.047-0.731-0.1-1.1-0.14c-0.653-0.071-1.312-0.121-1.972-0.168
			c-0.318-0.022-0.632-0.055-0.951-0.072c-0.979-0.053-1.963-0.083-2.955-0.083c-0.001,0-0.002,0-0.003,0h0h0
			c-2.457,0-4.871,0.179-7.241,0.497c-0.424,0.057-0.849,0.109-1.271,0.176c-3.434,0.544-6.76,1.407-9.946,2.565l-11.282-27.401
			c17.419-6.93,29.739-23.93,29.739-43.819c0-12.348-4.752-23.581-12.519-31.987c-0.043-0.046-0.087-0.091-0.13-0.137
			c-0.51-0.547-1.032-1.082-1.567-1.605c-0.105-0.102-0.213-0.202-0.319-0.304c-0.482-0.461-0.971-0.914-1.472-1.355
			c-0.138-0.121-0.276-0.24-0.415-0.359c-0.482-0.414-0.971-0.819-1.47-1.214c-0.154-0.123-0.309-0.245-0.465-0.365
			c-0.501-0.387-1.01-0.762-1.527-1.129c-0.155-0.11-0.308-0.222-0.465-0.331c-0.547-0.378-1.104-0.744-1.667-1.1
			c-0.13-0.082-0.257-0.167-0.388-0.249c-0.671-0.414-1.351-0.813-2.044-1.195c-0.024-0.014-0.048-0.028-0.073-0.042
			c-1.458-0.799-2.964-1.522-4.51-2.167c-0.181-0.076-0.366-0.143-0.548-0.216c-0.574-0.231-1.151-0.455-1.735-0.664
			c-0.259-0.092-0.522-0.177-0.783-0.265c-0.516-0.174-1.034-0.342-1.559-0.499c-0.298-0.089-0.598-0.172-0.898-0.255
			c-0.498-0.138-0.998-0.268-1.502-0.39c-0.319-0.077-0.638-0.151-0.96-0.222c-0.499-0.109-1-0.208-1.505-0.302
			c-0.327-0.06-0.653-0.121-0.982-0.175c-0.517-0.084-1.037-0.155-1.559-0.223c-0.32-0.041-0.638-0.087-0.959-0.122
			c-0.57-0.062-1.145-0.106-1.721-0.147c-0.277-0.02-0.552-0.048-0.83-0.063c-0.854-0.046-1.714-0.073-2.58-0.073
			c-0.001,0-0.002,0-0.003,0h0h0c-4.789,0-9.409,0.719-13.764,2.046c-0.085,0.026-0.173,0.047-0.258,0.074
			c-1.524,0.474-3.013,1.026-4.467,1.646l-5.391-13.093H555.216l-5.233,12.71c-0.561-0.225-1.124-0.444-1.695-0.647
			c-0.259-0.092-0.522-0.177-0.784-0.265c-0.516-0.174-1.034-0.342-1.558-0.499c-0.298-0.089-0.599-0.172-0.899-0.255
			c-0.497-0.138-0.997-0.268-1.501-0.39c-0.319-0.077-0.639-0.151-0.961-0.222c-0.498-0.109-1-0.208-1.504-0.302
			c-0.327-0.06-0.653-0.121-0.983-0.175c-0.516-0.084-1.037-0.155-1.559-0.222c-0.32-0.042-0.638-0.087-0.96-0.122
			c-0.57-0.062-1.145-0.106-1.72-0.147c-0.277-0.02-0.552-0.048-0.831-0.063c-0.854-0.046-1.714-0.073-2.579-0.073
			c-0.001,0-0.002,0-0.003,0h0h0c-26.043,0-47.155,21.112-47.155,47.154c0,0.87,0.027,1.733,0.074,2.591
			c0.014,0.261,0.041,0.519,0.059,0.779c0.042,0.594,0.087,1.186,0.151,1.773c0.034,0.31,0.078,0.616,0.117,0.923
			c0.069,0.535,0.141,1.068,0.228,1.598c0.052,0.318,0.112,0.635,0.17,0.951c0.095,0.516,0.197,1.028,0.309,1.538
			c0.068,0.312,0.14,0.621,0.215,0.93c0.124,0.516,0.258,1.027,0.399,1.537c0.08,0.29,0.16,0.58,0.246,0.867
			c0.16,0.536,0.332,1.066,0.51,1.594c0.085,0.25,0.165,0.502,0.254,0.751c0.214,0.602,0.445,1.195,0.683,1.786
			c0.067,0.165,0.128,0.333,0.196,0.498c0.647,1.553,1.373,3.065,2.176,4.529c0.001,0.002,0.003,0.005,0.004,0.008
			c0.393,0.715,0.806,1.418,1.234,2.11c0.072,0.116,0.148,0.229,0.221,0.345c0.365,0.579,0.74,1.15,1.129,1.712
			c0.1,0.144,0.204,0.286,0.305,0.429c0.376,0.529,0.761,1.052,1.158,1.565c0.112,0.145,0.226,0.289,0.34,0.433
			c0.404,0.51,0.818,1.012,1.243,1.504c0.111,0.128,0.221,0.257,0.332,0.384c0.451,0.513,0.914,1.014,1.386,1.506
			c0.092,0.096,0.182,0.193,0.275,0.289c0.535,0.548,1.082,1.083,1.643,1.604c0.034,0.031,0.066,0.064,0.1,0.095
			c3.971,3.671,8.57,6.674,13.626,8.814l-12.289,29.849c-0.849-0.408-1.713-0.79-2.587-1.154c-0.208-0.086-0.42-0.164-0.629-0.248
			c-0.656-0.264-1.316-0.521-1.985-0.759c-0.299-0.107-0.601-0.204-0.902-0.306c-0.59-0.199-1.182-0.391-1.781-0.57
			c-0.341-0.102-0.685-0.197-1.029-0.292c-0.57-0.158-1.144-0.308-1.721-0.447c-0.365-0.088-0.73-0.173-1.098-0.253
			c-0.571-0.125-1.146-0.239-1.724-0.346c-0.374-0.069-0.748-0.139-1.125-0.201c-0.591-0.097-1.187-0.178-1.784-0.254
			c-0.367-0.047-0.732-0.1-1.101-0.14c-0.652-0.07-1.31-0.121-1.968-0.168c-0.318-0.022-0.633-0.055-0.953-0.072
			c-0.978-0.053-1.962-0.083-2.953-0.084c-0.001,0-0.002,0-0.004,0h0h0c-29.826,0-54.004,24.179-54.004,54.004
			c0,0.996,0.031,1.984,0.085,2.966c0.016,0.3,0.047,0.595,0.068,0.894c0.048,0.68,0.1,1.357,0.173,2.03
			c0.038,0.355,0.089,0.706,0.134,1.058c0.079,0.613,0.162,1.224,0.261,1.829c0.06,0.365,0.127,0.726,0.194,1.088
			c0.109,0.591,0.226,1.18,0.354,1.764c0.078,0.355,0.16,0.709,0.245,1.062c0.142,0.592,0.296,1.179,0.457,1.762
			c0.092,0.332,0.184,0.663,0.281,0.991c0.183,0.615,0.381,1.223,0.585,1.829c0.097,0.286,0.189,0.573,0.29,0.856
			c0.246,0.69,0.51,1.372,0.783,2.048c0.076,0.188,0.145,0.38,0.223,0.567c0.741,1.779,1.573,3.511,2.493,5.188
			c0.001,0.001,0.002,0.003,0.002,0.004c0.451,0.821,0.925,1.627,1.416,2.422c0.082,0.132,0.168,0.26,0.251,0.392
			c0.419,0.664,0.849,1.32,1.295,1.964c0.114,0.165,0.232,0.326,0.347,0.489c0.431,0.607,0.873,1.207,1.328,1.795
			c0.128,0.165,0.257,0.329,0.387,0.492c0.463,0.585,0.938,1.16,1.425,1.725c0.127,0.147,0.253,0.294,0.381,0.44
			c0.517,0.587,1.047,1.162,1.588,1.726c0.105,0.109,0.207,0.22,0.313,0.329c0.614,0.629,1.242,1.243,1.885,1.841
			c0.037,0.035,0.073,0.071,0.111,0.105c5.404,4.996,11.83,8.894,18.93,11.359l-11.768,28.583c-0.216-0.093-0.432-0.185-0.649-0.275
			c-0.252-0.105-0.509-0.199-0.762-0.3c-0.788-0.317-1.58-0.625-2.384-0.911c-0.359-0.128-0.723-0.246-1.085-0.368
			c-0.71-0.239-1.421-0.47-2.142-0.685c-0.411-0.123-0.826-0.238-1.241-0.353c-0.685-0.189-1.374-0.37-2.068-0.537
			c-0.44-0.106-0.88-0.208-1.323-0.306c-0.686-0.15-1.377-0.287-2.071-0.416c-0.451-0.083-0.902-0.168-1.356-0.242
			c-0.711-0.116-1.427-0.213-2.145-0.306c-0.441-0.057-0.88-0.121-1.324-0.168c-0.785-0.085-1.577-0.146-2.371-0.202
			c-0.382-0.027-0.76-0.066-1.144-0.087c-1.177-0.063-2.361-0.101-3.554-0.101c-0.001,0-0.003,0-0.004,0h0h0
			c-3.24,0-6.422,0.245-9.535,0.703c-0.119,0.018-0.241,0.027-0.359,0.045c-31.188,4.765-55.078,31.705-55.078,64.225
			c0,1.198,0.038,2.387,0.102,3.569c0.02,0.361,0.056,0.717,0.082,1.076c0.058,0.817,0.12,1.632,0.208,2.44
			c0.046,0.428,0.107,0.851,0.162,1.276c0.095,0.735,0.194,1.469,0.313,2.196c0.072,0.44,0.154,0.877,0.235,1.314
			c0.131,0.709,0.271,1.416,0.425,2.117c0.095,0.429,0.194,0.856,0.296,1.283c0.171,0.709,0.355,1.413,0.549,2.114
			c0.111,0.4,0.222,0.801,0.34,1.198c0.22,0.738,0.457,1.467,0.702,2.194c0.117,0.346,0.228,0.693,0.351,1.036
			c0.295,0.827,0.611,1.643,0.938,2.454c0.093,0.23,0.178,0.464,0.273,0.693c0.891,2.14,1.892,4.222,2.998,6.239
			c0.002,0.003,0.003,0.006,0.005,0.008c0.541,0.987,1.111,1.955,1.701,2.91c0.1,0.161,0.205,0.317,0.306,0.478
			c0.502,0.796,1.018,1.582,1.553,2.354c0.139,0.201,0.283,0.398,0.425,0.598c0.516,0.728,1.045,1.445,1.591,2.15
			c0.156,0.201,0.314,0.4,0.472,0.6c0.556,0.702,1.125,1.391,1.709,2.068c0.154,0.179,0.307,0.357,0.463,0.534
			c0.621,0.705,1.257,1.395,1.907,2.072c0.127,0.132,0.251,0.267,0.38,0.398c0.737,0.755,1.492,1.493,2.265,2.211
			c0.046,0.042,0.09,0.087,0.136,0.13c5.852,5.41,12.702,9.747,20.241,12.724l-13.616,33.07c-0.125-0.053-0.251-0.102-0.376-0.154
			c-0.85-0.355-1.71-0.693-2.577-1.016c-0.247-0.092-0.494-0.183-0.742-0.272c-0.888-0.32-1.784-0.625-2.689-0.91
			c-0.212-0.067-0.425-0.13-0.638-0.194c-0.955-0.292-1.916-0.569-2.888-0.82c-0.116-0.03-0.233-0.056-0.348-0.085
			c-0.957-0.243-1.923-0.465-2.895-0.668c-0.136-0.028-0.27-0.06-0.406-0.087c-1.009-0.205-2.027-0.384-3.051-0.545
			c-0.188-0.03-0.375-0.061-0.563-0.089c-1.012-0.151-2.031-0.28-3.057-0.388c-0.191-0.02-0.382-0.039-0.573-0.057
			c-1.045-0.102-2.095-0.184-3.153-0.24c-0.144-0.008-0.289-0.012-0.433-0.019c-1.118-0.052-2.24-0.085-3.371-0.085c0,0,0,0,0,0h0
			c-27.805,0-51.865,15.978-63.54,39.245c9.486,32.924,19.715,64.555,30.301,94.612c2.23,1.182,4.523,2.261,6.887,3.206
			l-3.082,7.485c14.302,39.798,29.153,76.706,43.614,110.054c0.74-4.454,1.126-9.028,1.126-13.692c0-2.072-0.102-4.118-0.251-6.152
			l232.602-564.947h2.049l233.557,567.27c-0.058,1.27-0.097,2.545-0.097,3.829c0,0.019,0.001,0.037,0.001,0.055
			c0.001,1.291,0.038,2.572,0.097,3.848c0.009,0.187,0.014,0.375,0.024,0.561c0.065,1.22,0.16,2.432,0.276,3.637
			c0.023,0.241,0.047,0.481,0.072,0.722c0.125,1.182,0.274,2.356,0.448,3.522c0.036,0.24,0.075,0.479,0.113,0.718
			c0.186,1.177,0.391,2.348,0.627,3.509c0.037,0.183,0.079,0.363,0.117,0.545c0.231,1.101,0.483,2.194,0.757,3.279
			c0.041,0.16,0.077,0.322,0.118,0.482c0.289,1.116,0.608,2.219,0.942,3.316c0.082,0.269,0.161,0.539,0.246,0.807
			c0.328,1.04,0.678,2.069,1.046,3.091c0.111,0.309,0.224,0.616,0.338,0.923c0.371,0.995,0.758,1.981,1.166,2.958
			c0.13,0.311,0.266,0.618,0.399,0.927c0.39,0.902,0.792,1.797,1.213,2.682c0.162,0.34,0.328,0.677,0.494,1.014
			c0.383,0.779,0.779,1.551,1.187,2.316c0.17,0.319,0.335,0.641,0.509,0.958c0.471,0.859,0.963,1.705,1.463,2.545
			c0.222,0.372,0.444,0.744,0.671,1.113c0.493,0.798,0.999,1.586,1.517,2.366c0.259,0.39,0.524,0.776,0.789,1.162
			c0.504,0.731,1.016,1.457,1.543,2.17c0.301,0.407,0.609,0.808,0.917,1.209c0.404,0.527,0.815,1.049,1.231,1.566
			c0.44,0.547,0.887,1.087,1.34,1.623c0.411,0.485,0.826,0.965,1.247,1.44c0.398,0.448,0.798,0.894,1.205,1.333
			c0.527,0.569,1.063,1.13,1.605,1.684c0.384,0.393,0.771,0.782,1.163,1.166c0.602,0.591,1.211,1.173,1.83,1.745
			c0.042,0.039,0.081,0.079,0.123,0.117l14.72,35.753H410.81c15.664,31.723,29.453,57.285,39.683,75.49H886.72v13.839
			C886.72,1802.344,892.635,1808.258,899.93,1808.258z"/>
		<path style="fill:#CADDF3;" d="M1870.546,1576.643c0-57.302-35.458-104.489-83.726-124.065l0-413.428c0,0,0,0,0,0v-4.345l0,0
			v-51.729l41.48-79.185l13.511-53.275l6.513-8.561c1.152-1.514,0.858-3.676-0.657-4.827l0-0.001
			c-1.514-1.151-3.674-0.857-4.825,0.657l-154.3,202.817c-1.152,1.514-0.858,3.676,0.657,4.827l0,0
			c1.514,1.151,3.674,0.857,4.825-0.657l4.655-6.119l43.519-20.631l0.63-0.836l21.821-3.57v31.298
			c-54.05,25.092-61.302,28.983-131.541,30.062c-5.271,0.704-5.361,13.594-1.418,12.821c54.878,1.306,83.201-4.238,132.959-26.249
			v384.117c-9.991-2.137-20.338-3.135-30.875-2.877c-96.298,14.479-237.815,102.724-237.815,102.724l-39.79-72.353
			c-1.825-3.318-6.664-7.491-10.531-7.791l-65.963-119.882h59.104c8.836,0,22.305-7.159,22.305-15.992l0,0
			c0-12.313-9.986-11.717-22.305-11.717c-101.569,0-104.813-16.329-153.962-16.329c-22.293,0-31.699,6.532-31.699,18.845v3.174
			c0,8.832,8.915,22.019,21.261,22.019h81.944l65.962,119.88c-2.266,0.284-4.319,4.795-3.222,6.789l46.769,85.042
			c-44.56,22.302-73.851,68.202-73.851,119.575v0c0,73.86,1.41,133.736,1.41,133.736h402.203c73.893,0,86.837-59.876,86.837-133.736
			L1870.546,1576.643z"/>
		<path style="fill:#CADDF3;" d="M2533.518,1576.643c0-57.302-35.458-104.489-83.726-124.065V1039.15c0,0,0,0,0,0v-4.345l0,0
			v-51.729l41.48-79.185l13.511-53.275l6.513-8.561c1.152-1.514,0.858-3.676-0.657-4.827l0-0.001
			c-1.514-1.151-3.674-0.857-4.825,0.657l-154.3,202.817c-1.152,1.514-0.858,3.676,0.657,4.827l0,0
			c1.514,1.151,3.674,0.857,4.825-0.657l4.655-6.119l43.52-20.631l0.63-0.836l21.821-3.57v31.298
			c-54.051,25.092-61.302,28.983-131.541,30.062c-5.271,0.704-5.361,13.594-1.418,12.821c54.878,1.306,83.201-4.238,132.959-26.249
			v384.117c-9.991-2.137-20.338-3.135-30.875-2.877c-96.298,14.479-237.815,102.724-237.815,102.724l-39.791-72.353
			c-1.825-3.318-6.664-7.491-10.531-7.791l-65.963-119.882h59.104c8.836,0,22.305-7.159,22.305-15.992l0,0
			c0-12.313-9.986-11.717-22.305-11.717c-101.569,0-104.813-16.329-153.962-16.329c-22.293,0-31.699,6.532-31.699,18.845v3.174
			c0,8.832,8.916,22.019,21.261,22.019h81.944l65.962,119.88c-2.266,0.284-4.319,4.795-3.222,6.789l46.769,85.042
			c-44.56,22.302-73.851,68.202-73.851,119.575v0c0,73.86,1.41,133.736,1.41,133.736h402.204c73.893,0,86.837-59.876,86.837-133.736
			L2533.518,1576.643z"/>
		<g>
			<g>
				<g>
					<path style="fill:#FFB27D;" d="M1066.914,901.231l-75.195,38.431l-15.068-52.166c0,0,9.58-18.053,13.912-47.627
						c1.816-12.436,2.713-26.909,1.559-42.939l61.265,31.369c0,0-1.461,5.665-2.44,14.026c-1.042,9.035-1.509,21.213,1.059,32.783
						C1054.221,885.04,1058.665,894.524,1066.914,901.231z"/>
					<path style="fill:#FFB27D;" d="M932.686,911.839c0,0-69.396-89.855-103.172-117.742c0,0-46.195-113.906-49.946-121.411
						c-3.756-7.507-29.534,0.135-29.534,0.135s18.763,116.847,36.656,149.671c17.895,32.822,73.382,142.983,112.544,147.072
						C938.401,973.651,932.686,911.839,932.686,911.839z"/>
					<path style="fill:#2C3A64;" d="M1142.255,1757.262c0,0,7.839,15.298,25.207,19.083c10.942,2.384,20.31,8.077,26.138,16.061
						c4.927,6.746,0.162,16.237-8.193,16.237h-88.164c-7.509,0-13.366-6.477-12.616-13.947c0.657-6.531,1.343-14.137,1.642-19.97
						c0.653-12.734,13.406-22.983,13.406-22.983L1142.255,1757.262z"/>
					<path style="fill:#35488B;" d="M1144.377,1761.111c0,0-21.153,12.496-56.939,4.952c0,0-60.844-155.584-64.446-228.8
						c-0.164-2.939-0.214-5.741-0.164-8.405c1.227-68.861-62.355-248.177-45.206-284.917
						c17.149-36.75,155.723,16.513,155.723,16.513l2.752,124.951L1144.377,1761.111z"/>
					<path style="fill:#2C3A64;" d="M1136.097,1385.404l-113.106,151.858c-0.164-2.939-0.214-5.741-0.164-8.405
						c1.227-68.861-62.355-248.177-45.206-284.917c17.149-36.75,155.723,16.513,155.723,16.513L1136.097,1385.404z"/>
					<path style="fill:#FFB27D;" d="M1080.392,908.012c0,0,100.112-89.306,106.224-101.58s34.513-121.97,34.513-121.97l23.858,2.918
						c0,0-4.551,131.544-14.601,157.17c-10.052,25.626-127.975,134.586-127.975,134.586L1080.392,908.012z"/>
					<path style="fill:#2C3A64;" d="M914.628,1757.262c0,0,7.839,15.298,25.209,19.083c10.941,2.384,20.308,8.077,26.138,16.061
						c4.927,6.746,0.162,16.237-8.193,16.237h-88.164c-7.509,0-13.368-6.477-12.616-13.947c0.657-6.531,1.343-14.137,1.642-19.97
						c0.651-12.734,13.406-22.983,13.406-22.983L914.628,1757.262z"/>
					<path style="fill:#35488B;" d="M1052.292,1263.418c0,0-122.468,457.026-126.219,501.751c0,0-23.887,12.253-62.666-9.391
						c0,0-22.515-204.842,0-260.82c22.517-55.976-4.471-225.179,52.804-263.345
						C973.486,1193.448,1052.292,1263.418,1052.292,1263.418z"/>
					<path style="fill:#FFB93E;" d="M1129.4,967.479c0.417-6.255,38.066-31.691,38.066-31.691
						c7.922-47.538-27.315-86.851-27.315-86.851l-40.356,37.338c-8.755,0.52-12.508,3.71-12.508,3.71
						c-7.505-2.023-28.457,0-28.457,0c0.332,10.811-3.973,20.674-22.946,23.157c-25.238,3.289-47.805-13.932-59.232-25.641
						c0,0-15.288-1.331-34.468,4.923c0,0-9.285-4.748-19.182-5.043l-37.115-33.363c0,0-43.482,12.554-50.342,78.086
						c0,0,48.819,37.15,52.342,66.498l0,0l1.337,11.122l4.732,39.411l8.326,69.118l-24.791,137.673
						c-0.214,1.206-0.331,2.412-0.331,3.596c0,9.202,6.292,17.48,15.543,19.704c0,0,2.129,0.355,6.054,0.9
						c26.281,3.689,132.966,16.415,216.609-6.292c18.807-5.109,31.201-23.064,29.639-42.508l-17.696-222.085l0,0
						C1127.307,1009.242,1128.981,973.732,1129.4,967.479z"/>
					<path style="fill:#FFA412;" d="M932.606,1176.187c-1.656,48.019-6.363,88.729-33.85,103.94c-3.926-0.545-6.054-0.9-6.054-0.9
						c-9.25-2.224-15.543-10.502-15.543-19.704c0-1.183,0.118-2.39,0.331-3.596l24.791-137.671l-8.326-69.12
						c0.402-1.206,0.614-1.847,0.614-1.847S934.711,1114.683,932.606,1176.187z"/>
					<path style="fill:#EA9C68;" d="M1052.006,875.108c-34.837-0.931-61.443-35.239-61.443-35.239l60.384,2.456
						C1049.904,851.359,1049.438,863.538,1052.006,875.108z"/>
					<g>
						<path style="fill:#FFB27D;" d="M1068.904,855.698c0,0-69.491,18.349-93.463-36.911
							c-25.869-59.636,2.512-103.085,26.111-106.015c47.057-5.845,74.391,12.098,82.661,31.065
							C1092.482,762.802,1107.248,845.917,1068.904,855.698z"/>
						<path style="fill:#FFFFFF;" d="M1041.357,824.587c0,0,2.908,7.169,21.238,3.146c0,0,15.391-3.376,13.646-11.48
							C1076.241,816.253,1060.27,812.777,1041.357,824.587z"/>
						<path style="fill:#2C3A64;" d="M976.697,668.39c-18.173,5.754-31.682,14.585-40.955,25.371c-0.9-4.141-0.97-7.878-0.97-7.878
							c-1.801,3.571-2.093,7.758-1.849,11.364c-0.106,0.139-0.201,0.282-0.305,0.423c-3.538,0.369-8.819,1.815-11.932,6.885
							c0,0,3.799-2.547,8.709-2.079c-24.507,40.445,0.385,100.832,58.452,135.644c0,0-8.152-23.918-7.176-36.686
							c0,0-18.135-23.122-7.569-28.845c10.566-5.723,16.268,7.957,18.691,5.273c2.421-2.686,6.199-48.123,19.031-46.688
							c12.834,1.437,60.305,16.148,81.117-1.801C1112.753,711.428,1062.263,641.304,976.697,668.39z"/>
					</g>
					<path style="fill:#FFB27D;" d="M1219.493,695.467c0,0-0.304-13.852-2.447-25.014c-2.398-12.497-0.028-25.411,4.24-24.141
						c4.268,1.27,6.997-4.783,11.771-5.738c4.773-0.954,7.024-0.281,13.229,2.105c6.205,2.388,15.74-10.601,13.831,8.494
						c-1.909,19.095-16.766,47.213-16.766,47.213L1219.493,695.467z"/>
					<path style="fill:#FFB27D;" d="M780.928,678.909c0,0-4.402-17.776-2.375-28.06c2.029-10.286-1.032-23.216-5.518-20.986
						c-4.487,2.232-4.273-0.872-9.749-1.01c-5.474-0.139-6.56-1.931-17.01-2.109c-7.479-0.127-14.033-2.176-10.565,19.13
						c2.147,13.192,17.33,35.742,17.33,35.742L780.928,678.909z"/>
					<g>
						<path style="fill:#2C3A64;" d="M1012.792,784.219c-0.313,0-0.622-0.133-0.837-0.39c-0.384-0.46-0.321-1.146,0.139-1.53
							c11.165-9.304,26.393-5.455,27.04-5.285c0.578,0.151,0.927,0.746,0.773,1.325c-0.151,0.582-0.742,0.939-1.324,0.777
							c-0.143-0.035-14.807-3.727-25.095,4.85C1013.283,784.136,1013.036,784.219,1012.792,784.219z"/>
					</g>
					<g>
						<path style="fill:#2C3A64;" d="M1063.196,774.807c-0.27,0-0.535-0.135-0.719-0.392c-0.332-0.46-0.276-1.144,0.12-1.53
							c9.607-9.304,22.712-5.455,23.267-5.283c0.5,0.151,0.796,0.744,0.665,1.324c-0.128,0.58-0.638,0.937-1.14,0.775
							c-0.124-0.033-12.742-3.725-21.597,4.852C1063.619,774.724,1063.407,774.807,1063.196,774.807z"/>
					</g>
					<path style="fill:#FFB93E;" d="M1087.286,889.985c-7.505-2.023-30.001-0.411-30.001-0.411
						c0.332,10.811-2.429,21.085-21.402,23.568L1087.286,889.985z"/>
				</g>
				
					<rect x="607.966" y="634.673" transform="matrix(0.9998 0.0174 -0.0174 0.9998 11.3579 -17.4065)" style="fill:#35488B;" width="791.959" height="16.011"/>
				<g>
					<path style="fill:#2C3A64;" d="M1359.204,761.203l-41.641-0.726c-7.927-0.138-14.24-6.676-14.102-14.603l3.421-196.169
						c0.138-7.927,6.676-14.24,14.603-14.102l41.641,0.726c7.927,0.138,14.24,6.676,14.102,14.603l-3.421,196.169
						C1373.668,755.028,1367.131,761.342,1359.204,761.203z"/>
					<path style="fill:#2C3A64;" d="M686.412,749.471l-41.641-0.726c-7.927-0.138-14.24-6.676-14.102-14.603l3.421-196.169
						c0.138-7.927,6.676-14.24,14.603-14.102l41.641,0.726c7.927,0.138,14.24,6.676,14.102,14.603l-3.421,196.169
						C700.876,743.296,694.338,749.609,686.412,749.471z"/>
				</g>
				<path style="fill:#BFBFBF;" d="M630.691,732.865l-0.022,1.277c-0.138,7.927,6.175,14.464,14.102,14.603l41.641,0.726
					c7.927,0.138,14.465-6.176,14.603-14.102l3.421-196.169c0.138-7.927-6.175-14.464-14.102-14.603
					C701.101,669.016,675.317,726.827,630.691,732.865z"/>
				<path style="fill:#BFBFBF;" d="M1303.596,738.153l-0.135,7.721c-0.138,7.927,6.176,14.464,14.102,14.603l41.641,0.726
					c7.927,0.138,14.464-6.176,14.603-14.102l3.421-196.169c0.138-7.927-6.176-14.464-14.102-14.603
					C1374.181,678.313,1366.407,733.493,1303.596,738.153z"/>
				<path style="fill:#FFB27D;" d="M754.483,643.892c10.55-0.011,23.988-9.28,22.821-13.322c-1.167-4.042-26.391-6.136-35.28-5.088
					c-8.889,1.048-10.241,6.15-2.301,12.59C743.132,640.837,751.657,643.895,754.483,643.892z"/>
				<path style="fill:#FFB27D;" d="M1241.941,652.392c10.55-0.011,23.988-9.28,22.821-13.322c-1.168-4.042-26.391-6.136-35.28-5.088
					c-8.889,1.048-10.241,6.15-2.301,12.59C1230.591,649.337,1239.116,652.395,1241.941,652.392z"/>
				<path style="fill:#FFB27D;" d="M777.375,657.587c4.181-9.558,7.159-20.292,6.659-22.694c-0.416-1.995-3.454-0.226-6.861,5.419
					c-3.406,5.645-9.912,7.938-9.912,7.938C774.548,652.887,777.375,657.587,777.375,657.587z"/>
				<path style="fill:#FFB27D;" d="M1216.477,664.127c-0.64-15.047-3.533-21.563-0.013-25.11c2.566-0.595,3.635,7.13,7.759,12.013
					c4.125,4.883,6.103,12.135,6.103,12.135C1221.917,662.568,1216.477,664.127,1216.477,664.127z"/>
			</g>
			<g>
				<path style="fill:#2C3A64;" d="M1848.167,678.758c7.848-38.93-13.61-69.817-46.426-76.433
					c-32.816-6.615-64.564,13.547-72.412,52.477c-0.511,2.533-18.595,14.538-26.01,51.321
					c-9.032,44.804,23.846,56.575,65.632,64.999c41.786,8.424,76.656,10.31,85.689-34.495
					C1861.971,700.251,1847.868,680.24,1848.167,678.758z M1798.347,619.16c18.519,3.733,28.717,16.535,26.087,29.58
					c-1.72,8.531-9.315,8.761-18.337,7.099c-4.179-1.175-8.615-2.165-13.31-2.962c-0.04-0.007-0.078-0.012-0.119-0.018
					c-0.479-0.103-0.957-0.203-1.432-0.299c-14.204-2.863-31.429-1.211-28.799-14.256
					C1765.392,623.647,1779.597,615.381,1798.347,619.16z"/>
				<path style="fill:#BFBFBF;" d="M1768.95,771.121c41.786,8.424,76.656,10.31,85.689-34.495
					c7.333-36.376-6.771-56.387-6.472-57.869c4.883-24.223-1.584-45.327-15.069-59.413c19.632,42.278-2.012,52.499-2.614,57.911
					c-0.601,5.412,13.831,52.352-33.675,67.969c-34.122,11.217-72.879,6.624-92.572-10.225
					C1712.077,756.845,1738.08,764.898,1768.95,771.121z"/>
				<g>
					<path style="fill:#A56941;" d="M1955.049,886.82c0,0-100.112-89.305-106.225-101.58c-6.112-12.274-34.513-121.97-34.513-121.97
						l-23.858,2.918c0,0,4.552,131.544,14.604,157.17c10.05,25.626,127.973,134.586,127.973,134.586L1955.049,886.82z"/>
					<path style="fill:#A56941;" d="M2126.064,999.789c0,0,71.522,113.497,74.003,126.984c2.483,13.487-0.549,126.758-0.549,126.758
						l23.734,3.793c0,0,31.991-127.677,29.415-155.083c-2.574-27.406-85.78-164.718-85.78-164.718L2126.064,999.789z"/>
					<path style="fill:#A56941;" d="M2049.54,1540.251l45.078,221.131h46.114c0,0,32.607-207.991,2.467-236.773
						C2113.058,1495.828,2049.54,1540.251,2049.54,1540.251z"/>
					<path style="fill:#A56941;" d="M1912.626,1530.31l1.417,231.43l40.002-3.403c0,0,76.851-189.151,53.437-223.625
						C1984.066,1500.237,1912.626,1530.31,1912.626,1530.31z"/>
					<path style="fill:#35488B;" d="M1913.915,1757.262c0,0-7.841,15.298-25.209,19.083c-10.942,2.384-20.31,8.077-26.138,16.061
						c-4.929,6.746-0.161,16.237,8.193,16.237h88.163c7.509,0,13.367-6.477,12.616-13.947c-0.657-6.531-1.343-14.137-1.644-19.97
						c-0.651-12.734-13.404-22.983-13.404-22.983L1913.915,1757.262z"/>
					<path style="fill:#35488B;" d="M2102.734,1525.554c-2.535,19.429-9.686,33.637-22.337,39.231
						c-35.193,15.559-75.1,14.341-109.186,7.884c-7.451-1.409-14.623-3.08-21.417-4.881c-34.48-9.084-58.939-21.531-58.939-21.531
						l29.639-294.127c33.618-6.815,79.568,8.502,124.035,76.018C2084.734,1389.189,2109.342,1475.025,2102.734,1525.554z"/>
					<path style="fill:#2C3A64;" d="M2102.734,1525.554c-2.535,19.429-9.686,33.637-22.337,39.231
						c-35.193,15.559-75.1,14.341-109.186,7.884c-7.451-1.409-14.623-3.08-21.417-4.881
						c-6.776-129.214,40.806-248.123,54.923-264.661C2049.859,1371.677,2100.593,1470.708,2102.734,1525.554z"/>
					<path style="fill:#35488B;" d="M2096.651,1757.262c0,0-7.841,15.298-25.209,19.083c-10.942,2.384-20.31,8.077-26.138,16.061
						c-4.928,6.746-0.161,16.237,8.193,16.237h88.164c7.507,0,13.366-6.477,12.616-13.947c-0.657-6.531-1.345-14.137-1.644-19.97
						c-0.651-12.734-13.404-22.983-13.404-22.983L2096.651,1757.262z"/>
					<path style="fill:#35488B;" d="M2134.187,731.364c5.449-23.624-1.268-41.067-12.11-57.86
						c-10.401-16.106-25.006-16.801-39.044-30.443c-13.217-12.844-37.85-21.288-57.458-21.288
						c-62.743,0-117.077,38.414-104.691,103.551c3.934,20.695,0.611,37.005,17.387,61.196
						c20.938,30.196,46.398,54.432,87.303,54.432c21.703,0,40.723-5.008,57.458-20.826c9.114-8.616,22.184-9.675,30.207-19.054
						C2129.444,782.129,2128.238,757.167,2134.187,731.364z"/>
					<path style="fill:#35488B;" d="M1977.458,1263.482l38.92,321.192c0,0,82.447,19.396,173.061-9.008
						c0,0-26.996-307.873-48.707-330.322C2119.019,1222.896,1977.458,1263.482,1977.458,1263.482z"/>
					<path style="fill:#A56941;" d="M1967.982,884.352l78.194,39.964l15.669-54.249c0,0-9.961-18.774-14.467-49.528
						c-1.884-12.933-2.821-27.985-1.619-44.655l-63.711,32.623c0,0,1.519,5.891,2.537,14.585c1.084,9.393,1.567,22.059-1.103,34.091
						C1981.181,867.514,1976.559,877.375,1967.982,884.352z"/>
					<path style="fill:#F99746;" d="M2139.188,1110.041l8.657-71.879l0.319-2.663c13.943-11.961,69.255-32.47,69.255-32.47
						s-33.22-74.636-53.412-99.418v-0.008c-0.004-0.004-0.01-0.006-0.017-0.008c-5.81-7.12-16.699-12.904-29.305-17.541
						c-10.396-3.855-21.962-6.908-32.758-9.279c-21.576-4.722-40.08-6.707-40.08-6.707l0.002,0.006h-0.002
						c-11.883,12.177-35.351,30.084-61.599,26.664c-19.727-2.582-22.857-12.842-22.513-24.084c-2.783,0.354-5.53,0.864-8.224,1.488
						v-0.004l-63.39-31.755c0,0-41.046,61.961-15.082,111.479c0,0,28.078,12.66,31.433,39.656l-4.338,206.996
						c-1.623,20.221-20.096,66.005-0.541,71.317c86.984,23.616,197.928,10.382,225.258,6.543c4.083-0.566,6.299-0.935,6.299-0.935
						c9.617-2.311,16.16-10.921,16.16-20.49c0-1.231-0.122-2.485-0.344-3.739L2139.188,1110.041z"/>
					<path style="fill:#ED7D2B;" d="M2080.433,1153.91c1.101,49.955,33.836,108.647,62.419,124.464
						c4.083-0.566,6.297-0.935,6.297-0.935c9.619-2.311,16.162-10.921,16.162-20.49c0-1.231-0.122-2.485-0.344-3.739
						l-25.781-143.169l8.659-71.879c-0.419-1.256-0.638-1.919-0.638-1.919S2078.489,1065.659,2080.433,1153.91z"/>
					<path style="fill:#8E512F;" d="M1983.483,857.184c36.228-0.968,63.895-36.644,63.895-36.644l-62.793,2.553
						C1985.67,832.486,1986.153,845.152,1983.483,857.184z"/>
					<path style="fill:#A56941;" d="M1980.034,835.301c0,0,80.047,9.756,81.755-46.638c1.708-56.392-31.655-92.922-53.926-92.506
						c-44.408,0.831-51.733,18.778-56.881,37.463C1945.834,752.302,1943.185,831.325,1980.034,835.301z"/>
					<path style="fill:#FFFFFF;" d="M2001.445,802.798c0,0-1.743,7.032-19.275,5.737c0,0-14.718-1.084-14.175-8.829
						C1967.995,799.705,1982.341,794.36,2001.445,802.798z"/>
					<path style="fill:#35488B;" d="M1988.049,696.681c0,0,68.407-0.044,52.688,46.92c-9.907,29.601,23.037,34.205,23.037,34.205
						l15.851-47.445l-9.93-36.961L1988.049,696.681z"/>
					<path style="fill:#A56941;" d="M1814.311,663.27c0,0-0.472-10.338,2.871-19.039c3.341-8.699-0.167-34.994-4.437-33.724
						c-4.268,1.271-1.128,12.171-5.901,11.216c-14.244-5.503-21.911-3.774-27.559-1.955c-0.346,1.131,0,4.119,0.443,8.364
						c1.99,19.087,10.726,38.056,10.726,38.056L1814.311,663.27z"/>
					<path style="fill:#A56941;" d="M2199.518,1253.531c0,0-2.404,10.067-8.021,17.503c-5.617,7.437-9.973,29.693-5.519,29.651
						c4.452-0.042,4.862-8.369,9.186-6.131c4.323,2.236,4.406,29.581,11.031,29.002c6.622-0.578,13.401-7.818,16.846-26.698
						c3.445-18.877,0.211-39.535,0.211-39.535L2199.518,1253.531z"/>
				</g>
				<path style="fill:#A56941;" d="M1782.396,602.255c8.017,5.471,14.677,2.218,16.431,0.306c2.605-2.84-5.167-2.832-8.445-2.84
					C1782.941,599.702,1780.618,601.042,1782.396,602.255z"/>
			</g>
		</g>
		<path style="fill:#2E3552;" d="M2816.66,1817.293H223.492c-1.854,0-3.371-1.517-3.371-3.371v-2.292
			c0-1.854,1.517-3.371,3.371-3.371h2593.167c1.855,0,3.372,1.517,3.372,3.372v2.291
			C2820.031,1815.776,2818.514,1817.293,2816.66,1817.293z"/>
	</g>
</g>
</svg>
