<?xml version="1.0" encoding="utf-8"?>
<!-- Generator: Adobe Illustrator 27.5.0, SVG Export Plug-In . SVG Version: 6.00 Build 0)  -->
<svg version="1.1" xmlns="http://www.w3.org/2000/svg" xmlns:xlink="http://www.w3.org/1999/xlink" x="0px" y="0px"
	 viewBox="0 0 500 500" style="enable-background:new 0 0 500 500;" xml:space="preserve">
<g id="BACKGROUND">
	<g>
		<rect style="fill:#FDFFFF;" width="500" height="500"/>
		<path style="fill:#E5E6EA;" d="M59.409,219.984c-5.646,18.067-14.745,34.831-22.608,52.056
			c-14.508,31.781-25.023,66.816-19.937,101.36c6.205,42.15,36.527,79.308,75.658,96.49s85.744,14.89,124.296-3.546
			c18.419-8.808,34.242-23.609,53.978-28.848c42.638-11.317,65.583,39.32,146.286,29.034c27.543-3.51,50.797-24.656,63.161-49.426
			c12.365-24.77,14.322-53.902,8.772-81.008c-3.516-17.171-8.827-63.099-11.292-80.451c-4.849-34.135,5.745-68.294,10.862-102.39
			c5.117-34.096,3.247-72.871-21.022-97.448c-14.994-15.185-37.507-22.618-58.637-19.362c-23.863,3.677-44.563,19.793-68.551,22.537
			c-28.987,3.316-55.934-13.203-82.745-24.672c-27.581-11.799-57.291-18.637-87.272-20.088c-17.629-0.853-35.629,0.2-52.243,6.136
			c-27.443,9.805-49.268,32.904-59.543,60.084c-8.768,23.194-9.672,49.62-3.353,73.55c2.731,10.343,8.315,17.502,9.159,28.665
			C65.331,195.251,63.16,207.978,59.409,219.984z"/>
	</g>
</g>
<g id="OBJECTS">
	<g>
		<g>
			<path style="fill:#0E1165;" d="M304.476,205.188h145.927c6.074,0,10.998-4.924,10.998-10.998V57.792H293.478V194.19
				C293.478,200.264,298.402,205.188,304.476,205.188z"/>
			<path style="fill:#E8BBC7;" d="M304.476,202.729h145.927c6.074,0,10.998-4.924,10.998-10.998V55.334H293.478v136.398
				C293.478,197.805,298.402,202.729,304.476,202.729z"/>
			<path style="fill:#3459CC;" d="M293.478,55.334h167.923v-4.066c0-6.074-4.924-10.998-10.998-10.998H304.476
				c-6.074,0-10.998,4.924-10.998,10.998V55.334z"/>
			<path style="fill:#FDFFFF;" d="M315.071,48.04c0,2.712-2.199,4.911-4.911,4.911c-2.712,0-4.911-2.199-4.911-4.911
				c0-2.712,2.199-4.911,4.911-4.911C312.872,43.129,315.071,45.327,315.071,48.04z"/>
			<path style="fill:#E2654D;" d="M328.401,48.04c0,2.712-2.199,4.911-4.911,4.911c-2.712,0-4.911-2.199-4.911-4.911
				c0-2.712,2.199-4.911,4.911-4.911C326.202,43.129,328.401,45.327,328.401,48.04z"/>
			<path style="fill:#0E1165;" d="M341.73,48.04c0,2.712-2.199,4.911-4.911,4.911s-4.911-2.199-4.911-4.911
				c0-2.712,2.199-4.911,4.911-4.911S341.73,45.327,341.73,48.04z"/>
		</g>
		<g>
			<g>
				<g>
					<g transform="translate(0,-952.3622)">
						<path style="fill:#8EA6FF;" d="M364.904,1234.291l-5.824,20.272c-5.339,1.452-10.421,3.519-15.131,6.165l-18.674-10.255
							l-16.692,4.652v11.826l10.388,18.434c-2.68,4.649-4.774,9.667-6.245,14.937l-20.535,5.75v23.354l20.535,5.75
							c1.471,5.27,3.565,10.288,6.245,14.937l-10.388,6.609v11.826l16.692,16.478l18.674-10.255
							c4.71,2.646,9.792,4.713,15.131,6.165l5.824,20.272h23.657l5.824-20.272c5.339-1.452,10.421-3.519,15.131-6.165l18.674,10.255
							l16.692-16.478v-11.826l-10.388-6.609c2.68-4.649,4.774-9.667,6.245-14.937l20.535-5.75v-23.354l-20.535-5.75
							c-1.471-5.271-3.565-10.288-6.245-14.937l10.388-18.434v-11.826l-16.692-4.652l-18.674,10.255
							c-4.71-2.645-9.792-4.713-15.131-6.165l-5.824-20.272H364.904z M376.733,1266.842c28.397,0,51.569,22.874,51.569,50.907
							c0,28.033-23.171,50.907-51.569,50.907c-28.397,0-51.569-22.874-51.569-50.907
							C325.164,1289.716,348.336,1266.842,376.733,1266.842z"/>
					</g>
				</g>
				<g>
					<g transform="translate(0,-952.3622)">
						<path style="fill:#0E1165;" d="M364.904,1222.465l-5.824,20.272c-5.339,1.452-10.421,3.519-15.131,6.165l-18.674-10.255
							l-16.692,16.478l10.388,18.434c-2.68,4.649-4.774,9.667-6.245,14.937l-20.535,5.75v23.354l20.535,5.75
							c1.471,5.27,3.565,10.288,6.245,14.937l-10.388,18.434l16.692,16.478l18.674-10.255c4.71,2.646,9.792,4.713,15.131,6.165
							l5.824,20.272h23.657l5.824-20.272c5.339-1.452,10.421-3.519,15.131-6.165l18.674,10.255l16.692-16.478l-10.388-18.434
							c2.68-4.649,4.774-9.667,6.245-14.937l20.535-5.749v-23.354l-20.535-5.75c-1.471-5.27-3.565-10.288-6.245-14.937
							l10.388-18.434l-16.692-16.478l-18.674,10.255c-4.71-2.645-9.792-4.713-15.131-6.165l-5.824-20.272H364.904z
							 M376.733,1255.016c28.397,0,51.569,22.874,51.569,50.908c0,28.033-23.171,50.907-51.569,50.907
							c-28.397,0-51.569-22.874-51.569-50.907C325.164,1277.89,348.336,1255.016,376.733,1255.016z"/>
					</g>
				</g>
				<path style="fill:#0E1165;" d="M444.883,302.763"/>
			</g>
			<g>
				<path style="fill:#E2654D;" d="M360,354.251l-13.564,3.927L360,362.108v8.536l-22.781-8.275v-8.432L360,345.715V354.251z"/>
				<path style="fill:#3459CC;" d="M371.723,378.183h-8.64l20.58-40.271h8.641L371.723,378.183z"/>
				<path style="fill:#E2654D;" d="M418.012,353.937v8.432l-22.623,8.275v-8.536l13.407-3.929l-13.407-3.927v-8.536L418.012,353.937
					z"/>
			</g>
		</g>
		<g>
			<g>
				
					<ellipse transform="matrix(0.1588 -0.9873 0.9873 0.1588 117.6605 626.9271)" style="fill:#E2654D;" cx="426.728" cy="244.417" rx="30.271" ry="30.271"/>
				<path style="fill:#E2654D;" d="M409.918,259.752c-3.438,5.524-9.012,9.68-15.288,11.397c8.294,0.248,16.591-1.431,23.179-6.476"
					/>
			</g>
			<g>
				<path style="fill:#0E1165;" d="M417.895,243.907c0,2.562-2.077,4.639-4.639,4.639s-4.639-2.077-4.639-4.639
					c0-2.562,2.077-4.639,4.639-4.639S417.895,241.345,417.895,243.907z"/>
				<path style="fill:#0E1165;" d="M432.197,243.907c0,2.562-2.077,4.639-4.639,4.639c-2.562,0-4.639-2.077-4.639-4.639
					c0-2.562,2.077-4.639,4.639-4.639C430.12,239.268,432.197,241.345,432.197,243.907z"/>
				<path style="fill:#0E1165;" d="M446.5,243.907c0,2.562-2.077,4.639-4.639,4.639c-2.562,0-4.639-2.077-4.639-4.639
					c0-2.562,2.077-4.639,4.639-4.639C444.423,239.268,446.5,241.345,446.5,243.907z"/>
			</g>
		</g>
		<g>
			<path style="fill:#3459CC;" d="M198.279,72.495l-10.321-21.249c-2.424-4.991-7.486-8.16-13.035-8.16H57.327
				c-8.003,0-14.491,6.488-14.491,14.491v260.899c0,8.003,6.488,14.491,14.491,14.491h292.828c8.003,0,14.491-6.488,14.491-14.491
				V86.986c0-8.003-6.488-14.491-14.491-14.491H198.279z"/>
			<path style="fill:#8EA6FF;" d="M198.279,68.079l-10.321-21.248c-2.424-4.991-7.486-8.16-13.035-8.16H57.327
				c-8.003,0-14.491,6.488-14.491,14.491v260.899c0,8.003,6.488,14.491,14.491,14.491h292.828c8.003,0,14.491-6.488,14.491-14.491
				V82.57c0-8.003-6.488-14.491-14.491-14.491H198.279z"/>
			<path style="fill:#0E1165;" d="M187.344,68.079H51.364V53.841c0-3.31,2.683-5.993,5.992-5.993h117.828
				c1.893,0,3.61,1.113,4.383,2.841L187.344,68.079z"/>
			<g>
				<g>
					<path style="fill:#0E1165;" d="M65.241,183.501h150.706c6.149,0,11.134-4.985,11.134-11.134v-70.536H54.108v70.536
						C54.108,178.516,59.092,183.501,65.241,183.501z"/>
					<path style="fill:#FDFFFF;" d="M65.241,181.012h150.706c6.149,0,11.134-4.985,11.134-11.134V99.342H54.108v70.536
						C54.108,176.027,59.092,181.012,65.241,181.012z"/>
					<path style="fill:#E2654D;" d="M54.108,99.342h172.974v-4.116c0-6.149-4.985-11.134-11.134-11.134H65.241
						c-6.149,0-11.134,4.985-11.134,11.134V99.342z"/>
					<path style="fill:#FDFFFF;" d="M75.966,91.958c0,2.746-2.226,4.971-4.971,4.971c-2.746,0-4.972-2.226-4.972-4.971
						c0-2.746,2.226-4.971,4.972-4.971C73.741,86.987,75.966,89.212,75.966,91.958z"/>
					<path style="fill:#3459CC;" d="M89.46,91.958c0,2.746-2.226,4.971-4.972,4.971c-2.746,0-4.971-2.226-4.971-4.971
						c0-2.746,2.226-4.971,4.971-4.971C87.235,86.987,89.46,89.212,89.46,91.958z"/>
					<path style="fill:#0E1165;" d="M102.954,91.958c0,2.746-2.226,4.971-4.971,4.971c-2.746,0-4.972-2.226-4.972-4.971
						c0-2.746,2.226-4.971,4.972-4.971C100.729,86.987,102.954,89.212,102.954,91.958z"/>
				</g>
			</g>
			<g>
				<path style="fill:#0E1165;" d="M154.605,252.541c0,1.01-0.05,2.008-0.123,2.999l19.223,0.023
					c0.05-1.001,0.076-2.008,0.076-3.022c0-32.913-26.681-59.594-59.594-59.594v19.176
					C136.51,212.124,154.605,230.219,154.605,252.541z"/>
				<path style="fill:#E2654D;" d="M114.187,292.96v19.176c12.68,0,24.427-3.973,34.088-10.724l-11.43-15.398
					C130.382,290.398,122.584,292.96,114.187,292.96z"/>
				<path style="fill:#FDFFFF;" d="M173.705,255.563l-19.223-0.023c-0.931,12.678-7.698,23.733-17.638,30.474l11.43,15.398
					C162.918,291.18,172.757,274.547,173.705,255.563z"/>
				<path style="fill:#E2654D;" d="M73.769,252.541c0-12.662,5.827-23.96,14.941-31.371l-11.431-15.4
					c-13.811,10.914-22.686,27.801-22.686,46.771c0,0.965,0.027,1.925,0.073,2.879l19.219,0.023
					C73.816,254.484,73.769,253.518,73.769,252.541z"/>
				<path style="fill:#E2654D;" d="M114.187,212.124v-19.176c-13.943,0-26.757,4.801-36.909,12.824l11.431,15.4
					C95.663,215.517,104.527,212.124,114.187,212.124z"/>
				<path style="fill:#E2654D;" d="M73.884,255.443l-19.219-0.023c1.502,31.576,27.574,56.716,59.522,56.716V292.96
					C92.842,292.96,75.374,276.409,73.884,255.443z"/>
			</g>
			<g>
				<rect x="93.986" y="234.36" style="fill:#FDFFFF;" width="40.403" height="4.04"/>
				<rect x="93.986" y="245.134" style="fill:#FDFFFF;" width="40.403" height="4.04"/>
				<rect x="93.986" y="255.908" style="fill:#FDFFFF;" width="40.403" height="4.04"/>
				<rect x="93.986" y="266.683" style="fill:#FDFFFF;" width="40.403" height="4.04"/>
			</g>
			<g>
				<rect x="254.515" y="107.121" style="fill:#0E1165;" width="26.262" height="156.898"/>
				<rect x="254.515" y="268.76" style="fill:#0E1165;" width="26.262" height="8.054"/>
				<rect x="254.515" y="280.852" style="fill:#0E1165;" width="26.262" height="8.054"/>
				<rect x="254.515" y="292.944" style="fill:#0E1165;" width="26.262" height="8.054"/>
				<rect x="254.515" y="305.036" style="fill:#0E1165;" width="26.262" height="8.054"/>
				<polygon style="fill:#0E1165;" points="235.34,119.213 267.646,86.908 299.951,119.213 				"/>
			</g>
			<g>
				
					<rect x="308.798" y="135.979" transform="matrix(-1 -1.224647e-16 1.224647e-16 -1 643.859 428.8554)" style="fill:#FDFFFF;" width="26.262" height="156.898"/>
				
					<rect x="308.798" y="123.184" transform="matrix(-1 -1.224647e-16 1.224647e-16 -1 643.859 254.4229)" style="fill:#FDFFFF;" width="26.262" height="8.054"/>
				
					<rect x="308.798" y="111.092" transform="matrix(-1 -1.224647e-16 1.224647e-16 -1 643.859 230.2385)" style="fill:#FDFFFF;" width="26.262" height="8.054"/>
				
					<rect x="308.798" y="99" transform="matrix(-1 -1.224647e-16 1.224647e-16 -1 643.859 206.0541)" style="fill:#FDFFFF;" width="26.262" height="8.054"/>
				
					<rect x="308.798" y="86.908" transform="matrix(-1 -1.224647e-16 1.224647e-16 -1 643.859 181.8698)" style="fill:#FDFFFF;" width="26.262" height="8.054"/>
				<polygon style="fill:#FDFFFF;" points="354.235,280.785 321.93,313.091 289.624,280.785 				"/>
			</g>
			<rect x="189.046" y="199.612" style="fill:#E2654D;" width="9.369" height="107.743"/>
			<rect x="208.37" y="276.321" style="fill:#3459CC;" width="9.369" height="31.035"/>
			<rect x="227.693" y="228.305" style="fill:#FDFFFF;" width="9.369" height="79.051"/>
		</g>
		<g>
			<ellipse style="fill:#E2654D;" cx="138.3" cy="463.24" rx="74.07" ry="9.229"/>
			<rect x="64.23" y="356.004" style="fill:#E2654D;" width="148.14" height="107.236"/>
			<ellipse style="fill:#E2654D;" cx="138.3" cy="356.004" rx="74.07" ry="9.229"/>
			<path style="fill:none;stroke:#0E1165;stroke-width:2.7209;stroke-linecap:round;stroke-miterlimit:10;" d="M212.37,390.339
				c0,5.097-33.162,9.229-74.07,9.229s-74.07-4.132-74.07-9.229"/>
			<path style="fill:none;stroke:#0E1165;stroke-width:2.7209;stroke-linecap:round;stroke-miterlimit:10;" d="M212.37,426.573
				c0,5.097-33.162,9.229-74.07,9.229s-74.07-4.132-74.07-9.229"/>
			<g>
				<path style="fill:#0E1165;" d="M128.287,389.281c0,1.991-1.614,3.605-3.605,3.605s-3.604-1.614-3.604-3.605
					c0-1.991,1.614-3.605,3.604-3.605S128.287,387.29,128.287,389.281z"/>
				<path style="fill:#3459CC;" d="M141.904,389.281c0,1.991-1.614,3.605-3.605,3.605s-3.605-1.614-3.605-3.605
					c0-1.991,1.614-3.605,3.605-3.605S141.904,387.29,141.904,389.281z"/>
				<path style="fill:#E8BBC7;" d="M155.522,389.281c0,1.991-1.614,3.605-3.605,3.605c-1.991,0-3.605-1.614-3.605-3.605
					c0-1.991,1.614-3.605,3.605-3.605C153.908,385.676,155.522,387.29,155.522,389.281z"/>
			</g>
			<g>
				<path style="fill:#0E1165;" d="M128.287,426.128c0,1.991-1.614,3.605-3.605,3.605s-3.604-1.614-3.604-3.605
					s1.614-3.605,3.604-3.605S128.287,424.137,128.287,426.128z"/>
				<path style="fill:#3459CC;" d="M141.904,426.128c0,1.991-1.614,3.605-3.605,3.605s-3.605-1.614-3.605-3.605
					s1.614-3.605,3.605-3.605S141.904,424.137,141.904,426.128z"/>
				<circle style="fill:#E8BBC7;" cx="151.917" cy="426.128" r="3.605"/>
			</g>
			<g>
				<path style="fill:#0E1165;" d="M128.287,460.973c0,1.991-1.614,3.604-3.605,3.604s-3.604-1.614-3.604-3.604
					c0-1.991,1.614-3.605,3.604-3.605S128.287,458.982,128.287,460.973z"/>
				<path style="fill:#3459CC;" d="M141.904,460.973c0,1.991-1.614,3.604-3.605,3.604s-3.605-1.614-3.605-3.604
					c0-1.991,1.614-3.605,3.605-3.605S141.904,458.982,141.904,460.973z"/>
				<path style="fill:#E8BBC7;" d="M155.522,460.973c0,1.991-1.614,3.604-3.605,3.604c-1.991,0-3.605-1.614-3.605-3.604
					c0-1.991,1.614-3.605,3.605-3.605C153.908,457.368,155.522,458.982,155.522,460.973z"/>
			</g>
			<g>
				<path style="fill:#E2654D;" d="M138.3,362.475c-38.786,0-64.176-3.534-70.336-6.471c6.16-2.938,31.55-6.472,70.336-6.472
					s64.177,3.534,70.336,6.472C202.476,358.941,177.085,362.475,138.3,362.475z"/>
				<path style="fill:#0E1165;" d="M138.3,352.29c17.366,0,34.184,0.768,47.354,2.162c4.8,0.508,8.601,1.04,11.601,1.552
					c-3.001,0.512-6.801,1.043-11.601,1.551c-13.171,1.395-29.988,2.162-47.354,2.162c-17.366,0-34.184-0.768-47.355-2.162
					c-4.8-0.508-8.601-1.04-11.601-1.551c3-0.512,6.801-1.044,11.601-1.552C104.116,353.058,120.933,352.29,138.3,352.29
					 M138.3,346.775c-40.908,0-74.07,4.132-74.07,9.229c0,5.097,33.162,9.229,74.07,9.229s74.07-4.132,74.07-9.229
					C212.37,350.907,179.207,346.775,138.3,346.775L138.3,346.775z"/>
			</g>
		</g>
		<g>
			<path style="fill:none;stroke:#FDFFFF;stroke-width:10.0205;stroke-miterlimit:10;" d="M413.884,74.14L413.884,74.14
				c-8.779,0-15.895,7.117-15.895,15.895v27.815l-5.633,7.057l5.633,7.401v36.09c0,8.779,7.117,15.895,15.895,15.895l0,0"/>
			<path style="fill:none;stroke:#FDFFFF;stroke-width:10.0205;stroke-miterlimit:10;" d="M420.22,74.14L420.22,74.14
				c8.779,0,15.895,7.117,15.895,15.895v27.815l5.633,7.057l-5.633,7.401v36.09c0,8.779-7.117,15.895-15.895,15.895h0"/>
		</g>
		<g>
			<circle style="fill:none;stroke:#3459CC;stroke-width:5.5153;stroke-miterlimit:10;" cx="235.14" cy="411.551" r="47.833"/>
			
				<ellipse style="fill:none;stroke:#3459CC;stroke-width:5.5153;stroke-miterlimit:10;" cx="235.14" cy="411.551" rx="33.163" ry="47.833"/>
			
				<ellipse style="fill:none;stroke:#3459CC;stroke-width:5.5153;stroke-miterlimit:10;" cx="235.14" cy="411.551" rx="16.826" ry="47.833"/>
			
				<line style="fill:none;stroke:#3459CC;stroke-width:5.5153;stroke-miterlimit:10;" x1="282.973" y1="411.551" x2="187.307" y2="411.551"/>
			
				<line style="fill:none;stroke:#3459CC;stroke-width:5.5153;stroke-miterlimit:10;" x1="235.14" y1="459.384" x2="235.14" y2="363.718"/>
		</g>
	</g>
</g>
<g id="TEXT">
	<g>
		<text transform="matrix(1 0 0 1 83.596 169.3415)" style="fill:#8EA6FF; font-family:'Exo2-Black'; font-size:82.6554px;">API</text>
		<text transform="matrix(1 0 0 1 83.596 164.2917)" style="fill:#0E1165; font-family:'Exo2-Black'; font-size:82.6554px;">API</text>
	</g>
</g>
</svg>
