<?xml version="1.0" encoding="utf-8"?>
<!-- Generator: Adobe Illustrator 27.5.0, SVG Export Plug-In . SVG Version: 6.00 Build 0)  -->
<svg version="1.1" id="Bag_fisrt_plan" xmlns="http://www.w3.org/2000/svg" xmlns:xlink="http://www.w3.org/1999/xlink" x="0px"
	 y="0px" viewBox="0 0 500 500" style="enable-background:new 0 0 500 500;" xml:space="preserve">
<rect style="fill:#FFFFFF;" width="500" height="500"/>
<g>
	<g>
		<g>
			<path style="fill:#2181F1;" d="M356.595,166.143c-0.412,0.44-0.091,1.993-0.662,2.482c-1.702,1.458-4.872-0.296-6.265-1.169
				c-4.727-2.964-7.308-8.279-11.969-11.327c-1.232-0.806-4.749-1.835-1.864-3.232c-1.145-2.926-5.99-6.143-9.01-6.55
				c0.211-6.686-1.854-4.67-7.731-6.542c-4.683-1.492-9.939-6.29-17.267-6.907c-2.549,0.053-3.717-2.696-5.243-4.368
				c2.261-1.222,6.97,0.135,9.832-0.187c2.824-0.318,5.474-0.658,8.426-0.44c1.826,0.135,4.635,0.12,6.83,0.52
				c-15.747-9.006-33.507-14.98-52.615-17.065c-34.326-3.745-67.114,5.693-93.517,24.33c5.08-1.306,9.585-1.227,12.171-0.945
				c3.337,0.364,12.382,2.06,12.267-1.009c-0.116-3.068-0.241-3.983-3.602-4.124c-3.362-0.142-10.998-0.299-4.579-3.426
				c6.419-3.127,13.292-2.152,15.715-1.662c2.423,0.489,8.547-1.994,11.856-3.434c3.309-1.44,11.88-3.656,6.504,2.286
				c-5.376,5.942-10.321,12.06-10.321,12.06s-8.554,4.115,1.527,2.514c6.213-0.987,10.133-2.912,13.848-3.646
				c-5.217-1.055-9.266-2.744-9.193-5.451c4.219-1.44,9.627,1.518,14.062,1.157c2.415-0.197,4.625-1.368,7.187-1.402
				c4.287-0.057,8.69,1.193,12.796,2.232c2.768,0.701,7.793,3.087,10.158,0.516c-2.273-2.588-5.316-5.259-8.217-7.141
				c-3.955-2.564-12.744-1.579-14.464-5.876c3.63-0.544,6.786-1.537,10.544-1.151c5.988,0.615,11.969,1.311,17.953,1.964
				c7.011,0.765,16.676,0.037,23.12,3.198c2.106,3.913-1.198,2.479-4.254,2.361c-6.412-0.247-15.821,0.23-21.63,2.908
				c5.837,2.912-1.052,6.843-0.828,10.592c-2.467,1.053-5.71,0.451-8.357,0.634c2.348,1.26,5.025,1.798,7.408,3.003
				c-3.246,0.499-6.406,1.546-9.674,1.878c0.09-0.125,0.187-0.243,0.293-0.356c-2.07-1.555-6.745-2.926-6.961-5.576
				c1.381,0.057,1.943-0.509,2.298-1.734c-0.84-0.003-6.642,0.011-13.036-0.526c5.883,1.957,10.048,2.336,10.136,1.535
				c0.097-0.89,0.231,4.077-3.167,10.46c-3.398,6.383,21.365,10.605,21.842,12.374c0.478,1.768,0.939,9.923,6.375,9.616
				c5.437-0.307,3.91-5.877,3.91-5.877l4.573-2.118l0.689-6.313l-4-3.138l4.755-3.78c0,0,7.353,5.551,16.952,13.352l10.962-2.856
				l14.22,15.059c0,0,2.137,3.835-0.388,3.56c-2.526-0.276-21.342,0.823-21.342,0.823l-3.811,4.087c0,0,6.577,1.168,8.652,0.944
				c2.075-0.224,6.678,2.98,6.678,2.98s7.19,4.387,3.255,5.308c-3.935,0.921-18.958,2.434-18.958,2.434s1.188-4.373-2.326-4.306
				c-3.514,0.067-4.736,7.137-7.948,7.687c-3.212,0.55-9.067-1.89-9.893,0.722c-0.826,2.611,0.251,6.781-0.922,8.454
				c-1.174,1.673-9.669,5.249-9.669,5.249l-4.624,17.009l-8.466-12.584l-8.648,0.857l-3.803,1.836l-6.105-2.917l-13.91,4.786
				l2.97,18.174l7.75,6.273l7.732-7.864l8.1,4.164l-4.471,7.97l-0.416,3.814l11.796,1.287l3.777,8.066l-5.136,4.392l6.949,4.36
				l7.521,0.821l1.279,2.778c2.394-3.144,7.354-6.377,11.025-6.977c5.054-0.826,4.163,2.393,3.404,6.018
				c3.85,1.577,3.491-3.93,6.457-4.279c2.373-0.28,4.22,2.369,6.394,3.04c1.59,0.492,3.093-0.13,4.555-0.061
				c5.812,0.275,11.346,5.569,15.475,9.329c1.564,1.424,2.516,3.129,4.558,3.931c1.496,0.588,3.88-0.219,5.251,0.543
				c1.383,0.769,3.582,4.492,3.435,6.335c-0.258,3.253-4.465,3.735-5.156,6.218c-0.792,2.844,2.587,4.885,5.284,4.658
				c2.022-0.17,2.549-1.856,4.24-1.896c0.626-0.015,1.174-0.288,1.852-0.018c1.655,0.658,1.007,2.057,1.729,2.583
				c2.05,1.493,4.779,0.802,7.225,1.373c4.906,1.145,3.819,5.078,8.621,5.88c0.706,9.121-7.569,13.344-10.15,21.398
				c-1.551,4.841-3.63,6.268-7.525,9.457c-4,3.275-7.195,6.896-11.764,9.43c-4.115,2.282-8.785,4.021-12.228,7.238
				c-3.193,2.984-3.912,4.46-8.38,5.549c-2.158,0.526-4.067,0.32-5.065,2.294c-1.285,2.544,0.327,3.432-2.661,5.271
				c-3.159,1.945-7.649,0.101-10.909,1.675c-0.735,0.355-0.749,1.372-1.23,1.653c-1,0.585-2.689-0.063-3.578,0.676
				c-0.744,0.618-0.759,2.625-1.139,3.572c-0.836,2.087-1.28,2.607-2.946,4.279c-2.458,2.466-6.168,5.73-9.061,7.676
				c58.153-7.574,106.621-52.471,118.509-112.598c-0.389-1.638-0.689-3.055-0.751-3.743c-0.202-2.273,0.073-13.049,2.233-20.468
				c0.409-1.403,0.849-2.706,1.294-3.9c0.046-32.038-10.554-62.027-28.698-86.014C360.472,165.339,358.556,164.051,356.595,166.143z
				 M307.308,149.628c-0.044,1.965,1.178,3.025,3,2.868c1.181,4.43-4.813,0.71-6.037,0.073c-2.359-1.227-16.383-3.762-15.752-6.728
				c0.44-2.067,3.55-0.803,3.387-3.481c-0.121-1.989-4.117-4.555-5.425-5.425c-2.587-1.72-10.401-2.33-11.668-5.1
				c-1.4-3.063,2.568-3.987,4.996-4.04c5.779-0.126,9.651,4.566,14.457,6.304c4.185,3.405,17.601,8.864,18.996,15.872
				C311.37,149.915,309.16,149.261,307.308,149.628z M276.96,249.387c-0.461,1.22-1.758,1.257-2.787,0.387
				c0.148-1.619,1.89-0.919,3.058-0.808L276.96,249.387z M271.184,240.428l-5.044-1.226c-1.538-0.814-6.196,0.151-5.54-2.652
				c3.433-0.304,8.662-0.051,11.931,1.38c1.965,0.861,2.905,2.684,4.828,3.677c1.808,0.933,3.007,0.888,3.734,2.964
				C277.015,245.105,274.818,240.866,271.184,240.428z M293.883,249.65c-0.787,0.545-1.182,2.235-1.932,3.004
				c-0.442-2.666-3.238-2.739-4.437-4.654c0.757-1.425,2.284-0.802,3.628-0.667l1.755,0.417c1.386,0.379,4.655,0.203,4.976,1.748
				C296.714,249.608,294.956,248.907,293.883,249.65z M302.36,252.404c-2.654,2.454-1.377-1.613-1.328-2.867l-0.493,0.396
				C301.518,248.215,304.451,250.471,302.36,252.404z M326.145,186.314c-2.166-3.751,0.77-5.156,1.881-8.798l1.286,0.591
				c-1.527,6.403,2.595,8.351,6.634,11.925C332.681,189.771,328.066,189.642,326.145,186.314z"/>
		</g>
		<g>
			<path style="fill:#2181F1;" d="M330.787,134.129c-0.617-0.42-1.237-0.835-1.861-1.246
				C329.516,133.339,330.131,133.766,330.787,134.129z"/>
		</g>
		<g>
			<path style="fill:#2181F1;" d="M271.693,328.862c-2.701-1.792-6.152-3.431-6.398-6.836c-0.164-2.271,0.955-3.193,0.108-5.536
				c-0.697-1.928-2.108-3.279-3.601-4.668c-3.326-3.095-6.684-3.756-1.982-6.888c1.67-1.112,3.269-0.605,2.946-3.166
				c-0.283-2.246-2.549-2.403-2.451-5.365c0.069-2.071,1.902-6.027,3.568-7.472c1.504-1.305,3.05-0.588,4.544-1.525
				c2.479-1.553,2.412-5.579,3.123-8.913l-4.408-4.079l-5.965-0.651l-9.046-7.272l-3.818-6.27l-8.656-3.196l-6.832-7.536
				l-8.009-0.874l-19.641-9.812l-2.206-12.796l-8.915-9.077l-6.1-10.121l-2.225-0.243l8.226,15.403l2.243,4.199l-12.086-13.025
				l-4.522-12.2l-7.971-9.48l1.491-17.792l6.019-5.647l-10.108-0.202l-2.188-6.767l-3.689-3.329l-3.012,3.949l-2.186-7.893
				l-3.803,0.523c-20.437,21.745-34.298,50.259-37.813,82.473c-8.461,77.548,46.199,147.125,122.088,155.406
				c8.44,0.921,16.786,1.04,24.968,0.426c-0.924-0.468-1.767-1.167-2.451-2.118c-4.025-5.599,1.922-7.364,4.04-11.602
				c2.673-5.347,2.12-11.032,5.398-16.405c3.344-5.481,3.949-12.384,9.815-18.867c0.88-1.632,3.251-6.81,2.276-8.801
				C281.194,332.229,274.32,330.605,271.693,328.862z"/>
		</g>
		<g>
			<path style="fill:#FFFFFF;" d="M388.473,275.512c0.061,0.689,0.362,2.105,0.751,3.743c0.81-4.098,1.461-8.262,1.923-12.494
				c0.573-5.249,0.846-10.458,0.854-15.617c-0.445,1.193-0.885,2.497-1.294,3.9C388.546,262.463,388.27,273.239,388.473,275.512z"/>
		</g>
		<g>
			<path style="fill:#FFFFFF;" d="M330.787,134.129c-0.656-0.363-1.271-0.79-1.861-1.246c-2.368-1.558-4.784-3.049-7.253-4.461
				c-2.196-0.4-5.005-0.385-6.83-0.52c-2.952-0.218-5.602,0.122-8.426,0.44c-2.863,0.322-7.572-1.035-9.832,0.187
				c1.526,1.672,2.694,4.421,5.243,4.368c7.329,0.617,12.584,5.416,17.267,6.907c5.877,1.872,7.942-0.145,7.731,6.542
				c3.021,0.407,7.865,3.624,9.01,6.55c-2.885,1.397,0.631,2.426,1.864,3.232c4.662,3.048,7.243,8.363,11.969,11.327
				c1.393,0.874,4.562,2.627,6.265,1.169c0.571-0.489,0.25-2.042,0.662-2.482c1.961-2.092,3.877-0.804,6.707-1.012
				C354.222,153.127,343.254,142.629,330.787,134.129z"/>
		</g>
		<g>
			<path style="fill:#FFFFFF;" d="M277.358,241.607c-1.923-0.993-2.863-2.816-4.828-3.677c-3.269-1.432-8.498-1.684-11.931-1.38
				c-0.655,2.802,4.003,1.837,5.54,2.652l5.044,1.226c3.634,0.439,5.831,4.677,9.909,4.144
				C280.365,242.495,279.166,242.54,277.358,241.607z"/>
		</g>
		<g>
			<path style="fill:#FFFFFF;" d="M292.897,247.749l-1.755-0.417c-1.344-0.135-2.871-0.758-3.628,0.667
				c1.198,1.915,3.995,1.988,4.437,4.654c0.75-0.768,1.146-2.458,1.932-3.004c1.073-0.743,2.83-0.042,3.99-0.153
				C297.553,247.953,294.283,248.128,292.897,247.749z"/>
		</g>
		<g>
			<path style="fill:#FFFFFF;" d="M300.538,249.934l0.493-0.396c-0.049,1.253-1.326,5.32,1.328,2.867
				C304.451,250.471,301.518,248.215,300.538,249.934z"/>
		</g>
		<g>
			<path style="fill:#FFFFFF;" d="M274.173,249.775c1.029,0.87,2.326,0.833,2.787-0.387l0.271-0.421
				C276.063,248.856,274.322,248.156,274.173,249.775z"/>
		</g>
		<g>
			<path style="fill:#FFFFFF;" d="M348.729,305.804c-2.446-0.571-5.175,0.12-7.225-1.373c-0.722-0.526-0.074-1.925-1.729-2.583
				c-0.678-0.27-1.226,0.004-1.852,0.018c-1.691,0.04-2.218,1.725-4.24,1.896c-2.697,0.227-6.075-1.814-5.284-4.658
				c0.691-2.483,4.898-2.965,5.156-6.218c0.146-1.843-2.052-5.566-3.435-6.335c-1.37-0.762-3.755,0.044-5.251-0.543
				c-2.042-0.802-2.995-2.508-4.558-3.931c-4.129-3.76-9.663-9.054-15.475-9.329c-1.462-0.069-2.964,0.552-4.555,0.061
				c-2.174-0.672-4.021-3.32-6.394-3.04c-2.966,0.349-2.607,5.857-6.457,4.279c0.759-3.625,1.65-6.844-3.404-6.018
				c-3.671,0.6-8.631,3.833-11.025,6.977l1.122,2.437l-0.34,3.115l-2.233-2.067c-0.711,3.334-0.644,7.36-3.123,8.913
				c-1.494,0.937-3.04,0.22-4.544,1.525c-1.666,1.445-3.499,5.401-3.568,7.472c-0.099,2.962,2.167,3.119,2.451,5.365
				c0.323,2.562-1.277,2.055-2.946,3.166c-4.703,3.132-1.345,3.793,1.982,6.888c1.493,1.389,2.904,2.74,3.601,4.668
				c0.848,2.344-0.272,3.265-0.108,5.536c0.246,3.406,3.697,5.044,6.398,6.836c2.627,1.743,9.501,3.367,10.769,5.954
				c0.975,1.99-1.396,7.169-2.276,8.801c-5.865,6.483-6.471,13.386-9.815,18.867c-3.277,5.373-2.725,11.058-5.398,16.405
				c-2.118,4.238-8.065,6.003-4.04,11.602c0.684,0.951,1.527,1.65,2.451,2.118c2.459-0.184,4.903-0.439,7.33-0.755
				c2.893-1.945,6.603-5.209,9.061-7.676c1.667-1.672,2.11-2.192,2.946-4.279c0.38-0.948,0.395-2.954,1.139-3.572
				c0.89-0.739,2.578-0.091,3.578-0.676c0.481-0.281,0.495-1.298,1.23-1.653c3.26-1.574,7.751,0.269,10.909-1.675
				c2.988-1.84,1.376-2.727,2.661-5.271c0.998-1.975,2.907-1.769,5.065-2.294c4.468-1.088,5.187-2.565,8.38-5.549
				c3.443-3.217,8.112-4.956,12.228-7.238c4.569-2.534,7.764-6.156,11.764-9.43c3.895-3.189,5.974-4.616,7.525-9.457
				c2.581-8.055,10.855-12.278,10.15-21.398C352.549,310.882,353.636,306.949,348.729,305.804z"/>
		</g>
		<g>
			<path style="fill:#FFFFFF;" d="M313.16,158.785l-10.962,2.856c-9.6-7.801-16.952-13.352-16.952-13.352l-4.755,3.78l4,3.138
				l-0.689,6.313l-4.573,2.118c0,0,1.526,5.57-3.91,5.877c-5.436,0.307-5.897-7.847-6.375-9.616
				c-0.478-1.768-25.24-5.99-21.842-12.374c3.398-6.383,3.265-11.35,3.167-10.46c-0.087,0.801-4.252,0.423-10.136-1.535
				c-3.095-0.26-6.328-0.649-9.206-1.231c-3.715,0.734-7.635,2.659-13.848,3.646c-10.08,1.602-1.527-2.514-1.527-2.514
				s4.945-6.118,10.321-12.06c5.376-5.942-3.195-3.726-6.504-2.286c-3.309,1.44-9.433,3.924-11.856,3.434
				c-2.423-0.49-9.296-1.465-15.715,1.662c-6.42,3.127,1.217,3.285,4.579,3.426c3.361,0.142,3.487,1.056,3.602,4.124
				c0.115,3.068-8.93,1.373-12.267,1.009c-2.587-0.282-7.092-0.361-12.171,0.945c-7.722,5.45-14.892,11.693-21.4,18.617l3.803-0.523
				l2.186,7.893l3.012-3.949l3.689,3.329l2.188,6.767l10.108,0.202l-6.019,5.647l-1.491,17.792l7.971,9.48l4.522,12.2l12.086,13.025
				l-2.243-4.199l-8.226-15.403l2.225,0.243l6.1,10.121l8.915,9.077l2.206,12.796l19.641,9.812l8.009,0.874l6.832,7.536l8.656,3.196
				l3.818,6.27l9.046,7.272l5.965,0.651l4.408,4.079c0.259-1.216,0.619-2.342,1.247-3.219c0.063-0.088,0.137-0.177,0.204-0.266
				l-1.279-2.778l-7.521-0.821l-6.949-4.36l5.136-4.392l-3.777-8.066l-11.796-1.287l0.416-3.814l4.471-7.97l-8.1-4.164l-7.732,7.864
				l-7.75-6.273l-2.97-18.174l13.91-4.786l6.105,2.917l3.803-1.836l8.648-0.857l8.466,12.584l4.624-17.009
				c0,0,8.495-3.576,9.669-5.249c1.174-1.673,0.096-5.843,0.922-8.454c0.826-2.611,6.681-0.172,9.893-0.722
				c3.212-0.55,4.434-7.621,7.948-7.687c3.514-0.067,2.326,4.306,2.326,4.306s15.023-1.512,18.958-2.434
				c3.935-0.921-3.255-5.308-3.255-5.308s-4.603-3.204-6.678-2.98c-2.075,0.224-8.652-0.944-8.652-0.944l3.811-4.087
				c0,0,18.817-1.099,21.342-0.823c2.526,0.276,0.388-3.56,0.388-3.56L313.16,158.785z"/>
		</g>
		<g>
			<path style="fill:#FFFFFF;" d="M272.798,275.273c-0.628,0.877-0.988,2.003-1.247,3.219l2.233,2.067l0.34-3.115l-1.122-2.437
				C272.934,275.095,272.861,275.184,272.798,275.273z"/>
		</g>
		<g>
			<path style="fill:#FFFFFF;" d="M329.312,178.107l-1.286-0.591c-1.111,3.643-4.047,5.047-1.881,8.798
				c1.921,3.327,6.536,3.457,9.801,3.717C331.907,186.458,327.785,184.51,329.312,178.107z"/>
		</g>
		<g>
			<path style="fill:#FFFFFF;" d="M313.263,149.97c-1.395-7.008-14.811-12.467-18.996-15.872c-4.805-1.738-8.677-6.43-14.457-6.304
				c-2.428,0.053-6.396,0.978-4.996,4.04c1.267,2.771,9.081,3.38,11.668,5.1c1.308,0.87,5.304,3.436,5.425,5.425
				c0.163,2.678-2.948,1.414-3.387,3.481c-0.631,2.966,13.393,5.501,15.752,6.728c1.223,0.636,7.218,4.357,6.037-0.073
				c-1.821,0.157-3.044-0.903-3-2.868C309.16,149.261,311.37,149.915,313.263,149.97z"/>
		</g>
		<g>
			<path style="fill:#FFFFFF;" d="M271.753,119.147c-5.984-0.653-11.965-1.349-17.953-1.964c-3.758-0.386-6.914,0.607-10.544,1.151
				c1.72,4.297,10.509,3.311,14.464,5.876c2.901,1.882,5.944,4.552,8.217,7.141c-2.365,2.571-7.39,0.185-10.158-0.516
				c-4.105-1.04-8.509-2.289-12.796-2.232c-2.562,0.034-4.772,1.206-7.187,1.402c-4.436,0.361-9.843-2.597-14.062-1.157
				c-0.073,2.707,3.975,4.396,9.193,5.451c2.313-0.457,4.547-0.455,7.204,0.53c0.688,0.255,1.353,0.485,2.002,0.701
				c6.395,0.537,12.196,0.523,13.036,0.526c-0.356,1.225-0.917,1.791-2.298,1.734c0.216,2.649,4.891,4.02,6.961,5.576
				c-0.106,0.112-0.203,0.231-0.293,0.356c3.268-0.332,6.428-1.379,9.674-1.878c-2.384-1.205-5.061-1.743-7.408-3.003
				c2.646-0.182,5.89,0.419,8.357-0.634c-0.224-3.75,6.666-7.681,0.828-10.592c5.809-2.677,15.218-3.155,21.63-2.908
				c3.056,0.118,6.36,1.553,4.254-2.361C288.429,119.185,278.765,119.912,271.753,119.147z"/>
		</g>
		<g>
			<path style="fill:#FFFFFF;" d="M230.927,134.299c2.878,0.582,6.111,0.971,9.206,1.231c-0.649-0.216-1.314-0.446-2.002-0.701
				C235.474,133.844,233.24,133.842,230.927,134.299z"/>
		</g>
	</g>
	<g>
		<path style="fill:#F73A8A;" d="M280.383,155.378c-0.204,6.843,2.084,17.046,9.568,32.245c7.485-15.199,9.772-25.402,9.568-32.245
			C299.156,143.174,280.746,143.174,280.383,155.378z M289.951,161.922c-3.159,0-5.72-2.561-5.72-5.72s2.561-5.72,5.72-5.72
			s5.72,2.561,5.72,5.72S293.111,161.922,289.951,161.922z"/>
	</g>
	<path style="fill:#2735AC;" d="M336.051,282.888c-0.001,0-0.001,0-0.002,0c-2.316-0.005-4.68-0.041-7.025-0.106
		c-0.552-0.016-0.987-0.476-0.972-1.028c0.016-0.552,0.472-0.978,1.028-0.972c2.328,0.065,4.674,0.102,6.973,0.106
		c0.553,0.001,0.999,0.45,0.998,1.002C337.05,282.441,336.602,282.888,336.051,282.888z M343.051,282.81
		c-0.541,0-0.985-0.431-1-0.975c-0.014-0.552,0.422-1.011,0.975-1.025c2.368-0.061,4.712-0.154,6.965-0.278
		c0.575-0.057,1.023,0.392,1.054,0.942c0.031,0.552-0.392,1.023-0.942,1.054c-2.273,0.126-4.637,0.221-7.025,0.282
		C343.067,282.81,343.059,282.81,343.051,282.81z M322.06,282.5c-0.018,0-0.035,0-0.053-0.001c-2.289-0.12-4.647-0.27-7.009-0.446
		c-0.551-0.041-0.964-0.521-0.923-1.071c0.041-0.552,0.52-0.968,1.071-0.923c2.347,0.175,4.689,0.324,6.964,0.442
		c0.552,0.029,0.975,0.499,0.947,1.051C323.029,282.086,322.588,282.5,322.06,282.5z M357.029,282.033
		c-0.513,0-0.949-0.392-0.995-0.912c-0.049-0.55,0.358-1.035,0.908-1.084c2.354-0.208,4.685-0.454,6.926-0.732
		c0.552-0.076,1.048,0.32,1.115,0.869c0.068,0.548-0.321,1.048-0.869,1.115c-2.264,0.281-4.617,0.53-6.996,0.74
		C357.088,282.032,357.059,282.033,357.029,282.033z M308.098,281.457c-0.032,0-0.065-0.002-0.098-0.005
		c-2.298-0.222-4.647-0.474-6.981-0.749c-0.548-0.064-0.94-0.561-0.876-1.11c0.064-0.549,0.559-0.945,1.11-0.876
		c2.321,0.273,4.656,0.523,6.941,0.745c0.55,0.053,0.952,0.542,0.898,1.092C309.042,281.07,308.606,281.457,308.098,281.457z
		 M370.918,280.299c-0.481,0-0.904-0.347-0.985-0.837c-0.091-0.545,0.278-1.06,0.823-1.149c2.337-0.388,4.636-0.82,6.834-1.288
		c0.538-0.115,1.07,0.229,1.187,0.77c0.114,0.54-0.23,1.071-0.77,1.187c-2.228,0.473-4.557,0.912-6.924,1.304
		C371.027,280.295,370.972,280.299,370.918,280.299z M294.194,279.821c-0.045,0-0.091-0.003-0.138-0.01
		c-2.299-0.316-4.614-0.659-6.943-1.025c-0.546-0.086-0.918-0.598-0.833-1.143c0.086-0.546,0.594-0.914,1.143-0.833
		c2.317,0.364,4.619,0.705,6.906,1.021c0.547,0.075,0.93,0.58,0.854,1.127C295.115,279.459,294.686,279.821,294.194,279.821z
		 M280.365,277.642c-0.058,0-0.116-0.005-0.175-0.016c-2.288-0.404-4.588-0.833-6.9-1.285c-0.542-0.106-0.896-0.632-0.789-1.174
		c0.106-0.541,0.622-0.897,1.174-0.789c2.299,0.45,4.587,0.877,6.863,1.279c0.544,0.096,0.907,0.614,0.81,1.158
		C281.264,277.301,280.842,277.642,280.365,277.642z M384.603,277.373c-0.441,0-0.845-0.294-0.965-0.741
		c-0.144-0.533,0.174-1.082,0.707-1.225c2.288-0.613,4.523-1.284,6.645-1.995c0.524-0.173,1.09,0.106,1.266,0.631
		c0.176,0.523-0.107,1.09-0.631,1.266c-2.159,0.724-4.435,1.406-6.762,2.03C384.776,277.362,384.689,277.373,384.603,277.373z
		 M266.625,274.955c-0.069,0-0.14-0.007-0.211-0.023c-2.273-0.487-4.557-0.997-6.849-1.53c-0.538-0.125-0.872-0.662-0.747-1.2
		c0.124-0.538,0.663-0.88,1.2-0.747c2.28,0.529,4.552,1.037,6.815,1.522c0.54,0.115,0.884,0.647,0.768,1.188
		C267.501,274.634,267.086,274.955,266.625,274.955z M397.86,272.903c-0.391,0-0.762-0.23-0.922-0.613
		c-0.214-0.51,0.026-1.096,0.535-1.309c2.196-0.921,4.299-1.911,6.249-2.942c0.49-0.259,1.095-0.071,1.352,0.416
		c0.259,0.488,0.072,1.094-0.416,1.352c-2.004,1.06-4.16,2.075-6.411,3.019C398.121,272.879,397.989,272.903,397.86,272.903z
		 M252.991,271.784c-0.081,0-0.162-0.01-0.244-0.03c-2.257-0.565-4.521-1.153-6.791-1.763c-0.534-0.144-0.85-0.692-0.706-1.226
		c0.144-0.533,0.694-0.848,1.225-0.706c2.259,0.607,4.512,1.191,6.758,1.755c0.536,0.134,0.861,0.677,0.727,1.213
		C253.847,271.481,253.438,271.784,252.991,271.784z M239.472,268.153c-0.091,0-0.184-0.013-0.275-0.038l-0.255-0.073
		c-2.175-0.625-4.333-1.265-6.475-1.916c-0.528-0.161-0.827-0.72-0.666-1.248c0.161-0.529,0.724-0.825,1.248-0.666
		c2.132,0.649,4.28,1.285,6.443,1.907l0.255,0.072c0.531,0.152,0.838,0.706,0.687,1.236
		C240.307,267.867,239.907,268.153,239.472,268.153z M410.19,266.328c-0.32,0-0.635-0.153-0.828-0.438
		c-0.31-0.457-0.192-1.079,0.265-1.39c1.954-1.329,3.768-2.75,5.393-4.224c0.409-0.371,1.041-0.341,1.412,0.068
		s0.341,1.041-0.068,1.412c-1.693,1.537-3.582,3.016-5.612,4.397C410.58,266.272,410.384,266.328,410.19,266.328z M226.077,264.071
		c-0.102,0-0.206-0.016-0.308-0.049c-2.238-0.723-4.458-1.462-6.659-2.215c-0.522-0.179-0.801-0.747-0.622-1.27
		c0.179-0.523,0.746-0.799,1.27-0.623c2.19,0.749,4.399,1.484,6.626,2.205c0.525,0.17,0.814,0.733,0.644,1.259
		C226.892,263.802,226.499,264.071,226.077,264.071z M212.83,259.536c-0.113,0-0.228-0.018-0.34-0.06
		c-2.213-0.801-4.407-1.616-6.579-2.446c-0.516-0.197-0.774-0.775-0.577-1.292c0.197-0.517,0.776-0.775,1.291-0.576
		c2.161,0.825,4.343,1.637,6.545,2.434c0.519,0.188,0.788,0.762,0.6,1.28C213.623,259.283,213.239,259.536,212.83,259.536z
		 M420.454,256.909c-0.214,0-0.431-0.068-0.613-0.211c-0.436-0.339-0.515-0.967-0.175-1.403c1.419-1.825,2.631-3.755,3.603-5.736
		c0.242-0.495,0.842-0.7,1.338-0.458c0.496,0.243,0.7,0.842,0.457,1.338c-1.031,2.104-2.316,4.151-3.819,6.085
		C421.048,256.776,420.753,256.909,420.454,256.909z M199.75,254.538c-0.124,0-0.251-0.023-0.373-0.072
		c-2.186-0.882-4.348-1.776-6.486-2.684c-0.508-0.216-0.746-0.803-0.53-1.311s0.803-0.745,1.311-0.53
		c2.127,0.903,4.278,1.794,6.453,2.669c0.512,0.207,0.76,0.789,0.553,1.302C200.521,254.302,200.146,254.538,199.75,254.538z
		 M186.864,249.061c-0.137,0-0.275-0.028-0.408-0.088c-2.124-0.95-4.27-1.937-6.38-2.932c-0.499-0.235-0.713-0.831-0.478-1.331
		c0.236-0.5,0.83-0.713,1.331-0.478c2.098,0.989,4.232,1.97,6.344,2.915c0.504,0.226,0.729,0.817,0.504,1.321
		C187.611,248.84,187.246,249.061,186.864,249.061z M426.53,244.433c-0.077,0-0.155-0.009-0.232-0.027
		c-0.537-0.128-0.869-0.667-0.741-1.205c0.518-2.172,0.798-4.432,0.834-6.716c0.009-0.552,0.431-0.997,1.016-0.984
		c0.553,0.009,0.993,0.463,0.984,1.016c-0.038,2.429-0.337,4.835-0.889,7.148C427.393,244.124,426.982,244.433,426.53,244.433z
		 M174.201,243.085c-0.149,0-0.301-0.034-0.444-0.105c-2.091-1.041-4.196-2.115-6.254-3.194c-0.489-0.256-0.678-0.861-0.421-1.35
		c0.256-0.489,0.859-0.678,1.35-0.421c2.046,1.073,4.138,2.141,6.216,3.175c0.495,0.246,0.696,0.846,0.45,1.341
		C174.922,242.882,174.568,243.085,174.201,243.085z M161.803,236.578c-0.164,0-0.33-0.04-0.483-0.125
		c-2.061-1.142-4.115-2.311-6.105-3.477c-0.477-0.279-0.637-0.892-0.357-1.368c0.279-0.477,0.892-0.637,1.368-0.357
		c1.976,1.157,4.016,2.319,6.063,3.453c0.483,0.268,0.658,0.877,0.39,1.359C162.496,236.392,162.155,236.578,161.803,236.578z
		 M426.808,230.54c-0.476,0-0.897-0.34-0.983-0.824c-0.385-2.153-0.975-4.374-1.753-6.602c-0.182-0.521,0.093-1.092,0.614-1.273
		c0.524-0.181,1.092,0.093,1.275,0.614c0.813,2.328,1.43,4.652,1.833,6.91c0.098,0.543-0.265,1.063-0.809,1.16
		C426.925,230.535,426.866,230.54,426.808,230.54z M149.722,229.499c-0.18,0-0.362-0.048-0.526-0.15
		c-2.016-1.251-4.009-2.525-5.922-3.787c-0.461-0.304-0.588-0.924-0.285-1.385c0.304-0.461,0.925-0.588,1.385-0.285
		c1.898,1.251,3.875,2.516,5.876,3.757c0.469,0.291,0.614,0.908,0.322,1.377C150.383,229.331,150.057,229.499,149.722,229.499z
		 M138.035,221.79c-0.199,0-0.399-0.059-0.574-0.182c-1.94-1.363-3.854-2.753-5.69-4.134c-0.441-0.332-0.53-0.959-0.198-1.4
		c0.332-0.441,0.958-0.53,1.4-0.198c1.819,1.368,3.716,2.746,5.638,4.096c0.452,0.317,0.561,0.941,0.244,1.393
		C138.659,221.643,138.35,221.79,138.035,221.79z M422.281,217.347c-0.367,0-0.721-0.203-0.896-0.554
		c-0.984-1.972-2.128-3.99-3.398-5.999c-0.296-0.466-0.157-1.084,0.31-1.379c0.467-0.296,1.084-0.156,1.38,0.31
		c1.308,2.065,2.484,4.143,3.498,6.175c0.247,0.494,0.046,1.095-0.448,1.341C422.583,217.313,422.431,217.347,422.281,217.347z
		 M126.849,213.371c-0.221,0-0.443-0.073-0.628-0.223c-1.847-1.495-3.659-3.021-5.386-4.535c-0.415-0.364-0.456-0.996-0.092-1.411
		c0.364-0.414,0.996-0.456,1.411-0.092c1.706,1.497,3.498,3.005,5.324,4.483c0.43,0.347,0.496,0.977,0.149,1.406
		C127.429,213.244,127.141,213.371,126.849,213.371z M414.843,205.511c-0.304,0-0.603-0.137-0.799-0.397
		c-1.344-1.78-2.813-3.591-4.366-5.382c-0.361-0.417-0.316-1.049,0.101-1.411c0.417-0.362,1.048-0.318,1.411,0.1
		c1.583,1.825,3.08,3.671,4.45,5.487c0.333,0.441,0.245,1.068-0.195,1.401C415.264,205.445,415.053,205.511,414.843,205.511z
		 M116.336,204.13c-0.25,0-0.499-0.093-0.693-0.279c-1.729-1.661-3.397-3.347-4.959-5.012c-0.378-0.403-0.358-1.036,0.044-1.414
		c0.403-0.378,1.036-0.358,1.414,0.044c1.539,1.64,3.183,3.301,4.887,4.939c0.398,0.383,0.411,1.016,0.028,1.414
		C116.861,204.027,116.599,204.13,116.336,204.13z M405.693,194.928c-0.261,0-0.521-0.101-0.717-0.302
		c-1.573-1.615-3.246-3.249-4.974-4.856c-0.404-0.376-0.427-1.009-0.051-1.413c0.377-0.405,1.01-0.426,1.414-0.051
		c1.75,1.629,3.447,3.286,5.044,4.924c0.385,0.396,0.377,1.029-0.02,1.414C406.196,194.834,405.945,194.928,405.693,194.928z
		 M106.778,193.911c-0.287,0-0.572-0.123-0.77-0.361c-1.546-1.863-3-3.745-4.322-5.596c-0.321-0.449-0.217-1.074,0.233-1.395
		c0.447-0.32,1.073-0.217,1.395,0.233c1.293,1.811,2.718,3.655,4.233,5.48c0.353,0.425,0.294,1.055-0.131,1.408
		C107.23,193.835,107.003,193.911,106.778,193.911z M395.456,185.385c-0.23,0-0.461-0.079-0.65-0.239
		c-1.717-1.465-3.528-2.95-5.384-4.413c-0.434-0.342-0.508-0.971-0.166-1.404c0.342-0.434,0.971-0.507,1.404-0.166
		c1.875,1.479,3.707,2.98,5.444,4.462c0.42,0.358,0.47,0.99,0.111,1.41C396.019,185.266,395.738,185.385,395.456,185.385z
		 M98.681,182.514c-0.343,0-0.676-0.176-0.863-0.493c-1.24-2.106-2.342-4.226-3.276-6.3c-0.227-0.504-0.002-1.096,0.502-1.323
		c0.503-0.226,1.096-0.002,1.322,0.501c0.904,2.008,1.973,4.063,3.176,6.106c0.28,0.476,0.122,1.089-0.354,1.369
		C99.028,182.469,98.853,182.514,98.681,182.514z"/>
	<g>
		<rect x="95.695" y="77.231" style="fill:#45D8F9;" width="117.236" height="65.22"/>
		<g>
			<path style="fill:#FFFFFF;" d="M123.642,84.559c-6.875,0-13.75,0-20.626,0c-2.654,0-2.659,4.125,0,4.125
				c6.875,0,13.751,0,20.626,0C126.297,88.684,126.301,84.559,123.642,84.559z"/>
		</g>
		<g>
			<path style="fill:#FFFFFF;" d="M157.915,84.559c-3.929,0-7.857,0-11.786,0c-2.654,0-2.659,4.125,0,4.125
				c3.929,0,7.857,0,11.786,0C160.57,88.684,160.574,84.559,157.915,84.559z"/>
		</g>
		<g>
			<path style="fill:#FFFFFF;" d="M132.792,91.072c-9.925,0-19.85,0-29.776,0c-2.654,0-2.659,4.125,0,4.125
				c9.925,0,19.85,0,29.776,0C135.447,95.197,135.451,91.072,132.792,91.072z"/>
		</g>
		<g>
			<path style="fill:#FFFFFF;" d="M157.915,91.072c-3.929,0-7.857,0-11.786,0c-2.654,0-2.659,4.125,0,4.125
				c3.929,0,7.857,0,11.786,0C160.57,95.197,160.574,91.072,157.915,91.072z"/>
		</g>
		<g>
			<path style="fill:#FFFFFF;" d="M126.744,97.586c-7.909,0-15.818,0-23.727,0c-2.654,0-2.659,4.125,0,4.125
				c7.909,0,15.818,0,23.727,0C129.398,101.711,129.403,97.586,126.744,97.586z"/>
		</g>
		<g>
			<path style="fill:#FFFFFF;" d="M157.915,97.586c-2.43,0-4.859,0-7.289,0c-2.654,0-2.659,4.125,0,4.125c2.43,0,4.859,0,7.289,0
				C160.57,101.711,160.574,97.586,157.915,97.586z"/>
		</g>
		<g>
			<path style="fill:#FFFFFF;" d="M157.915,130.618c-2.43,0-4.859,0-7.289,0c-2.654,0-2.659,4.125,0,4.125c2.43,0,4.859,0,7.289,0
				C160.57,134.743,160.574,130.618,157.915,130.618z"/>
		</g>
		<g>
			<path style="fill:#FFFFFF;" d="M185.734,136.635c0,0.029,0.014,0.052,0.021,0.077h0.891c0.008-0.026,0.021-0.048,0.021-0.077
				v-12.562h-0.933V136.635z"/>
		</g>
		<g>
			<path style="fill:#FFFFFF;" d="M196.415,136.635c0,0.029,0.014,0.052,0.021,0.077h0.891c0.007-0.026,0.021-0.048,0.021-0.077
				v-12.562h-0.933V136.635z"/>
		</g>
		<g>
			<path style="fill:#FFFFFF;" d="M189.985,136.635c0,0.029,0.014,0.052,0.021,0.077h0.891c0.008-0.026,0.021-0.048,0.021-0.077
				v-12.562h-0.933V136.635z"/>
		</g>
		<g>
			<path style="fill:#FFFFFF;" d="M191.334,136.635c0,0.029,0.014,0.052,0.021,0.077h0.891c0.008-0.026,0.021-0.048,0.021-0.077
				v-12.562h-0.933V136.635z"/>
		</g>
		<g>
			<path style="fill:#FFFFFF;" d="M194.756,136.635c0,0.029,0.014,0.052,0.021,0.077h0.891c0.008-0.026,0.021-0.048,0.021-0.077
				v-12.562h-0.933V136.635z"/>
		</g>
		<g>
			<path style="fill:#FFFFFF;" d="M187.237,136.635c0,0.029,0.017,0.05,0.021,0.077h1.825c0.004-0.028,0.021-0.048,0.021-0.077
				v-12.562h-1.867V136.635z"/>
		</g>
		<g>
			<path style="fill:#FFFFFF;" d="M192.526,136.635c0,0.029,0.017,0.05,0.021,0.077h1.825c0.004-0.028,0.021-0.048,0.021-0.077
				v-12.562h-1.867V136.635z"/>
		</g>
		<g>
			<path style="fill:#FFFFFF;" d="M201.704,136.635c0,0.029,0.014,0.052,0.021,0.077h0.891c0.008-0.026,0.021-0.048,0.021-0.077
				v-12.562h-0.933V136.635z"/>
		</g>
		<g>
			<path style="fill:#FFFFFF;" d="M199.993,136.635c0,0.029,0.014,0.052,0.021,0.077h0.891c0.007-0.026,0.021-0.048,0.021-0.077
				v-12.562h-0.933V136.635z"/>
		</g>
		<g>
			<path style="fill:#FFFFFF;" d="M197.815,136.635c0,0.029,0.017,0.05,0.021,0.077h1.825c0.004-0.028,0.021-0.048,0.021-0.077
				v-12.562h-1.867V136.635z"/>
		</g>
	</g>
	<g>
		<rect x="73.515" y="91.464" style="fill:#4AB5F9;" width="117.236" height="65.219"/>
		<g>
			<path style="fill:#FFFFFF;" d="M101.462,98.791c-6.875,0-13.751,0-20.626,0c-2.654,0-2.659,4.125,0,4.125
				c6.875,0,13.751,0,20.626,0C104.116,102.916,104.121,98.791,101.462,98.791z"/>
		</g>
		<g>
			<path style="fill:#FFFFFF;" d="M135.735,98.791c-3.929,0-7.857,0-11.786,0c-2.654,0-2.659,4.125,0,4.125
				c3.929,0,7.857,0,11.786,0C138.39,102.916,138.394,98.791,135.735,98.791z"/>
		</g>
		<g>
			<path style="fill:#FFFFFF;" d="M110.612,105.305c-9.925,0-19.85,0-29.776,0c-2.654,0-2.659,4.125,0,4.125
				c9.925,0,19.85,0,29.776,0C113.266,109.43,113.271,105.305,110.612,105.305z"/>
		</g>
		<g>
			<path style="fill:#FFFFFF;" d="M135.735,105.305c-3.929,0-7.857,0-11.786,0c-2.654,0-2.659,4.125,0,4.125
				c3.929,0,7.857,0,11.786,0C138.39,109.43,138.394,105.305,135.735,105.305z"/>
		</g>
		<g>
			<path style="fill:#FFFFFF;" d="M104.564,111.818c-7.909,0-15.818,0-23.728,0c-2.654,0-2.659,4.125,0,4.125
				c7.909,0,15.818,0,23.728,0C107.218,115.943,107.223,111.818,104.564,111.818z"/>
		</g>
		<g>
			<path style="fill:#FFFFFF;" d="M135.735,111.818c-2.43,0-4.859,0-7.289,0c-2.654,0-2.659,4.125,0,4.125c2.43,0,4.859,0,7.289,0
				C138.39,115.943,138.394,111.818,135.735,111.818z"/>
		</g>
		<g>
			<path style="fill:#FFFFFF;" d="M135.735,144.85c-2.43,0-4.859,0-7.289,0c-2.654,0-2.659,4.125,0,4.125c2.43,0,4.859,0,7.289,0
				C138.39,148.976,138.394,144.85,135.735,144.85z"/>
		</g>
		<g>
			<path style="fill:#FFFFFF;" d="M163.553,150.868c0,0.029,0.014,0.052,0.021,0.077h0.891c0.007-0.026,0.021-0.048,0.021-0.077
				v-12.562h-0.933V150.868z"/>
		</g>
		<g>
			<path style="fill:#FFFFFF;" d="M174.235,150.868c0,0.029,0.014,0.052,0.021,0.077h0.891c0.007-0.026,0.021-0.048,0.021-0.077
				v-12.562h-0.933V150.868z"/>
		</g>
		<g>
			<path style="fill:#FFFFFF;" d="M167.805,150.868c0,0.029,0.014,0.052,0.021,0.077h0.891c0.007-0.026,0.021-0.048,0.021-0.077
				v-12.562h-0.933V150.868z"/>
		</g>
		<g>
			<path style="fill:#FFFFFF;" d="M169.153,150.868c0,0.029,0.014,0.052,0.021,0.077h0.891c0.008-0.026,0.021-0.048,0.021-0.077
				v-12.562h-0.933V150.868z"/>
		</g>
		<g>
			<path style="fill:#FFFFFF;" d="M172.575,150.868c0,0.029,0.014,0.052,0.021,0.077h0.891c0.008-0.026,0.021-0.048,0.021-0.077
				v-12.562h-0.933V150.868z"/>
		</g>
		<g>
			<path style="fill:#FFFFFF;" d="M165.057,150.868c0,0.029,0.017,0.05,0.021,0.077h1.825c0.004-0.028,0.021-0.048,0.021-0.077
				v-12.562h-1.867V150.868z"/>
		</g>
		<g>
			<path style="fill:#FFFFFF;" d="M170.346,150.868c0,0.029,0.017,0.05,0.021,0.077h1.825c0.004-0.028,0.021-0.048,0.021-0.077
				v-12.562h-1.867V150.868z"/>
		</g>
		<g>
			<path style="fill:#FFFFFF;" d="M179.524,150.868c0,0.029,0.014,0.052,0.021,0.077h0.891c0.008-0.026,0.021-0.048,0.021-0.077
				v-12.562h-0.933V150.868z"/>
		</g>
		<g>
			<path style="fill:#FFFFFF;" d="M177.813,150.868c0,0.029,0.014,0.052,0.021,0.077h0.891c0.008-0.026,0.021-0.048,0.021-0.077
				v-12.562h-0.933V150.868z"/>
		</g>
		<g>
			<path style="fill:#FFFFFF;" d="M175.635,150.868c0,0.029,0.017,0.05,0.021,0.077h1.825c0.004-0.028,0.021-0.048,0.021-0.077
				v-12.562h-1.867V150.868z"/>
		</g>
	</g>
	<g>
		<path style="fill:#D1D6D0;" d="M202.88,164.031L92.87,122.237c0,0-19.299-5.798-24.112-2.256
			c-4.317,6.799,7.241,14.259,7.241,14.259l121.375,46.112l5.036,7.283l5.455,2.073l1.159-16.438l0.354,0.134l19.733-13.6
			l-7.88-2.993L202.88,164.031z"/>
		<path style="fill:#FFFFFF;" d="M128.091,152.491c0,0,24.829,56.844,28.079,57.108c3.25,0.264,5.778-4.1,5.778-4.1l-10.265-44.045
			C151.684,161.454,141.025,151.2,128.091,152.491z"/>
		<path style="fill:#FFFFFF;" d="M103,133c-1.236-0.47-2.62,0.152-3.089,1.388c-0.47,1.236,0.152,2.619,1.388,3.089
			c1.236,0.47,2.619-0.152,3.089-1.388C104.858,134.853,104.236,133.47,103,133z"/>
		<path style="fill:#FFFFFF;" d="M92.51,129.015c-1.236-0.47-2.619,0.152-3.089,1.388c-0.47,1.236,0.152,2.619,1.388,3.089
			c1.236,0.47,2.619-0.152,3.089-1.388C94.368,130.868,93.747,129.484,92.51,129.015z"/>
		<path style="fill:#FFFFFF;" d="M81.486,124.827c-1.236-0.47-2.619,0.152-3.089,1.388c-0.47,1.236,0.152,2.619,1.388,3.089
			c1.237,0.47,2.619-0.152,3.089-1.388C83.344,126.679,82.723,125.296,81.486,124.827z"/>
		<path style="fill:#FFFFFF;" d="M113.486,136.984c-1.236-0.47-2.619,0.152-3.089,1.388c-0.47,1.237,0.152,2.62,1.388,3.089
			c1.236,0.47,2.619-0.152,3.089-1.388C115.344,138.837,114.723,137.454,113.486,136.984z"/>
		<path style="fill:#FFFFFF;" d="M125.504,141.55c-1.236-0.47-2.619,0.152-3.089,1.388c-0.47,1.236,0.152,2.619,1.388,3.089
			c1.236,0.47,2.619-0.152,3.089-1.388C127.362,143.402,126.74,142.02,125.504,141.55z"/>
		<path style="fill:#FFFFFF;" d="M136.462,145.713c-1.236-0.47-2.619,0.152-3.089,1.388c-0.47,1.236,0.152,2.619,1.388,3.089
			c1.236,0.47,2.619-0.152,3.089-1.388C138.319,147.566,137.698,146.182,136.462,145.713z"/>
		<path style="fill:#FFFFFF;" d="M148.48,150.279c-1.236-0.47-2.619,0.152-3.089,1.388c-0.47,1.236,0.152,2.619,1.388,3.089
			c1.236,0.47,2.619-0.152,3.089-1.388C150.337,152.131,149.716,150.748,148.48,150.279z"/>
		<path style="fill:#FFFFFF;" d="M161.295,155.147c-1.236-0.47-2.62,0.152-3.089,1.388c-0.47,1.236,0.152,2.62,1.388,3.089
			c1.236,0.47,2.619-0.152,3.089-1.388C163.153,157,162.532,155.617,161.295,155.147z"/>
		<path style="fill:#FFFFFF;" d="M173.313,159.713c-1.236-0.47-2.62,0.152-3.089,1.388c-0.47,1.236,0.152,2.619,1.388,3.089
			c1.236,0.47,2.62-0.152,3.089-1.388C175.171,161.566,174.55,160.183,173.313,159.713z"/>
		<path style="fill:#FFFFFF;" d="M184.271,163.876c-1.236-0.47-2.619,0.152-3.089,1.388c-0.47,1.236,0.152,2.619,1.388,3.089
			c1.236,0.47,2.619-0.152,3.089-1.388C186.129,165.729,185.507,164.346,184.271,163.876z"/>
	</g>
	<g>
		<g>
			<path style="fill:#0B1B58;" d="M212.572,367.77c-10.676-0.017-21.197,4.645-28.175,12.745c-1.216,1.412,0.833,3.478,2.057,2.057
				c6.343-7.362,15.692-11.707,25.412-11.887c9.816-0.182,20.513,4.122,24.777,13.492c0.774,1.702,3.282,0.225,2.512-1.468
				C234.59,372.678,223.106,367.787,212.572,367.77z"/>
		</g>
		<path style="fill:#2181F1;" d="M271.364,407.476c-9.205-7.474-12.552-4.813-19.247-17.402
			c-6.695-12.589-12.134-13.741-12.134-13.741h-23.589h-9.466h-23.589c0,0-5.439,1.152-12.134,13.741
			c-6.695,12.589-10.042,9.928-19.247,17.402c-9.205,7.474-10.46,24.372-10.46,24.372h63.337h13.65h63.337
			C281.825,431.848,280.569,414.95,271.364,407.476z"/>
		<g>
			<g>
				<g>
					<path style="fill:#0B1B58;" d="M114.661,283.522c0,12.067,0,24.134,0,36.201c0,1.872,2.909,1.875,2.909,0
						c0-12.067,0-24.134,0-36.201C117.57,281.651,114.661,281.648,114.661,283.522z"/>
				</g>
				<g>
					<path style="fill:#0B1B58;" d="M150.862,283.522c0,12.067,0,24.134,0,36.201c0,1.872,2.909,1.875,2.909,0
						c0-12.067,0-24.134,0-36.201C153.771,281.651,150.862,281.648,150.862,283.522z"/>
				</g>
				<path style="fill:#4AB5F9;" d="M154.554,280.29h-41.557c-1.778,0-3.232,1.454-3.232,3.232c0,1.778,1.454,3.232,3.232,3.232
					h41.557c1.778,0,3.232-1.454,3.232-3.232C157.786,281.745,156.332,280.29,154.554,280.29z"/>
			</g>
			<path style="fill:#2181F1;" d="M151.106,315.198c-2.953-1.944-8.373-2.783-13.047-3.137v-0.223c0,0-1.745-0.058-4.286,0.01
				c-2.536-0.068-4.281-0.01-4.281-0.01v0.223c-4.674,0.354-10.094,1.193-13.047,3.137c-5.891,3.879-9.992,5.576-15.369,7.515
				c-5.382,1.939-8.79,5.091-8.79,5.091v92.279h82.979v-92.279c0,0-3.408-3.151-8.79-5.091
				C161.099,320.774,156.997,319.077,151.106,315.198z"/>
			<g>
				<path style="fill:#0B1B58;" d="M104.79,420.085c-3.161,0-5.723,2.562-5.723,5.723s2.562,5.723,5.723,5.723
					s5.723-2.562,5.723-5.723S107.951,420.085,104.79,420.085z"/>
				<path style="fill:#0B1B58;" d="M162.761,420.085c-3.161,0-5.723,2.562-5.723,5.723s2.562,5.723,5.723,5.723
					c3.161,0,5.723-2.562,5.723-5.723S165.922,420.085,162.761,420.085z"/>
			</g>
			<path style="fill:#4AB5F9;" d="M133.41,332.585c-2.928-0.034-23.054,0.131-41.124,10.516v76.982h82.979v-76.555
				C157.012,332.716,136.377,332.551,133.41,332.585z"/>
		</g>
		<g>
			<g>
				<path style="fill:#2736AD;" d="M282.956,214.471c0,18.729,0,37.458,0,56.188c0,2.677,0,5.353,0,8.03
					c0,1.872,2.909,1.875,2.909,0c0-18.729,0-37.458,0-56.188c0-2.677,0-5.353,0-8.03
					C285.865,212.599,282.956,212.596,282.956,214.471z"/>
			</g>
			<g>
				<path style="fill:#2736AD;" d="M315.094,214.471c0,18.729,0,37.458,0,56.188c0,2.677,0,5.353,0,8.03
					c0,1.872,2.909,1.875,2.909,0c0-18.729,0-37.458,0-56.188c0-2.677,0-5.353,0-8.03
					C318.003,212.599,315.094,212.596,315.094,214.471z"/>
			</g>
			<path style="fill:#0B1B58;" d="M338.277,273.473h-36.994h-1.362h-36.994c0,0-9.768,5.837-10.455,16.316
				c-0.686,10.479,0,122.937,0,122.937s4.218,10.751,19.283,11.263c13.142,0.447,25.823,0.114,28.846,0.022
				c3.023,0.092,15.704,0.425,28.846-0.022c15.065-0.512,19.283-11.263,19.283-11.263s0.686-112.458,0-122.937
				C348.045,279.31,338.277,273.473,338.277,273.473z"/>
			<ellipse style="fill:#060E2C;" cx="331.865" cy="424.217" rx="8.1" ry="6.859"/>
			<ellipse style="fill:#9AE2FB;" cx="331.865" cy="424.217" rx="3.465" ry="2.934"/>
			<ellipse style="fill:#060E2C;" cx="268.466" cy="424.217" rx="8.1" ry="6.859"/>
			<ellipse style="fill:#9AE2FB;" cx="268.466" cy="424.217" rx="3.465" ry="2.934"/>
			<path style="fill:#2736AD;" d="M334.146,290.766h-67.088c-3.2,0-5.818,2.618-5.818,5.818v109.822c0,3.2,2.618,5.818,5.818,5.818
				h67.088c3.2,0,5.818-2.618,5.818-5.818V296.584C339.964,293.384,337.346,290.766,334.146,290.766z"/>
			<path style="fill:#0B1B58;" d="M319.424,207.838h-37.643c-1.733,0-3.151,1.418-3.151,3.151v0.331
				c0,1.733,1.418,3.151,3.151,3.151h37.643c1.733,0,3.151-1.418,3.151-3.151v-0.331
				C322.575,209.256,321.157,207.838,319.424,207.838z"/>
			<g>
				<path style="fill:#2736AD;" d="M339.964,283.511c-22.954,0-45.909,0-68.863,0c-3.287,0-6.574,0-9.861,0
					c-0.936,0-0.937,1.454,0,1.454c22.954,0,45.909,0,68.863,0c3.287,0,6.574,0,9.861,0
					C340.9,284.965,340.902,283.511,339.964,283.511z"/>
			</g>
		</g>
		<g>
			<path style="fill:#FFCD21;" d="M412.97,376.507c-6.338-17.045-11.487-18.605-11.487-18.605h-22.331h-8.961h-22.331
				c0,0-5.149,1.56-11.487,18.605c-6.338,17.045-9.507,13.441-18.221,23.561c-8.714,10.12-9.903,32.998-9.903,32.998h59.961h12.922
				h59.961c0,0-1.188-22.878-9.903-32.998C422.476,389.948,419.307,393.552,412.97,376.507z"/>
			<g>
				<path style="fill:#FFAE36;" d="M399.257,357.9c-1.622-2.262-5.409-0.085-3.768,2.202c2.338,3.259,4.349,6.954,5.606,10.763
					c0.809,2.452,1.538,5.365,0.675,7.903c-1.113,3.274-4.682,4.165-7.743,4.664c-14.61,2.385-27.656-7.558-36.654-17.981
					c-2.341-2.712-4.592-5.581-6.452-8.651c-1.453-2.398-5.228-0.208-3.768,2.202c5.647,9.317,13.972,17.946,23.342,23.484
					c7.283,4.304,15.651,6.527,24.096,5.247c3.837-0.581,7.876-1.814,10.15-5.201c1.866-2.779,1.992-6.219,1.432-9.419
					C405.229,367.713,402.439,362.336,399.257,357.9z"/>
			</g>
			<path style="fill:#FFAE36;" d="M346.675,399.333c0,0.022-0.001,0.044-0.001,0.065c0,15.623,13.431,28.289,29.998,28.289
				c16.568,0,29.998-12.665,29.998-28.289c0-0.022-0.001-0.043-0.001-0.065H346.675z"/>
		</g>
		<path style="fill:#9AE2FB;" d="M234.23,354.06c-5.401-0.335-19.205-0.234-27.975,8.373
			c-11.093,10.886-39.836,71.011-39.836,71.011s0,0,2.269,0s33.028-57.898,40.844-66.063c6.167-6.442,19.389-7.8,24.697-8.087
			c5.308,0.287,18.531,1.645,24.697,8.087c7.816,8.165,38.575,66.063,40.844,66.063c2.269,0,2.269,0,2.269,0
			s-28.742-60.125-39.836-71.011C253.435,353.826,239.631,353.725,234.23,354.06z"/>
		<path style="fill:#9AE2FB;" d="M282.806,301.843c-6.308,16.843-13.142,49.343-37.668,51.871
			c-9.843,1.014-19.813,0.677-29.648-0.273c-5.29-0.511-10.771-2.52-16.134-1.896c-0.646,0.075-1.291,0.189-1.934,0.348
			c-2.358,0.583-13.799,5.46-7.687,7.493c5.024,1.671,11.987,1.138,17.26,1.433c9.517,0.532,18.908,0.164,28.429,0.25
			c9.457,0.085,24.01,1.5,31.246-5.867c8.74-8.901,36.642-81.526,34.625-88.992C299.278,258.743,289.114,285,282.806,301.843z"/>
		<path style="fill:#0B1B58;" d="M149.916,418.88c0,0-8.242,5.262-13.939,8.198s-6.424,3.671-4.364,5.262
			c2.061,1.591,13.939,1.346,15.878,0c1.939-1.346,3.03,0.612,3.03,0.612s4.606,0.857,5.576-0.367c0.97-1.224-0.04-9.626-0.04-9.626
			S154.4,418.513,149.916,418.88z"/>
		<path style="fill:#32838F;" d="M131.485,308.629c-4.889,14.194,18.354,76.682,12.793,113.718c0,0,4.944-3.263,11.408,0
			c0,0,18.024-50.213,13.779-76.582c-4.244-26.368,39.17-25.389,42.028-26.368c2.858-0.979,22.736-14.194,22.736-14.194
			S136.374,294.434,131.485,308.629z"/>
		<path style="fill:#F73A8A;" d="M254.828,222.496c-24.219-2.351-41.451,17.867-41.451,17.867
			c-5.123,5.172-16.301,30.562-23.287,39.496c-6.986,8.934-35.901,14.493-35.901,14.493c1.358,2.268,2.368,6.196,2.368,6.196
			s35.862-0.94,40.054-1.881c4.192-0.94,17.698-9.404,22.821-14.576c5.123-5.172,8.383-4.232,8.383-4.232
			c10.246,6.583,4.658,28.211,4.658,28.211c26.082,14.106,41.917,0,41.917,0s-1.863-1.881-2.329-12.225
			c-0.466-10.344,8.849-36.674,10.246-47.019C283.704,238.482,279.047,224.847,254.828,222.496z"/>
		<path style="fill:#FFA39A;" d="M241.838,194.656c-3.036-1.582-6.993-1.66-10.207-0.256c-2.211,0.966-4.07,2.633-5.037,4.994
			c-2.855,6.973,1.699,16.12,6.834,20.778c0.858,0.778,1.823,1.368,2.844,1.752l1.397,5.924c0,0,6.42,2.52,9.273-2.881l-0.963-6.155
			c0.301-0.375,0.593-0.778,0.87-1.216C251.66,209.999,250.206,199.017,241.838,194.656z"/>
		<path style="fill:#FFA39A;" d="M199.494,293.29c-5.4-1.677-12.462,6.71-12.462,6.71s7.893,0.419,10.801-0.839
			c2.908-1.258,4.154,0,5.816,0.839c1.662,0.839,4.57,0,4.57,0c-1.662-3.355,0-5.033,0-5.033S204.895,294.967,199.494,293.29z"/>
		<path style="fill:#FFA39A;" d="M154.188,294.351c-1.863-0.94-9.741,1.964-9.741,1.964l1.397,4.232h10.712
			C156.556,300.547,156.051,295.292,154.188,294.351z"/>
		<path style="fill:#14124F;" d="M249.082,190.041c-0.604-1.015-0.145-2.275-0.587-3.343c-0.421-1.016-1.415-1.792-2.267-2.418
			c-3.922-2.88-4.992-0.002-8.2,0c-1.962,0.001-3.841-1.66-5.85-0.728c-2.005,0.93-2.819,3.396-4.834,4.337
			c-1.551,0.724-4.84,0.332-5.124,2.652c-0.01,0.079-0.018,0.157-0.024,0.233c-0.137,1.621,0.371,2.75-1.29,3.947
			c-2.497,1.8-3.21,3.961-2.853,7.561c0.357,3.601,3.923,3.241,4.993,3.601c1.07,0.36,0.713,3.961,2.14,5.041
			c1.848,1.399,3.259,3.276,4.687,5.084c-0.42-1.294,0.178-2.739,0.074-4.068c-0.087-1.121-0.736-2.772,0.116-3.747
			c0.589-0.674,1.69-1.095,2.412-1.628c1.313-0.969,2.461-1.834,3.41-3.202c2.497-3.601,4.637-5.041,5.35-3.601
			c0.713,1.44,2.497,4.321,4.28,4.321s5.184,2.51,3.84,6.836c-1.344,4.326-1.964,5.752-1.964,5.752s4.901-2.146,5.257-7.547
			c0.357-5.401-0.713-6.121,1.07-8.281c1.783-2.16,1.07-5.401,0-7.561C252.648,191.121,250.152,191.842,249.082,190.041z"/>
		<path style="fill:#FA89B9;" d="M253.664,245.3c-6.288,11.99-5.356,33.148-5.356,38.79c0,5.642-40.747,10.784-40.747,10.784
			c-3.042,3.397,0.693,5.673,0.693,5.673s52.629,4.937,57.985,0.94c5.356-3.997,24.452-56.658,13.508-66.554
			C268.804,225.036,259.951,233.31,253.664,245.3z"/>
		<path style="fill:#59E9FF;" d="M234.23,305.202c0,0-70.786-9.3-83.392,0c-12.606,9.3-38.544,60.326-80.725,113.678
			c0,0,4.27,0.937,6.209,4.689c0,0,59.486-32.711,69.829-58.816c10.343-26.105,31.676-19.252,46.867-14.684
			s56.726,15.826,72.887-6.363c16.161-22.189,8.483-35.637,8.483-35.637S257.017,315.155,234.23,305.202z"/>
		<g>
			<path style="fill:#0B1B58;" d="M125.988,241.735c-0.844-2.647-1.689-5.293-2.533-7.94c-0.85-2.665-5.065-1.526-4.208,1.16
				c6.024,18.883,12.048,37.767,18.073,56.65c0.844,2.647,1.689,5.293,2.533,7.94c0.85,2.665,5.065,1.526,4.208-1.16
				C138.036,279.502,132.012,260.618,125.988,241.735z"/>
		</g>
		<g>
			<path style="fill:#0B1B58;" d="M211.662,298.789c-19.602,0.075-39.205,0.15-58.807,0.225c-2.803,0.011-5.605,0.022-8.408,0.032
				c-1.872,0.007-1.875,2.916,0,2.909c19.602-0.075,39.205-0.15,58.807-0.225c2.803-0.011,5.605-0.021,8.408-0.032
				C213.534,301.691,213.537,298.782,211.662,298.789z"/>
		</g>
		<path style="fill:#0B1B58;" d="M70.113,418.88c0,0-8.242,5.262-13.939,8.198c-5.697,2.937-6.424,3.671-4.364,5.262
			c2.061,1.591,13.939,1.346,15.878,0c1.939-1.346,3.03,0.612,3.03,0.612s4.606,0.857,5.576-0.367c0.97-1.224-0.04-9.626-0.04-9.626
			S74.598,418.513,70.113,418.88z"/>
		<g>
			<path style="fill:#F83B89;" d="M317.705,375.426c-2.022-5.549-20.91-5.35-23.363-5.298c-8.255,0.174-16.519,0.443-24.775,0.217
				c-8.255-0.23-16.437-1.125-24.701-0.408c-4.603,0.404-9.462,0.565-9.671,5.489c0,0.004-0.308,7.248-0.573,16.406
				c-0.447,15.225-0.782,35.735,0.573,37.09c2.171,2.171,8.251,5.645,15.633,3.04c7.383-2.605,25.621-4.342,25.621-4.342
				s18.239,1.737,25.621,4.342c7.383,2.606,13.462-0.868,15.633-3.04c1.355-1.355,1.02-21.869,0.573-37.09
				C318.013,382.669,317.705,375.426,317.705,375.426z"/>
			<g>
				<path style="fill:#FB89B8;" d="M270.687,360.02c-4.439,1.778-8.403,4.971-11.314,8.755c-1.711,2.224,2.077,4.4,3.768,2.202
					c-0.678,0.882,0.153-0.161,0.367-0.406c0.516-0.588,1.06-1.152,1.623-1.696c1.767-1.706,3.739-3.187,5.945-4.28
					c7.387-3.661,14.077,0.338,18.685,6.382c1.68,2.204,5.472,0.032,3.768-2.202C287.979,361.497,279.905,356.328,270.687,360.02z"
					/>
			</g>
			<path style="fill:#FB89B8;" d="M294.342,370.128c-8.255,0.174-16.519,0.443-24.775,0.217c-8.255-0.23-16.437-1.125-24.701-0.408
				c-4.603,0.404-9.462,0.565-9.671,5.489c0,0.004-0.308,7.248-0.573,16.406c8.998,10.665,24.375,17.692,41.828,17.692
				c17.453,0,32.83-7.026,41.828-17.692c-0.265-9.163-0.573-16.406-0.573-16.406C316.046,369.664,296.795,370.076,294.342,370.128z"
				/>
			<g>
				<path style="fill:#F83B89;" d="M304.811,394.228c-17.208,9.13-38.602,7.636-56.071,0c-1.699-0.743-3.181,1.763-1.468,2.512
					c18.471,8.074,40.801,9.661,59.008,0C307.934,395.862,306.466,393.35,304.811,394.228z"/>
			</g>
		</g>
	</g>
</g>
</svg>
