<?xml version="1.0" encoding="utf-8"?>
<!-- Generator: Adobe Illustrator 27.5.0, SVG Export Plug-In . SVG Version: 6.00 Build 0)  -->
<svg version="1.1" xmlns="http://www.w3.org/2000/svg" xmlns:xlink="http://www.w3.org/1999/xlink" x="0px" y="0px"
	 viewBox="0 0 3710 3710" style="enable-background:new 0 0 3710 3710;" xml:space="preserve">
<g id="Background">
	<g>
		<g>
			<rect style="fill:#FFFFFF;" width="3710" height="3710"/>
		</g>
	</g>
</g>
<g id="Illustration">
	<g>
		
			<linearGradient id="SVGID_1_" gradientUnits="userSpaceOnUse" x1="1378.2145" y1="3633.9812" x2="-554.5312" y2="1576.5428" gradientTransform="matrix(-1 0 0 1 1593.8036 0)">
			<stop  offset="0" style="stop-color:#DAE3FE"/>
			<stop  offset="1" style="stop-color:#E9EFFD"/>
		</linearGradient>
		<path style="fill:url(#SVGID_1_);" d="M806.395,2817.753c70.615,74.198,133.799,117.815,182.174,150.742
			c471.799,321.131,1011.116,228.573,1177.86,196.937c269.02-51.041,496.111-87.048,691.222-266.74
			c443.352-408.315,421.788-1260.089,83.013-1787.726c-40.168-62.563-378.43-573.69-918.915-645.713
			c-13.219-1.762-23.083-2.765-31.722-3.697c-83.612-9.024-601.737-56.652-1024.217,304.162
			c-60.476,51.649-157.799,144.81-248.049,286.896C387.764,1572.145,386.719,2376.783,806.395,2817.753z"/>
		<g>
			<path style="fill:#91B3FA;" d="M471.204,1324.536c0.549-12.885,18.044-16.477,23.575-4.827
				c53.471,112.633,202.93,403.585,379.792,541.266c287.972,224.176,523.246,628.008,406.24,878.098
				C1280.812,2739.073,411.375,2728.412,471.204,1324.536z"/>
			<path style="opacity:0.43;fill:#FFFFFF;" d="M528.29,1488.599c0.844,2.71,2.11,6.157,3.23,9.323l3.581,9.654l7.385,19.251
				l15.139,38.38c10.291,25.511,20.899,50.896,31.738,76.178c21.577,50.605,43.992,100.848,67.439,150.597
				c47.124,99.373,96.728,197.594,151.58,292.85c27.63,47.489,55.408,94.907,85.164,141.083
				c29.749,46.165,60.579,91.641,93.129,135.857c64.769,88.639,136.23,172.532,216.534,247.684c1.097,1.007,1.169,2.713,0.162,3.81
				c-0.978,1.064-2.638,1.143-3.735,0.227c-42.021-35.854-81.3-74.852-118.865-115.394
				c-37.237-40.867-72.053-83.847-105.707-127.682c-66.289-88.46-126.27-181.51-180.834-277.512
				c-27.371-47.962-53.148-96.796-78.218-145.962c-25.039-49.186-49.014-98.91-71.513-149.295
				c-22.581-50.341-44.434-101.006-64.847-152.254c-10.148-25.648-20.059-51.386-29.651-77.246
				c-4.748-12.948-9.502-25.893-14.045-38.919l-6.676-19.594l-3.233-9.846c-1.026-3.376-2.105-6.409-3.081-10.343
				c-0.355-1.431,0.518-2.879,1.948-3.234c1.378-0.341,2.771,0.453,3.19,1.79L528.29,1488.599z"/>
		</g>
		<g>
			<path style="fill:#BDD0FB;" d="M622.119,659.936c160.265,108.63,1067.099,778.883,590.998,1742.818
				c0,0-710.591-287.569-616.548-1730.373C597.391,659.758,611.649,652.839,622.119,659.936z"/>
			<path style="opacity:0.43;fill:#FFFFFF;" d="M685.691,843.81c19.174,26.407,37.536,53.297,55.666,80.375
				c18.086,27.1,35.807,54.44,53.173,82.005c34.752,55.116,68.173,111.074,100.185,167.833
				c63.971,113.529,122.628,230.169,173.424,350.277c50.633,120.103,93.684,243.77,122.909,371.068
				c7.406,31.789,13.599,63.863,18.966,96.072c1.26,8.067,2.72,16.102,3.815,24.195l3.389,24.263
				c1.922,16.22,3.977,32.43,5.314,48.718c6.115,65.063,6.614,130.752,0.584,195.963c-0.253,2.737-2.677,4.751-5.414,4.498
				s-4.751-2.677-4.498-5.415l0.001-0.018l0.004-0.044c6.197-64.462,5.956-129.559,0.121-194.163
				c-1.265-16.171-3.249-32.277-5.098-48.393l-3.278-24.117c-1.058-8.044-2.481-16.037-3.704-24.059
				c-5.217-32.034-11.257-63.955-18.511-95.614c-28.614-126.777-71.063-250.218-121.133-370.209
				c-50.231-120-108.356-236.656-171.819-350.255c-31.757-56.795-64.93-112.803-99.436-167.977
				c-17.243-27.593-34.842-54.965-52.804-82.095c-17.997-27.095-36.266-54.058-55.256-80.414l-0.017-0.023
				c-0.681-0.945-0.467-2.262,0.478-2.943C683.697,842.658,685.01,842.865,685.691,843.81z"/>
		</g>
		<g>
			<path style="fill:#7D97F4;" d="M2699.918,459.404L991.935,448.947c-56.132-0.344-101.025,46.542-98.245,102.606l117.505,2426.636
				h1900.666L3017.393,810.12L2699.918,459.404z"/>
			<path style="fill:#FFFFFF;" d="M1065.967,2968.767c-2.585,0-4.74-2.03-4.867-4.642L946.979,607.408
				c-1.41-28.461,8.67-55.479,28.382-76.063c19.709-20.591,46.231-31.8,74.764-31.656l1682.259,10.299
				c2.693,0.016,4.864,2.213,4.847,4.906c-0.016,2.683-2.197,4.847-4.877,4.847c-0.01,0-0.02,0-0.03,0l-1682.259-10.299
				c-0.196-0.003-0.395-0.003-0.591-0.003c-25.572,0-49.368,10.158-67.073,28.65c-17.839,18.629-26.959,43.078-25.683,68.843
				l114.121,2356.724c0.13,2.69-1.946,4.975-4.635,5.105C1066.127,2968.763,1066.045,2968.767,1065.967,2968.767z"/>
			<g>
				<path style="fill:#FFFFFF;" d="M2607.708,2854.333h-425.714V1755.496h425.714V2854.333z M2192.021,2844.305h405.659V1765.523
					h-405.659V2844.305z"/>
				<path style="fill:#FFFFFF;" d="M2667.475,1765.523h-480.468c-2.768,0-5.014-2.246-5.014-5.014c0-2.768,2.246-5.014,5.014-5.014
					h480.468c2.768,0,5.014,2.246,5.014,5.014C2672.489,1763.277,2670.243,1765.523,2667.475,1765.523z"/>
				<path style="fill:#FFFFFF;" d="M2602.694,2854.333c-2.768,0-5.014-2.246-5.014-5.014V1760.51c0-2.768,2.246-5.014,5.014-5.014
					s5.014,2.246,5.014,5.014v1088.809C2607.708,2852.087,2605.462,2854.333,2602.694,2854.333z"/>
				<path style="fill:#FFFFFF;" d="M2642.586,2808.993c-2.768,0-5.014-2.246-5.014-5.014V1760.51c0-2.768,2.246-5.014,5.014-5.014
					s5.014,2.246,5.014,5.014v1043.469C2647.6,2806.747,2645.354,2808.993,2642.586,2808.993z"/>
				<path style="fill:#FFFFFF;" d="M2642.586,2808.993h-39.892c-2.768,0-5.014-2.246-5.014-5.014s2.246-5.014,5.014-5.014h39.892
					c2.768,0,5.014,2.246,5.014,5.014S2645.354,2808.993,2642.586,2808.993z"/>
				<path style="fill:#FFFFFF;" d="M2602.694,2353.499h-415.687c-2.768,0-5.014-2.246-5.014-5.014s2.246-5.014,5.014-5.014h415.687
					c2.768,0,5.014,2.246,5.014,5.014S2605.462,2353.499,2602.694,2353.499z"/>
				<circle style="fill:#FFFFFF;" cx="2642.86" cy="1762.233" r="7.354"/>
				<circle style="fill:#FFFFFF;" cx="2642.587" cy="2803.98" r="7.354"/>
				<circle style="fill:#FFFFFF;" cx="2602.695" cy="2849.318" r="7.354"/>
				<circle style="fill:#FFFFFF;" cx="2187.007" cy="2849.318" r="7.354"/>
			</g>
			<g>
				<path style="fill:#FFFFFF;" d="M1826.917,2809.505c-11.265,0.003-20.499-9.088-20.64-20.382l-8.036-633.218l99.911-1.27
					l0.065,5.014l7.974,628.273c0.072,5.494-2.004,10.687-5.843,14.624c-3.836,3.937-8.977,6.143-14.474,6.212l-58.697,0.748
					C1827.093,2809.505,1827.005,2809.505,1826.917,2809.505z M1827.116,2804.491h0.033H1827.116z M1808.393,2165.802l7.912,623.193
					c0.072,5.81,4.821,10.481,10.615,10.481c0.042,0,0.088,0,0.131,0l58.697-0.748c2.82-0.036,5.454-1.165,7.423-3.183
					c1.968-2.017,3.029-4.681,2.993-7.498l-7.909-623.262L1808.393,2165.802z"/>
				<path style="fill:#FFFFFF;" d="M1273.04,2817.731c-11.258,0-20.49-9.084-20.636-20.379l-8.138-641.414l99.911-1.267l0.065,5.014
					l8.079,636.462c0.068,5.497-2.007,10.69-5.843,14.627c-3.839,3.937-8.98,6.143-14.477,6.212l-58.694,0.744h0.003
					C1273.219,2817.731,1273.131,2817.731,1273.04,2817.731z M1254.417,2165.835l8.014,631.39c0.036,2.833,1.175,5.484,3.205,7.465
					c1.998,1.946,4.622,3.013,7.403,3.013c0.049,0,0.095,0,0.141,0h0.003l58.694-0.744c2.817-0.036,5.454-1.165,7.42-3.183
					c1.968-2.021,3.032-4.684,2.997-7.504l-8.014-631.449L1254.417,2165.835z"/>
				<path style="fill:#FFFFFF;" d="M1708.752,1852.9h-316.141l-24.815-740.735c-2.409-71.957,72.972-133.069,171.614-139.125
					c2.677-0.163,5.357-0.294,8.036-0.398c64.557-2.445,125.559,18.982,163.316,57.225c24.495,24.811,36.634,54.016,35.104,84.459
					L1708.752,1852.9z M1402.306,1842.873h296.908l36.638-729.049c1.384-27.56-9.757-54.154-32.224-76.908
					c-35.818-36.279-94.059-56.599-155.802-54.252c-2.602,0.098-5.203,0.229-7.805,0.385
					c-93.177,5.722-164.429,62.288-162.203,128.784L1402.306,1842.873z"/>
				<path style="fill:#FFFFFF;" d="M1781.303,1852.897h-82.559l0.229-5.232l36.876-839.716
					c1.544-35.165-12.721-69.665-40.166-97.143c-36.573-36.608-90.445-56.243-147.827-53.736c-2.602,0.108-5.193,0.255-7.785,0.437
					c-93.22,6.548-164.488,71.617-162.252,148.137l24.805,847.253h-76.464l-36.027-913.791
					c-3.48-88.288,105.183-163.251,247.386-170.667l0,0c3.868-0.199,7.743-0.366,11.624-0.486
					c100.669-3.17,195.534,28.03,247.566,81.505c27.1,27.847,40.405,59.768,38.479,92.312L1781.303,1852.897z M1709.222,1842.869
					h62.628l53.328-901.694c1.753-29.652-10.576-58.952-35.655-84.723c-50.135-51.522-142.147-81.566-240.064-78.479
					c-3.813,0.121-7.622,0.281-11.418,0.48l0,0c-136.657,7.126-241.151,77.519-237.887,160.254l35.649,904.162h56.494
					l-24.498-836.932c-2.396-81.916,72.965-151.509,171.568-158.433c2.683-0.189,5.373-0.343,8.066-0.457
					c60.186-2.582,116.797,18.081,155.345,56.67c29.456,29.489,44.762,66.662,43.094,104.667L1709.222,1842.869z"/>
				<path style="fill:#FFFFFF;" d="M1897.023,2165.362h-652.718v-38.691h652.718V2165.362z M1254.332,2155.334h632.663v-18.635
					h-632.663V2155.334z"/>
				<path style="fill:#FFFFFF;" d="M1965.758,2053.344c-48.262-57.839-95.985-104.325-146.512-153.54
					c-15.619-15.211-31.751-30.929-47.795-46.907h-441.036c-54.431,71.666-93.491,125.079-142.64,199.986l-8.382-5.503
					c49.757-75.835,89.188-129.685,144.543-202.529l1.505-1.981h450.157l1.469,1.466c16.481,16.439,33.103,32.629,49.179,48.288
					c50.716,49.401,98.619,96.06,147.21,154.297L1965.758,2053.344z"/>
				<path style="fill:#FFFFFF;" d="M1970.762,2136.699h-780.826c-15.009,0-27.217-12.208-27.217-27.217v-37.052
					c0-17.333,14.101-31.434,31.431-31.434h766.47c17.924,0,32.508,14.585,32.508,32.512v40.826
					C1993.128,2126.665,1983.094,2136.699,1970.762,2136.699z M1194.15,2051.022c-11.803,0-21.403,9.604-21.403,21.407v37.052
					c0,9.479,7.71,17.189,17.189,17.189h780.826c6.803,0,12.339-5.536,12.339-12.339v-40.826c0-12.398-10.086-22.484-22.481-22.484
					H1194.15z"/>
			</g>
			<g>
				<path style="fill:#FFFFFF;" d="M2630.377,1637.742h-412.951v-495.481h412.951V1637.742z M2227.454,1627.714h392.896v-475.425
					h-392.896V1627.714z"/>
				<path style="fill:#FFFFFF;" d="M2222.44,1637.742c-2.768,0-5.014-2.246-5.014-5.014V577.357c0-2.768,2.246-5.014,5.014-5.014
					c2.768,0,5.014,2.246,5.014,5.014v1055.371C2227.454,1635.496,2225.208,1637.742,2222.44,1637.742z"/>
				<path style="fill:#FFFFFF;" d="M2184.422,1593.796c-2.768,0-5.014-2.246-5.014-5.014v-446.52h445.956
					c2.768,0,5.014,2.246,5.014,5.014s-2.246,5.014-5.014,5.014h-435.928v436.493
					C2189.436,1591.55,2187.19,1593.796,2184.422,1593.796z"/>
				<path style="fill:#FFFFFF;" d="M2222.44,1593.796h-48.741c-2.768,0-5.014-2.246-5.014-5.014c0-2.768,2.246-5.014,5.014-5.014
					h48.741c2.768,0,5.014,2.246,5.014,5.014C2227.454,1591.55,2225.208,1593.796,2222.44,1593.796z"/>
				<path style="fill:#FFFFFF;" d="M2232.49,1632.728c0,3.937-3.191,7.128-7.128,7.128c-3.937,0-7.128-3.192-7.128-7.128
					c0-3.937,3.191-7.128,7.128-7.128C2229.299,1625.6,2232.49,1628.791,2232.49,1632.728z"/>
				<path style="fill:#FFFFFF;" d="M2632.493,1629.804c0,3.937-3.191,7.128-7.128,7.128c-3.937,0-7.128-3.192-7.128-7.128
					s3.191-7.128,7.128-7.128C2629.302,1622.676,2632.493,1625.867,2632.493,1629.804z"/>
				<path style="fill:#FFFFFF;" d="M2191.549,1147.276c0,3.937-3.191,7.128-7.128,7.128s-7.128-3.191-7.128-7.128
					c0-3.937,3.191-7.128,7.128-7.128S2191.549,1143.339,2191.549,1147.276z"/>
				<path style="fill:#FFFFFF;" d="M2191.549,1588.783c0,3.937-3.191,7.128-7.128,7.128s-7.128-3.191-7.128-7.128
					c0-3.937,3.191-7.128,7.128-7.128S2191.549,1584.846,2191.549,1588.783z"/>
			</g>
			<path style="fill:#91B3FA;" d="M2770.939,799.725c-55.637-1.958-98.411-49.91-94.026-105.408l18.31-231.717l322.506,346.096
				L2770.939,799.725z"/>
		</g>
		<g>
			
				<linearGradient id="SVGID_00000145775020895537390970000012263927315253812660_" gradientUnits="userSpaceOnUse" x1="1215.6195" y1="3425.053" x2="1255.7289" y2="2688.0513">
				<stop  offset="0" style="stop-color:#FF928E"/>
				<stop  offset="1" style="stop-color:#FE7062"/>
			</linearGradient>
			<path style="fill:url(#SVGID_00000145775020895537390970000012263927315253812660_);" d="M996.033,3187.35h465.706
				c3.4,0,6.157-2.757,6.157-6.157l-45.677-71.773l-360.103-4.62l-72.241,76.394C989.876,3184.594,992.633,3187.35,996.033,3187.35z
				"/>
			
				<linearGradient id="SVGID_00000183213711918693916510000010031794066493022358_" gradientUnits="userSpaceOnUse" x1="1184.9872" y1="3423.3853" x2="1225.0964" y2="2686.3855">
				<stop  offset="0" style="stop-color:#FF928E"/>
				<stop  offset="1" style="stop-color:#FE7062"/>
			</linearGradient>
			<polygon style="fill:url(#SVGID_00000183213711918693916510000010031794066493022358_);" points="1428.963,2770.416 
				1093.946,3182.996 989.876,3178.472 1326.277,2770.416 			"/>
			
				<linearGradient id="SVGID_00000052815105895467534770000016636628299566439343_" gradientUnits="userSpaceOnUse" x1="1327.2076" y1="3431.125" x2="1367.3169" y2="2694.126">
				<stop  offset="0" style="stop-color:#FF928E"/>
				<stop  offset="1" style="stop-color:#FE7062"/>
			</linearGradient>
			<polygon style="fill:url(#SVGID_00000052815105895467534770000016636628299566439343_);" points="1467.896,3181.193 
				1261.11,2856.262 1228.737,2905.305 1401.944,3179.277 			"/>
			
				<linearGradient id="SVGID_00000010271994338564450620000009701742969047645095_" gradientUnits="userSpaceOnUse" x1="695.5925" y1="3396.752" x2="735.7019" y2="2659.7507">
				<stop  offset="0" style="stop-color:#FF928E"/>
				<stop  offset="1" style="stop-color:#FE7062"/>
			</linearGradient>
			<path style="fill:url(#SVGID_00000010271994338564450620000009701742969047645095_);" d="M940.269,3185.564H474.563
				c-3.4,0-6.157-2.757-6.157-6.157l45.677-71.774l360.103-4.62l72.241,76.394C946.427,3182.808,943.67,3185.564,940.269,3185.564z"
				/>
			
				<linearGradient id="SVGID_00000181798347971679063520000008154796086776952981_" gradientUnits="userSpaceOnUse" x1="703.8633" y1="3397.2014" x2="743.9726" y2="2660.2009">
				<stop  offset="0" style="stop-color:#FF928E"/>
				<stop  offset="1" style="stop-color:#FE7062"/>
			</linearGradient>
			<polygon style="fill:url(#SVGID_00000181798347971679063520000008154796086776952981_);" points="507.339,2770.416 
				842.356,3182.103 946.427,3178.026 610.026,2770.416 			"/>
			
				<linearGradient id="SVGID_00000083084092109941082160000007245333769386788992_" gradientUnits="userSpaceOnUse" x1="569.025" y1="3389.8633" x2="609.1343" y2="2652.863">
				<stop  offset="0" style="stop-color:#FF928E"/>
				<stop  offset="1" style="stop-color:#FE7062"/>
			</linearGradient>
			<polygon style="fill:url(#SVGID_00000083084092109941082160000007245333769386788992_);" points="468.406,3179.407 
				675.193,2854.476 707.565,2903.519 534.359,3177.491 			"/>
			
				<linearGradient id="SVGID_00000170240553825134714850000012544235225348458166_" gradientUnits="userSpaceOnUse" x1="932.0322" y1="3416.1667" x2="972.5312" y2="2672.0059">
				<stop  offset="0" style="stop-color:#FF928E"/>
				<stop  offset="1" style="stop-color:#FE7062"/>
			</linearGradient>
			<path style="fill:url(#SVGID_00000170240553825134714850000012544235225348458166_);" d="M1436.185,2781.025H501.723
				c-2.946,0-5.334-2.388-5.334-5.334v-75.921c0-2.946,2.388-5.334,5.334-5.334h934.462c2.946,0,5.333,2.388,5.333,5.334v75.921
				C1441.519,2778.637,1439.131,2781.025,1436.185,2781.025z"/>
			
				<linearGradient id="SVGID_00000000925251622742912660000000101096131167991213_" gradientUnits="userSpaceOnUse" x1="1156.8741" y1="1169.9" x2="1069.2699" y2="1860.4315">
				<stop  offset="0" style="stop-color:#4F52FF"/>
				<stop  offset="1" style="stop-color:#4042E2"/>
			</linearGradient>
			<path style="fill:url(#SVGID_00000000925251622742912660000000101096131167991213_);" d="M1455.358,2729.08H473.765
				c-5.684,0-10.291-4.607-10.291-10.291v-66.006c0-5.684,4.607-10.291,10.291-10.291h981.593c5.684,0,10.291,4.607,10.291,10.291
				v66.006C1465.649,2724.473,1461.041,2729.08,1455.358,2729.08z"/>
		</g>
		<g>
			<g>
				
					<linearGradient id="SVGID_00000124866352693935354060000015414999999894705834_" gradientUnits="userSpaceOnUse" x1="2002.663" y1="3140.5291" x2="2241.502" y2="3140.5291">
					<stop  offset="0" style="stop-color:#4F52FF"/>
					<stop  offset="1" style="stop-color:#4042E2"/>
				</linearGradient>
				<path style="fill:url(#SVGID_00000124866352693935354060000015414999999894705834_);" d="M2234.757,3128.977
					c-40.916,3.537-111.927,9.282-167.909,11.746c-33.653,1.481-53.027-1.814-64.185-6.281c0.019,1.258,0.054,2.447,0.104,3.55
					c0.265,5.891,5.051,10.604,11.001,10.936c105.782,5.904,189.91,2.043,219.86,0.221c6.193-0.378,9.884-7.108,6.717-12.387
					C2238.76,3134.122,2236.842,3131.534,2234.757,3128.977z"/>
				
					<linearGradient id="SVGID_00000081623127883450054600000012427330192453965240_" gradientUnits="userSpaceOnUse" x1="-144.1846" y1="3093.7197" x2="87.9234" y2="3093.7197" gradientTransform="matrix(1 0 0 1 2146.834 0)">
					<stop  offset="0" style="stop-color:#09005D"/>
					<stop  offset="1" style="stop-color:#1A0F91"/>
				</linearGradient>
				<path style="fill:url(#SVGID_00000081623127883450054600000012427330192453965240_);" d="M2066.848,3140.723
					c55.982-2.464,126.994-8.209,167.909-11.746c-40.227-49.354-167.909-82.62-167.909-82.62h-36.062
					c-24.803,35.753-28.394,69.792-28.123,88.084C2013.821,3138.909,2033.195,3142.204,2066.848,3140.723z"/>
				
					<linearGradient id="SVGID_00000098901786960572406710000014425417953709526430_" gradientUnits="userSpaceOnUse" x1="-122.1207" y1="3028.3674" x2="-54.8446" y2="3028.3674" gradientTransform="matrix(1 0 0 1 2146.834 0)">
					<stop  offset="0" style="stop-color:#FEBBBA"/>
					<stop  offset="1" style="stop-color:#FF928E"/>
				</linearGradient>
				<path style="fill:url(#SVGID_00000098901786960572406710000014425417953709526430_);" d="M2024.713,2987.485l3.375,66.78
					c0.365,7.231,5.778,13.308,13.021,14.344c7.206,1.031,16.856,1.162,27.089-2.245c6.296-2.095,10.97-7.4,12.131-13.87
					l11.661-65.009H2024.713z"/>
				<g>
					
						<linearGradient id="SVGID_00000030464290586252499370000008082943432892417976_" gradientUnits="userSpaceOnUse" x1="1576.3676" y1="3199.7534" x2="1667.8943" y2="3199.7534">
						<stop  offset="0" style="stop-color:#4F52FF"/>
						<stop  offset="1" style="stop-color:#4042E2"/>
					</linearGradient>
					<path style="fill:url(#SVGID_00000030464290586252499370000008082943432892417976_);" d="M1606.172,3206.013
						c-17.744-3.199-25.772-15.111-29.138-27.847c-0.022,0.115-0.045,0.229-0.066,0.343c-2.611,13.435,3.441,27.358,15.54,33.98
						c14.623,8.003,30.613,9.367,43.026,8.706c13.318-0.709,25.542-7.832,32.261-19.231l0.101-0.171
						C1654.527,3210.341,1635.762,3211.347,1606.172,3206.013z"/>
					
						<linearGradient id="SVGID_00000049935741047361959080000001436896368878219942_" gradientUnits="userSpaceOnUse" x1="-569.8008" y1="3108.6733" x2="-435.4572" y2="3108.6733" gradientTransform="matrix(1 0 0 1 2146.834 0)">
						<stop  offset="0" style="stop-color:#09005D"/>
						<stop  offset="1" style="stop-color:#1A0F91"/>
					</linearGradient>
					<path style="fill:url(#SVGID_00000049935741047361959080000001436896368878219942_);" d="M1689.829,3008.061h-29.739
						c-45.299-1.197-73.745,122.286-83.057,170.105c3.366,12.736,11.394,24.648,29.138,27.847
						c29.591,5.334,48.355,4.327,61.723-4.221c24.473-41.622,36.606-102.581,42.438-138.157
						C1716.966,3023.174,1689.829,3008.061,1689.829,3008.061z"/>
				</g>
				
					<linearGradient id="SVGID_00000134956220529534474600000009525401683957500334_" gradientUnits="userSpaceOnUse" x1="-499.971" y1="2993.2856" x2="-419.5692" y2="2993.2856" gradientTransform="matrix(1 0 0 1 2146.834 0)">
					<stop  offset="0" style="stop-color:#FEBBBA"/>
					<stop  offset="1" style="stop-color:#FF928E"/>
				</linearGradient>
				<path style="fill:url(#SVGID_00000134956220529534474600000009525401683957500334_);" d="M1663.912,2946.077l-16.514,65.681
					c-2.025,8.053,1.829,16.383,9.275,20.203c9.238,4.741,22.245,9.723,34.198,8.281c5.621-0.678,10.291-4.637,12.149-9.931
					l24.245-69.103L1663.912,2946.077z"/>
				
					<linearGradient id="SVGID_00000020374476018091585930000009820589910620361373_" gradientUnits="userSpaceOnUse" x1="150.3631" y1="2125.6509" x2="-536.0837" y2="3250.1167" gradientTransform="matrix(1 0 0 1 2146.834 0)">
					<stop  offset="0" style="stop-color:#4F52FF"/>
					<stop  offset="1" style="stop-color:#4042E2"/>
				</linearGradient>
				<path style="fill:url(#SVGID_00000020374476018091585930000009820589910620361373_);" d="M2244.831,2081.021
					c0,0-147.576,922.475-145.145,927.545c0,0-40.759,18.526-85.193,2.361c0,0,13.345-493.128,44.615-682.206
					c0,0-251.862,440.76-331.843,660.382c0,0-41.716-4.974-76.246-27.7c0,0,271.185-793.348,343.534-899.018L2244.831,2081.021z"/>
				
					<linearGradient id="SVGID_00000111880075631774560470000013518726069591506612_" gradientUnits="userSpaceOnUse" x1="-64.8408" y1="2331.9778" x2="-3.0826" y2="2210.8833" gradientTransform="matrix(1 0 0 1 2146.834 0)">
					<stop  offset="0" style="stop-color:#53D8FF"/>
					<stop  offset="1" style="stop-color:#3840F7"/>
				</linearGradient>
				<path style="fill:url(#SVGID_00000111880075631774560470000013518726069591506612_);" d="M2065,2322.903
					c-0.607,0-1.218-0.163-1.769-0.509c-1.567-0.979-2.04-3.042-1.061-4.606l55.149-88.089c0.486-0.78,1.273-1.322,2.174-1.505
					l40.587-8.167c1.808-0.378,3.571,0.81,3.937,2.618c0.362,1.808-0.81,3.571-2.618,3.937l-39.177,7.883l-54.385,86.868
					C2067.203,2322.348,2066.113,2322.903,2065,2322.903z"/>
				
					<linearGradient id="SVGID_00000041269588989213142600000017847576749376366512_" gradientUnits="userSpaceOnUse" x1="605.9171" y1="1299.7103" x2="287.4817" y2="1713.9858" gradientTransform="matrix(1 0 0 1 2146.834 0)">
					<stop  offset="0" style="stop-color:#FEBBBA"/>
					<stop  offset="1" style="stop-color:#FF928E"/>
				</linearGradient>
				<path style="fill:url(#SVGID_00000041269588989213142600000017847576749376366512_);" d="M2922.049,1177.718
					c0,0-99.582,21.963-160.15,49.928c-12.03,5.554-21.625,15.265-27.089,27.235c-18.114,39.681-72.311,139.185-177.417,186.67
					c15.136,20.09,39.508,61.879,50.125,132.118c63.127-46.985,117.626-125.452,143.791-254.139c0,0,19.924,10.831,44.779-1.24
					c13.132-6.378,28.294-15.424,39.676-22.538c11.34-7.089,19.787-18.108,23.067-30.978c4.332-16.994,1.78-31.938,1.78-47.969
					l51.187-15.858C2911.798,1200.948,2927.185,1195.14,2922.049,1177.718z"/>
				
					<linearGradient id="SVGID_00000099639597450086016890000006833150916424859029_" gradientUnits="userSpaceOnUse" x1="235.6763" y1="1403.0955" x2="-827.4601" y2="2663.1089" gradientTransform="matrix(1 0 0 1 2146.834 0)">
					<stop  offset="0" style="stop-color:#4F52FF"/>
					<stop  offset="1" style="stop-color:#4042E2"/>
				</linearGradient>
				<path style="fill:url(#SVGID_00000099639597450086016890000006833150916424859029_);" d="M2607.518,1573.67
					c-10.617-70.239-34.989-112.028-50.125-132.118c-65.293,29.499-150.227,38.93-258.382,1.453
					c-9.97-3.454-20.369-5.478-30.913-6.096c-57.576-3.376-219.862-10.698-376.861,41.172
					c-33.041,10.916-74.91,52.066-88.702,83.716c-42.469,97.462-114.228,269.257,56.185,391.365
					c14.666-36.409,29.328-50.412,43.802-71.914c-30.74-51.85-26.453-113.381,28.096-205.601
					c39.775,107.402,58.436,264.116,62.335,333.469c1.284,22.834-2.722,45.625-11.681,66.707l-0.977,2.299
					c-1.917,4.511,0.721,9.696,5.544,10.779c107.458,24.138,219.223,17.58,252.614,14.822c5.961-0.492,10.914-4.757,12.281-10.519
					c52.253-220.177,52.373-370.367,39.58-465.31C2339.194,1638.821,2488.665,1662.13,2607.518,1573.67z"/>
				<path style="fill:#7D97F4;" d="M2290.528,1631.16c-0.842,0-1.575-0.624-1.688-1.482
					c-12.37-93.454-37.645-134.224-37.899-134.625c-0.504-0.796-0.267-1.85,0.528-2.354c0.794-0.506,1.847-0.271,2.353,0.526
					c0.258,0.406,25.916,41.695,38.4,136.004c0.124,0.935-0.533,1.792-1.467,1.915
					C2290.679,1631.155,2290.603,1631.16,2290.528,1631.16z"/>
				
					<linearGradient id="SVGID_00000094613799436032571390000006046452459108270508_" gradientUnits="userSpaceOnUse" x1="-103.8685" y1="1567.4629" x2="-69.0311" y2="1384.5668" gradientTransform="matrix(1 0 0 1 2146.834 0)">
					<stop  offset="0" style="stop-color:#FEBBBA"/>
					<stop  offset="1" style="stop-color:#FF928E"/>
				</linearGradient>
				<path style="fill:url(#SVGID_00000094613799436032571390000006046452459108270508_);" d="M2025.337,1308.647
					c0,0-10.871,114.941-20.443,148.94c-1.452,5.158,0.789,10.598,5.475,13.275c16.245,9.282,55.207,24.422,108.502-1.697
					c8.634-4.231,13.825-13.231,13.422-22.756l-4.696-111.07L2025.337,1308.647z"/>
				<g>
					
						<linearGradient id="SVGID_00000111871114055098318850000012755044100501506219_" gradientUnits="userSpaceOnUse" x1="-9.6037" y1="1231.9069" x2="-208.3719" y2="1383.9949" gradientTransform="matrix(1 0 0 1 2146.834 0)">
						<stop  offset="0" style="stop-color:#FEBBBA"/>
						<stop  offset="1" style="stop-color:#FF928E"/>
					</linearGradient>
					<path style="fill:url(#SVGID_00000111871114055098318850000012755044100501506219_);" d="M2129.942,1161.602
						c0,0,34.77,79.872,37.105,121.794c2.335,41.922,11.369,69.125-37.105,77.567c-48.474,8.442-89.308-15.705-111.43-57.465
						c0,0-34.662-64.346-26.886-90.699C1999.401,1186.448,2129.942,1161.602,2129.942,1161.602z"/>
					
						<linearGradient id="SVGID_00000147185083752406698100000008298087670611885742_" gradientUnits="userSpaceOnUse" x1="-149.5278" y1="1111.4862" x2="35.5936" y2="1349.8296" gradientTransform="matrix(1 0 0 1 2146.834 0)">
						<stop  offset="0" style="stop-color:#09005D"/>
						<stop  offset="1" style="stop-color:#1A0F91"/>
					</linearGradient>
					<path style="fill:url(#SVGID_00000147185083752406698100000008298087670611885742_);" d="M2035.076,1273.474l2.759-1.216
						c3.513-1.549,5.016-5.73,3.251-9.14c-6.835-13.207-20.161-43.471-2.947-50.531c22.185-9.099,110.063-27.019,129.023-58.201
						c18.223-29.969,2.077-68.653-22.188-79.656c-1.624-0.736-3.539-0.152-4.371,1.424l-2.022,3.826
						c-1.384,2.619-5.252,2.222-6.076-0.623v0c-0.791-2.732-4.424-3.262-5.931-0.85c-5.828,9.329-21.563,24.453-63.64,32.219
						c-59.8,11.036-99.337,35.236-100.321,76.559c-0.062,2.625-2.855,4.085-5.098,2.718c-4.415-2.691-11.481-3.953-20.924,3.987
						c-16.423,13.809-9.703,49.631,26.3,79.097c1.71,1.4,1.696,4.07-0.156,5.276c-6.527,4.248-16.257,14.358,8.954,27.835
						c26.077,13.939,45.549,12.796,53.047,11.558c1.866-0.308,3.068-2.114,2.661-3.96l-8.003-36.319
						c-0.453-2.055,1.112-4.002,3.217-4.002H2035.076z"/>
					
						<linearGradient id="SVGID_00000052825398390184642410000012680402848795444156_" gradientUnits="userSpaceOnUse" x1="-34.258" y1="1199.6842" x2="-233.0269" y2="1351.7728" gradientTransform="matrix(1 0 0 1 2146.834 0)">
						<stop  offset="0" style="stop-color:#FEBBBA"/>
						<stop  offset="1" style="stop-color:#FF928E"/>
					</linearGradient>
					<path style="fill:url(#SVGID_00000052825398390184642410000012680402848795444156_);" d="M2036.582,1281.137
						c0,0-13.264-51.021-36.14-36.715c-22.875,14.305,11.87,57.167,30.261,59.076L2036.582,1281.137z"/>
				</g>
				<path style="fill:#F8A570;" d="M2777.868,1306.648c-0.741,0-1.485-0.245-2.105-0.748c-1.433-1.165-1.648-3.271-0.486-4.704
					c1.498-1.844,36.84-45.219,49.766-52.525c5.01-2.83,7.893-5.709,8.565-8.552c0.382-1.626,0.055-3.431-0.999-5.484l-40.3,8.073
					l-22.448,19.269c-1.394,1.201-3.502,1.048-4.713-0.359c-1.201-1.4-1.042-3.512,0.359-4.714l23.111-19.837
					c0.434-0.372,0.96-0.63,1.521-0.741l43.47-8.709c1.315-0.261,2.673,0.291,3.427,1.41c3.02,4.478,4.025,8.611,3.078,12.626
					c-1.133,4.802-4.988,9-11.781,12.838c-9.825,5.552-37.885,38.642-47.867,50.922
					C2779.804,1306.227,2778.841,1306.648,2777.868,1306.648z"/>
				
					<linearGradient id="SVGID_00000121962316618070792210000002568630274880531387_" gradientUnits="userSpaceOnUse" x1="1945.8821" y1="1783.9401" x2="1595.5255" y2="3114.282">
					<stop  offset="0" style="stop-color:#09005D"/>
					<stop  offset="1" style="stop-color:#1A0F91"/>
				</linearGradient>
				<path style="fill:url(#SVGID_00000121962316618070792210000002568630274880531387_);" d="M1950.65,1462.183l72.7,161.652
					l49.761-15.475l-80.619-155.097c-1.191-2.291-3.735-3.541-6.277-3.082l-32.317,5.835
					C1951.068,1456.527,1949.47,1459.56,1950.65,1462.183z"/>
				
					<linearGradient id="SVGID_00000087383245848021650240000000599398086365635469_" gradientUnits="userSpaceOnUse" x1="2124.4055" y1="1832.4117" x2="1771.2231" y2="3173.4832">
					<stop  offset="0" style="stop-color:#09005D"/>
					<stop  offset="1" style="stop-color:#1A0F91"/>
				</linearGradient>
				<polygon style="fill:url(#SVGID_00000087383245848021650240000000599398086365635469_);" points="2250.676,1580.21 
					2211.129,1434.751 2169.242,1434.901 2213.688,1580.21 				"/>
				
					<linearGradient id="SVGID_00000144298639683618689480000001118056530262440875_" gradientUnits="userSpaceOnUse" x1="1595.5902" y1="2989.5745" x2="2180.54" y2="2026.9144">
					<stop  offset="0" style="stop-color:#09005D"/>
					<stop  offset="1" style="stop-color:#1A0F91"/>
				</linearGradient>
				<path style="fill:url(#SVGID_00000144298639683618689480000001118056530262440875_);" d="M2037.551,1603.853
					c66.028-2.578,135.976-15.493,208.829-36.069c2.438-0.689,5.007,0.569,5.942,2.924l43.079,108.521
					c10.348,129.978-7.18,268.808-44.666,413.974c-33.78,232.659-56.885,453.016-95.943,642.288
					c-0.971,4.706-5.072,8.118-9.875,8.246c-237.512,6.341-381.776-19.219-442.679-61.79c-4.927-3.444-6.407-10.065-3.4-15.271
					c72.333-125.22,257.548-585.553,284.821-614.465l-32.108-309.008c34.867-46.524,62.76-91.246,76.58-132.335
					C2029.503,1606.788,2033.249,1604.021,2037.551,1603.853z"/>
			</g>
			<g>
				
					<linearGradient id="SVGID_00000163791382185574382210000011647802003107179142_" gradientUnits="userSpaceOnUse" x1="2456.1096" y1="1615.4741" x2="2691.75" y2="908.5516">
					<stop  offset="0" style="stop-color:#FF928E"/>
					<stop  offset="1" style="stop-color:#FE7062"/>
				</linearGradient>
				<polygon style="fill:url(#SVGID_00000163791382185574382210000011647802003107179142_);" points="2642.705,1845.729 
					2168.945,1686.175 2193.446,1613.423 2667.207,1772.977 				"/>
				
					<linearGradient id="SVGID_00000100349102652799248210000002459960058375829179_" gradientUnits="userSpaceOnUse" x1="2267.5923" y1="1569.1941" x2="2040.963" y2="1946.9089">
					<stop  offset="0" style="stop-color:#FF928E"/>
					<stop  offset="1" style="stop-color:#FE7062"/>
				</linearGradient>
				<path style="fill:url(#SVGID_00000100349102652799248210000002459960058375829179_);" d="M2080.264,2023.078l-44.533-14.998
					c-2.437-0.821-3.748-3.462-2.927-5.899l146.236-434.214l53.377,17.977l-146.23,434.196
					C2085.363,2022.586,2082.711,2023.902,2080.264,2023.078z"/>
				
					<linearGradient id="SVGID_00000044895627993985415530000008756032613102643873_" gradientUnits="userSpaceOnUse" x1="2687.8215" y1="1663.849" x2="2547.3206" y2="2130.5146">
					<stop  offset="0" style="stop-color:#FF928E"/>
					<stop  offset="1" style="stop-color:#FE7062"/>
				</linearGradient>
				<path style="fill:url(#SVGID_00000044895627993985415530000008756032613102643873_);" d="M2548.408,2179.768l-42.4-14.28
					c-3.283-1.106-5.048-4.664-3.943-7.947l145.72-432.683l53.377,17.977l-146.027,433.595
					C2554.199,2179.21,2551.187,2180.704,2548.408,2179.768z"/>
				
					<linearGradient id="SVGID_00000088133037313509614330000015788128424832081794_" gradientUnits="userSpaceOnUse" x1="2932.0254" y1="954.5922" x2="3142.5962" y2="252.6873">
					<stop  offset="0" style="stop-color:#FEBBBA"/>
					<stop  offset="1" style="stop-color:#FF928E"/>
				</linearGradient>
				<path style="fill:url(#SVGID_00000088133037313509614330000015788128424832081794_);" d="M2802.848,1073.47l-198.669,711.1
					l86.794,29.231c9.417,3.171,19.41-0.935,22.625-9.298l259.115-673.825C3011.388,989.731,2850.33,957.327,2802.848,1073.47z
					 M2696.98,1757.008c-2.746,7.378-9.796,11.572-15.961,9.495l-56.828-19.139l182.854-622.296
					c40.051-102.658,146.985-85.84,111.219,37.457L2696.98,1757.008z"/>
				
					<linearGradient id="SVGID_00000137854613728434973150000015005241672054196657_" gradientUnits="userSpaceOnUse" x1="3108.7676" y1="1340.6385" x2="2787.897" y2="1435.8967">
					<stop  offset="0" style="stop-color:#E1473D"/>
					<stop  offset="1" style="stop-color:#E9605A"/>
				</linearGradient>
				<path style="fill:url(#SVGID_00000137854613728434973150000015005241672054196657_);" d="M2689.075,1742.582l-56.828-19.139
					l151.371-528.816c34.705-86.781,140.755-67.34,111.219,37.457l-190.485,503.036
					C2701.987,1741.363,2695.24,1744.659,2689.075,1742.582z"/>
				
					<linearGradient id="SVGID_00000008847423065009165940000017908962109973788556_" gradientUnits="userSpaceOnUse" x1="2442.9641" y1="1494.8292" x2="2411.4077" y2="1752.537">
					<stop  offset="0" style="stop-color:#E1473D"/>
					<stop  offset="1" style="stop-color:#E9605A"/>
				</linearGradient>
				<path style="fill:url(#SVGID_00000008847423065009165940000017908962109973788556_);" d="M2694.16,1820.017l-580.957-195.656
					c-1.754-0.591-2.697-2.491-2.106-4.245l34.118-101.305c4.411-13.096,18.603-20.138,31.699-15.727l538.841,181.472
					c13.384,4.507,20.579,19.011,16.072,32.395l-34.118,101.305C2697.215,1819.723,2695.626,1820.511,2694.16,1820.017z"/>
			</g>
			
				<linearGradient id="SVGID_00000176027480220295672060000002762150806725998763_" gradientUnits="userSpaceOnUse" x1="2089.2744" y1="1911.0854" x2="1541.6678" y2="2005.765">
				<stop  offset="0" style="stop-color:#FEBBBA"/>
				<stop  offset="1" style="stop-color:#FF928E"/>
			</linearGradient>
			<path style="fill:url(#SVGID_00000176027480220295672060000002762150806725998763_);" d="M2040.102,1981.715l83.543-28.554
				c-10.327-1.471-20.695-2.7-31.069-3.775c-8.707-0.902-17.433-1.695-26.176-2.143c-9.427-0.483-15.644,0.669-12.64-11.49
				c1.41-5.707,4.037-11.109,7.655-15.741c-8.363,2.277-16.247,4.227-23.189,9.712c-1.833,1.449-3.556,3.04-5.468,4.383
				c-9.794,6.876-22.419,7.835-33.15,4.023c-9.804-3.482-19.454-7.234-28.872-11.675c-24.765-11.678-47.778-26.991-68.214-45.208
				c-21.225,12.873-40.848,32.774-43.802,71.914C1902.13,1973.222,1970.485,1991.712,2040.102,1981.715z"/>
			
				<linearGradient id="SVGID_00000091714870341283869960000000703642334780296353_" gradientUnits="userSpaceOnUse" x1="2096.4343" y1="1952.4967" x2="1548.8268" y2="2047.1764">
				<stop  offset="0" style="stop-color:#FEBBBA"/>
				<stop  offset="1" style="stop-color:#FF928E"/>
			</linearGradient>
			<path style="fill:url(#SVGID_00000091714870341283869960000000703642334780296353_);" d="M2008.894,1957.161
				c1.229,0.495,4.258,10.13,5.099,11.57c4.916,8.418,11.957,15.563,20.666,20.038c30.4,15.624,75.621-0.802,93.362-28.027
				c6-9.207,9.292-21.767,9.306-32.686c0.017-12.65-10.589-28.428-17.232-9.521c-1.988,5.659-7.358,9.344-12.572,12.308
				c-16.51,9.388-34.819,15.589-53.63,18.198C2040.451,1950.906,2022.51,1962.639,2008.894,1957.161z"/>
		</g>
		<g>
			
				<linearGradient id="SVGID_00000065785415008023819040000009507757860871089557_" gradientUnits="userSpaceOnUse" x1="2457.624" y1="3273.4724" x2="2499.2676" y2="1762.3944">
				<stop  offset="0" style="stop-color:#FF928E"/>
				<stop  offset="1" style="stop-color:#FE7062"/>
			</linearGradient>
			
				<rect x="1749.068" y="2870.368" style="fill:url(#SVGID_00000065785415008023819040000009507757860871089557_);" width="1436.35" height="108.145"/>
			
				<linearGradient id="SVGID_00000069393060745963312890000016658811726107736747_" gradientUnits="userSpaceOnUse" x1="2853.0774" y1="1093.7904" x2="2577.3289" y2="1534.9875">
				<stop  offset="0" style="stop-color:#FF928E"/>
				<stop  offset="1" style="stop-color:#FE7062"/>
			</linearGradient>
			
				<rect x="1749.068" y="2408.279" style="fill:url(#SVGID_00000069393060745963312890000016658811726107736747_);" width="74.36" height="784.874"/>
			
				<linearGradient id="SVGID_00000117634447135488124150000010152060922094354592_" gradientUnits="userSpaceOnUse" x1="3832.4851" y1="1705.9204" x2="3556.7368" y2="2147.1177">
				<stop  offset="0" style="stop-color:#FF928E"/>
				<stop  offset="1" style="stop-color:#FE7062"/>
			</linearGradient>
			
				<rect x="3111.058" y="2408.279" style="fill:url(#SVGID_00000117634447135488124150000010152060922094354592_);" width="74.36" height="784.874"/>
			
				<linearGradient id="SVGID_00000171710604433127101720000014740170251168237189_" gradientUnits="userSpaceOnUse" x1="2418.8557" y1="4138.3643" x2="2460.9426" y2="2611.1895">
				<stop  offset="0" style="stop-color:#FF928E"/>
				<stop  offset="1" style="stop-color:#FE7062"/>
			</linearGradient>
			
				<rect x="1747.651" y="2324.153" style="fill:url(#SVGID_00000171710604433127101720000014740170251168237189_);" width="1437.766" height="168.25"/>
			
				<linearGradient id="SVGID_00000022550514100597271930000014063032023874856115_" gradientUnits="userSpaceOnUse" x1="2478.2791" y1="2356.5881" x2="2468.7786" y2="4057.1333">
				<stop  offset="0" style="stop-color:#FEBBBA"/>
				<stop  offset="1" style="stop-color:#FF928E"/>
			</linearGradient>
			<path style="fill:url(#SVGID_00000022550514100597271930000014063032023874856115_);" d="M3236.054,2332.835H1721.342
				c-5.783,0-10.472-4.688-10.472-10.472v-81.474c0-5.783,4.688-10.472,10.472-10.472h1514.713c5.783,0,10.472,4.688,10.472,10.472
				v81.474C3246.526,2328.147,3241.838,2332.835,3236.054,2332.835z"/>
		</g>
	</g>
</g>
</svg>
